<svg width="1203" height="227" viewBox="0 0 1203 227" fill="none" xmlns="http://www.w3.org/2000/svg">
<line x1="41" y1="106.5" x2="296" y2="106.5" stroke="#00FF00" stroke-width="3"/>
<line x1="349" y1="106.5" x2="513" y2="106.5" stroke="#00FF00" stroke-width="3"/>
<line x1="566" y1="106.5" x2="866" y2="106.5" stroke="#00FF00" stroke-width="3"/>
<line x1="926" y1="106.5" x2="1162" y2="106.5" stroke="#00FF00" stroke-width="3"/>
<line x1="77" y1="27.5" x2="222" y2="27.5" stroke="white" stroke-width="3"/>
<circle cx="14" cy="108" r="10.5" stroke="white" stroke-width="7"/>
<circle cx="322" cy="107" r="10.5" stroke="white" stroke-width="7"/>
<circle cx="539" cy="106" r="10.5" stroke="white" stroke-width="7"/>
<circle cx="14" cy="14" r="10.5" transform="matrix(1 0 0 -1 881 121)" stroke="white" stroke-width="7"/>
<line x1="2.93934" y1="101.939" x2="77.9393" y2="26.9393" stroke="white" stroke-width="3"/>
<line x1="602" y1="26.5" x2="778" y2="26.5" stroke="white" stroke-width="3"/>
<line x1="527.939" y1="100.939" x2="602.939" y2="25.9393" stroke="white" stroke-width="3"/>
<line x1="398" y1="199.5" x2="478" y2="199.5" stroke="white" stroke-width="3"/>
<line x1="310.061" y1="110.939" x2="399.061" y2="199.939" stroke="white" stroke-width="3"/>
<line x1="971" y1="198.5" x2="1062" y2="198.5" stroke="white" stroke-width="3"/>
<line x1="883.061" y1="109.939" x2="972.061" y2="198.939" stroke="white" stroke-width="3"/>
<path d="M78.8281 13.5977V4.19922C78.3203 4.19141 77.9453 4.07812 77.7031 3.85938C77.4609 3.63281 77.3398 3.34375 77.3398 2.99219C77.3398 2.63281 77.4609 2.34375 77.7031 2.125C77.9531 1.89844 78.3672 1.78516 78.9453 1.78516L83.9727 1.79688C84.7539 1.79688 85.5156 1.94141 86.2578 2.23047C87.0078 2.51953 87.6094 2.88672 88.0625 3.33203C88.4062 3.66797 88.7617 4.12891 89.1289 4.71484C89.5039 5.30078 89.7852 5.88281 89.9727 6.46094C90.1602 7.03906 90.2539 7.74609 90.2539 8.58203V9.73047C90.2539 10.7461 90.082 11.6484 89.7383 12.4375C89.3945 13.2188 88.9414 13.8594 88.3789 14.3594C87.8242 14.8516 87.3008 15.2148 86.8086 15.4492C86.0273 15.8164 85.0156 16 83.7734 16H78.9453C78.3672 16 77.9531 15.8906 77.7031 15.6719C77.4609 15.4453 77.3398 15.1523 77.3398 14.793C77.3398 14.4414 77.4609 14.1523 77.7031 13.9258C77.9531 13.6992 78.3281 13.5898 78.8281 13.5977ZM81.2305 13.5977H83.7852C84.7383 13.5977 85.457 13.4609 85.9414 13.1875C86.5742 12.8281 87.0508 12.3711 87.3711 11.8164C87.6914 11.2617 87.8516 10.543 87.8516 9.66016V8.52344C87.8516 7.76562 87.707 7.10156 87.418 6.53125C86.9648 5.64062 86.4531 5.03125 85.8828 4.70312C85.3203 4.36719 84.6133 4.19922 83.7617 4.19922H81.2305V13.5977ZM100.777 16V15.4375C100.176 15.7578 99.5117 15.9961 98.7852 16.1523C98.0586 16.3164 97.3984 16.3984 96.8047 16.3984C95.5156 16.3984 94.4688 16.0586 93.6641 15.3789C92.8594 14.6914 92.457 13.9336 92.457 13.1055C92.457 12.0977 92.9688 11.1641 93.9922 10.3047C95.0234 9.4375 96.4453 9.00391 98.2578 9.00391C98.9844 9.00391 99.8242 9.08203 100.777 9.23828V8.66406C100.777 8.30469 100.621 8.01172 100.309 7.78516C100.004 7.55859 99.418 7.44531 98.5508 7.44531C97.8398 7.44531 96.918 7.58594 95.7852 7.86719C95.3633 7.96875 95.0352 8.01953 94.8008 8.01953C94.4805 8.01953 94.207 7.90625 93.9805 7.67969C93.7617 7.44531 93.6523 7.14844 93.6523 6.78906C93.6523 6.58594 93.6914 6.41016 93.7695 6.26172C93.8477 6.11328 93.957 5.99609 94.0977 5.91016C94.2383 5.81641 94.5312 5.70703 94.9766 5.58203C95.5703 5.41797 96.1758 5.28906 96.793 5.19531C97.4102 5.09375 97.9688 5.04297 98.4688 5.04297C99.9609 5.04297 101.117 5.36719 101.938 6.01562C102.766 6.65625 103.18 7.53516 103.18 8.65234V13.5977H103.59C104.168 13.5977 104.578 13.7109 104.82 13.9375C105.07 14.1562 105.195 14.4453 105.195 14.8047C105.195 15.1562 105.07 15.4453 104.82 15.6719C104.578 15.8906 104.168 16 103.59 16H100.777ZM100.777 11.6992C99.8164 11.5117 98.9297 11.418 98.1172 11.418C97.1406 11.418 96.3008 11.6562 95.5977 12.1328C95.1602 12.4375 94.9414 12.7461 94.9414 13.0586C94.9414 13.2852 95.0469 13.4688 95.2578 13.6094C95.6484 13.8672 96.1836 13.9961 96.8633 13.9961C97.4414 13.9961 98.0938 13.8828 98.8203 13.6562C99.5547 13.4297 100.207 13.1211 100.777 12.7305V11.6992ZM111.688 15.918L107.527 7.76172C107.137 7.71484 106.84 7.58203 106.637 7.36328C106.434 7.14453 106.332 6.87891 106.332 6.56641C106.332 6.20703 106.453 5.91797 106.695 5.69922C106.945 5.47266 107.359 5.35938 107.938 5.35938H110.129C110.707 5.35938 111.117 5.47266 111.359 5.69922C111.609 5.91797 111.734 6.20703 111.734 6.56641C111.734 6.91797 111.609 7.20703 111.359 7.43359C111.117 7.65234 110.73 7.76172 110.199 7.76172L113.035 13.2812L115.848 7.76172C115.332 7.76172 114.949 7.65234 114.699 7.43359C114.457 7.20703 114.336 6.91406 114.336 6.55469C114.336 6.20312 114.457 5.91797 114.699 5.69922C114.949 5.47266 115.363 5.35938 115.941 5.35938H118.203C118.773 5.35938 119.18 5.47266 119.422 5.69922C119.672 5.91797 119.797 6.20703 119.797 6.56641C119.797 6.88672 119.691 7.16016 119.48 7.38672C119.27 7.60547 118.957 7.73047 118.543 7.76172L113.035 18.6133C113.637 18.6133 114.031 18.6719 114.219 18.7891C114.594 19.0312 114.781 19.375 114.781 19.8203C114.781 20.1719 114.656 20.457 114.406 20.6758C114.164 20.9023 113.754 21.0156 113.176 21.0156H107.938C107.359 21.0156 106.945 20.9023 106.695 20.6758C106.453 20.457 106.332 20.1719 106.332 19.8203C106.332 19.4609 106.453 19.168 106.695 18.9414C106.945 18.7227 107.359 18.6133 107.938 18.6133H110.328L111.688 15.918ZM136.953 13.5977V4.19922H136.578C136 4.19922 135.586 4.08984 135.336 3.87109C135.094 3.64453 134.973 3.35156 134.973 2.99219C134.973 2.63281 135.094 2.34375 135.336 2.125C135.586 1.89844 136 1.78516 136.578 1.78516H142.602C144.039 1.78516 145.195 2.1875 146.07 2.99219C146.945 3.78906 147.383 4.73828 147.383 5.83984C147.383 6.36328 147.281 6.85547 147.078 7.31641C146.875 7.77734 146.566 8.20312 146.152 8.59375C146.91 9.04688 147.477 9.57812 147.852 10.1875C148.234 10.7891 148.426 11.4727 148.426 12.2383C148.426 12.8477 148.289 13.4141 148.016 13.9375C147.812 14.3359 147.562 14.6523 147.266 14.8867C146.867 15.2148 146.379 15.4844 145.801 15.6953C145.223 15.8984 144.5 16 143.633 16H136.578C136 16 135.586 15.8906 135.336 15.6719C135.094 15.4453 134.973 15.1523 134.973 14.793C134.973 14.4414 135.098 14.1562 135.348 13.9375C135.598 13.7109 136.008 13.5977 136.578 13.5977H136.953ZM139.355 7.69141H141.992C142.938 7.69141 143.723 7.45312 144.348 6.97656C144.77 6.65625 144.98 6.25781 144.98 5.78125C144.98 5.35938 144.781 4.99219 144.383 4.67969C143.984 4.35938 143.352 4.19922 142.484 4.19922H139.355V7.69141ZM139.355 13.5977H143.504C144.48 13.5977 145.168 13.4531 145.566 13.1641C145.871 12.9453 146.023 12.6328 146.023 12.2266C146.023 11.7422 145.723 11.2656 145.121 10.7969C144.52 10.3281 143.656 10.0938 142.531 10.0938H139.355V13.5977ZM162.301 11.8984H152.445C152.695 12.5234 153.137 13.0273 153.77 13.4102C154.41 13.793 155.273 13.9844 156.359 13.9844C157.25 13.9844 158.434 13.793 159.91 13.4102C160.52 13.2539 160.941 13.1758 161.176 13.1758C161.496 13.1758 161.766 13.2891 161.984 13.5156C162.203 13.7422 162.312 14.0273 162.312 14.3711C162.312 14.6836 162.195 14.9492 161.961 15.168C161.648 15.457 160.887 15.7344 159.676 16C158.465 16.2578 157.301 16.3867 156.184 16.3867C154.262 16.3867 152.723 15.8438 151.566 14.7578C150.418 13.6719 149.844 12.3359 149.844 10.75C149.844 9.0625 150.465 7.69141 151.707 6.63672C152.957 5.57422 154.395 5.04297 156.02 5.04297C156.996 5.04297 157.891 5.21484 158.703 5.55859C159.523 5.90234 160.133 6.27344 160.531 6.67188C161.094 7.25 161.559 7.96484 161.926 8.81641C162.176 9.41016 162.301 10.0977 162.301 10.8789V11.8984ZM159.641 9.49609C159.273 8.80859 158.793 8.29688 158.199 7.96094C157.605 7.61719 156.898 7.44531 156.078 7.44531C155.266 7.44531 154.562 7.61719 153.969 7.96094C153.375 8.29688 152.891 8.80859 152.516 9.49609H159.641ZM173.328 6.07422V5.35938H176.141C176.719 5.35938 177.129 5.47266 177.371 5.69922C177.621 5.91797 177.746 6.20703 177.746 6.56641C177.746 6.91797 177.621 7.20703 177.371 7.43359C177.129 7.65234 176.719 7.76172 176.141 7.76172H175.73V16.5039C175.73 17.3477 175.551 18.082 175.191 18.707C174.84 19.3398 174.297 19.8828 173.562 20.3359C172.828 20.7891 172 21.0156 171.078 21.0156H168.359C167.781 21.0156 167.367 20.9023 167.117 20.6758C166.875 20.457 166.754 20.1719 166.754 19.8203C166.754 19.4609 166.875 19.168 167.117 18.9414C167.367 18.7227 167.781 18.6133 168.359 18.6133H171.008C171.742 18.6133 172.312 18.4141 172.719 18.0156C173.125 17.6172 173.328 17.1133 173.328 16.5039V15.332C172.797 15.6758 172.254 15.9336 171.699 16.1055C171.152 16.2773 170.59 16.3633 170.012 16.3633C168.379 16.3633 167.012 15.8203 165.91 14.7344C164.809 13.6406 164.258 12.293 164.258 10.6914C164.258 9.08203 164.809 7.73438 165.91 6.64844C167.012 5.55469 168.379 5.00781 170.012 5.00781C170.621 5.00781 171.199 5.09766 171.746 5.27734C172.301 5.44922 172.828 5.71484 173.328 6.07422ZM173.316 10.6797C173.316 9.79688 172.988 9.03125 172.332 8.38281C171.684 7.73438 170.902 7.41016 169.988 7.41016C169.074 7.41016 168.289 7.73438 167.633 8.38281C166.984 9.03125 166.66 9.79688 166.66 10.6797C166.66 11.5703 166.984 12.3398 167.633 12.9883C168.289 13.6289 169.074 13.9492 169.988 13.9492C170.902 13.9492 171.684 13.6289 172.332 12.9883C172.988 12.3398 173.316 11.5703 173.316 10.6797ZM185.961 0.800781V3.34375H183.102V0.800781H185.961ZM186.289 5.35938V13.5977H189.172C189.75 13.5977 190.16 13.7109 190.402 13.9375C190.652 14.1562 190.777 14.4453 190.777 14.8047C190.777 15.1562 190.652 15.4453 190.402 15.6719C190.16 15.8906 189.75 16 189.172 16H181.004C180.426 16 180.012 15.8906 179.762 15.6719C179.52 15.4453 179.398 15.1523 179.398 14.793C179.398 14.4414 179.52 14.1562 179.762 13.9375C180.012 13.7109 180.426 13.5977 181.004 13.5977H183.887V7.76172H181.953C181.383 7.76172 180.973 7.65234 180.723 7.43359C180.473 7.20703 180.348 6.91406 180.348 6.55469C180.348 6.20312 180.469 5.91797 180.711 5.69922C180.961 5.47266 181.375 5.35938 181.953 5.35938H186.289ZM197.082 5.35938V6.16797C197.52 5.79297 198 5.51172 198.523 5.32422C199.055 5.13672 199.629 5.04297 200.246 5.04297C201.668 5.04297 202.793 5.48438 203.621 6.36719C204.277 7.07031 204.605 7.99219 204.605 9.13281V13.5977C205.113 13.5977 205.488 13.7109 205.73 13.9375C205.973 14.1562 206.094 14.4453 206.094 14.8047C206.094 15.1562 205.969 15.4453 205.719 15.6719C205.477 15.8906 205.066 16 204.488 16H202.32C201.742 16 201.328 15.8906 201.078 15.6719C200.836 15.4453 200.715 15.1523 200.715 14.793C200.715 14.4414 200.836 14.1562 201.078 13.9375C201.32 13.7109 201.695 13.5977 202.203 13.5977V9.0625C202.203 8.53906 202.062 8.15625 201.781 7.91406C201.414 7.60156 200.863 7.44531 200.129 7.44531C199.574 7.44531 199.086 7.55469 198.664 7.77344C198.25 7.98438 197.723 8.4375 197.082 9.13281V13.5977C197.699 13.5977 198.098 13.6562 198.277 13.7734C198.66 14.0078 198.852 14.3516 198.852 14.8047C198.852 15.1562 198.727 15.4453 198.477 15.6719C198.234 15.8906 197.824 16 197.246 16H194.516C193.938 16 193.523 15.8906 193.273 15.6719C193.031 15.4453 192.91 15.1523 192.91 14.793C192.91 14.3555 193.098 14.0156 193.473 13.7734C193.66 13.6562 194.062 13.5977 194.68 13.5977V7.76172C194.172 7.76172 193.797 7.64844 193.555 7.42188C193.312 7.19531 193.191 6.90625 193.191 6.55469C193.191 6.20312 193.312 5.91797 193.555 5.69922C193.805 5.47266 194.219 5.35938 194.797 5.35938H197.082ZM216.523 8.17188C216.133 7.92969 215.723 7.75 215.293 7.63281C214.863 7.50781 214.414 7.44531 213.945 7.44531C213.016 7.44531 212.277 7.59766 211.73 7.90234C211.488 8.03516 211.367 8.17969 211.367 8.33594C211.367 8.51562 211.531 8.69141 211.859 8.86328C212.109 8.98828 212.668 9.10938 213.535 9.22656C215.129 9.44531 216.238 9.66406 216.863 9.88281C217.684 10.1719 218.316 10.6016 218.762 11.1719C219.207 11.7422 219.43 12.3438 219.43 12.9766C219.43 13.8359 219.051 14.5547 218.293 15.1328C217.207 15.9688 215.797 16.3867 214.062 16.3867C213.367 16.3867 212.723 16.3242 212.129 16.1992C211.543 16.082 211.004 15.9062 210.512 15.6719C210.395 15.7734 210.27 15.8516 210.137 15.9062C210.004 15.9609 209.867 15.9883 209.727 15.9883C209.352 15.9883 209.051 15.8672 208.824 15.625C208.605 15.375 208.496 14.9609 208.496 14.3828V13.5742C208.496 12.9961 208.605 12.5859 208.824 12.3438C209.051 12.0938 209.344 11.9688 209.703 11.9688C209.992 11.9688 210.234 12.0508 210.43 12.2148C210.625 12.3711 210.777 12.6445 210.887 13.0352C211.254 13.3477 211.695 13.5859 212.211 13.75C212.727 13.9062 213.32 13.9844 213.992 13.9844C215.094 13.9844 215.949 13.8125 216.559 13.4688C216.848 13.2969 216.992 13.1172 216.992 12.9297C216.992 12.6172 216.785 12.3594 216.371 12.1562C215.957 11.9531 215.102 11.7812 213.805 11.6406C211.875 11.4375 210.586 11.0469 209.938 10.4688C209.289 9.89844 208.965 9.19531 208.965 8.35938C208.965 7.5 209.328 6.78516 210.055 6.21484C211.039 5.43359 212.328 5.04297 213.922 5.04297C214.477 5.04297 215.008 5.09766 215.516 5.20703C216.031 5.30859 216.523 5.46875 216.992 5.6875C217.141 5.57812 217.277 5.49609 217.402 5.44141C217.535 5.38672 217.656 5.35938 217.766 5.35938C218.094 5.35938 218.367 5.48438 218.586 5.73438C218.805 5.97656 218.914 6.38672 218.914 6.96484V7.55078C218.914 8.07422 218.852 8.42969 218.727 8.61719C218.477 8.97656 218.137 9.15625 217.707 9.15625C217.418 9.15625 217.164 9.06641 216.945 8.88672C216.727 8.70703 216.586 8.46875 216.523 8.17188Z" fill="white"/>
<path d="M408.199 176.199V185.598H413.379V183.324C413.379 182.746 413.488 182.336 413.707 182.094C413.934 181.844 414.227 181.719 414.586 181.719C414.938 181.719 415.223 181.844 415.441 182.094C415.668 182.336 415.781 182.746 415.781 183.324V188H404.402C403.824 188 403.41 187.891 403.16 187.672C402.918 187.445 402.797 187.152 402.797 186.793C402.797 186.441 402.918 186.156 403.16 185.938C403.41 185.711 403.824 185.598 404.402 185.598H405.797V176.199H404.402C403.824 176.199 403.41 176.09 403.16 175.871C402.918 175.645 402.797 175.352 402.797 174.992C402.797 174.633 402.918 174.344 403.16 174.125C403.41 173.898 403.824 173.785 404.402 173.785L409.605 173.797C410.184 173.797 410.594 173.906 410.836 174.125C411.086 174.344 411.211 174.633 411.211 174.992C411.211 175.352 411.086 175.645 410.836 175.871C410.594 176.09 410.184 176.199 409.605 176.199H408.199ZM428.719 177.359V185.598C429.227 185.598 429.602 185.711 429.844 185.938C430.086 186.164 430.207 186.453 430.207 186.805C430.207 187.156 430.082 187.445 429.832 187.672C429.59 187.891 429.18 188 428.602 188H426.316V187.449C425.629 187.762 424.973 187.996 424.348 188.152C423.723 188.309 423.129 188.387 422.566 188.387C421.777 188.387 421.094 188.223 420.516 187.895C419.938 187.559 419.48 187.098 419.145 186.512C418.902 186.09 418.781 185.562 418.781 184.93V179.762H418.371C417.793 179.762 417.379 179.652 417.129 179.434C416.887 179.207 416.766 178.914 416.766 178.555C416.766 178.203 416.887 177.918 417.129 177.699C417.379 177.473 417.793 177.359 418.371 177.359H421.184V184.508C421.184 185.016 421.305 185.391 421.547 185.633C421.797 185.867 422.176 185.984 422.684 185.984C423.168 185.984 423.688 185.891 424.242 185.703C424.805 185.508 425.496 185.16 426.316 184.66V179.762H425.449C424.871 179.762 424.457 179.652 424.207 179.434C423.965 179.207 423.844 178.914 423.844 178.555C423.844 178.203 423.965 177.918 424.207 177.699C424.457 177.473 424.871 177.359 425.449 177.359H428.719ZM435.598 177.359V178.168C436.035 177.793 436.516 177.512 437.039 177.324C437.57 177.137 438.145 177.043 438.762 177.043C440.184 177.043 441.309 177.484 442.137 178.367C442.793 179.07 443.121 179.992 443.121 181.133V185.598C443.629 185.598 444.004 185.711 444.246 185.938C444.488 186.156 444.609 186.445 444.609 186.805C444.609 187.156 444.484 187.445 444.234 187.672C443.992 187.891 443.582 188 443.004 188H440.836C440.258 188 439.844 187.891 439.594 187.672C439.352 187.445 439.23 187.152 439.23 186.793C439.23 186.441 439.352 186.156 439.594 185.938C439.836 185.711 440.211 185.598 440.719 185.598V181.062C440.719 180.539 440.578 180.156 440.297 179.914C439.93 179.602 439.379 179.445 438.645 179.445C438.09 179.445 437.602 179.555 437.18 179.773C436.766 179.984 436.238 180.438 435.598 181.133V185.598C436.215 185.598 436.613 185.656 436.793 185.773C437.176 186.008 437.367 186.352 437.367 186.805C437.367 187.156 437.242 187.445 436.992 187.672C436.75 187.891 436.34 188 435.762 188H433.031C432.453 188 432.039 187.891 431.789 187.672C431.547 187.445 431.426 187.152 431.426 186.793C431.426 186.355 431.613 186.016 431.988 185.773C432.176 185.656 432.578 185.598 433.195 185.598V179.762C432.688 179.762 432.312 179.648 432.07 179.422C431.828 179.195 431.707 178.906 431.707 178.555C431.707 178.203 431.828 177.918 432.07 177.699C432.32 177.473 432.734 177.359 433.312 177.359H435.598ZM456.188 177.793C456.477 177.52 456.773 177.383 457.078 177.383C457.422 177.383 457.703 177.508 457.922 177.758C458.148 178 458.262 178.406 458.262 178.977V180.523C458.262 181.102 458.148 181.512 457.922 181.754C457.703 181.996 457.414 182.117 457.055 182.117C456.727 182.117 456.449 182.023 456.223 181.836C456.059 181.695 455.93 181.41 455.836 180.98C455.742 180.543 455.516 180.219 455.156 180.008C454.523 179.633 453.715 179.445 452.73 179.445C451.598 179.445 450.688 179.777 450 180.441C449.32 181.105 448.98 181.945 448.98 182.961C448.98 183.898 449.309 184.641 449.965 185.188C450.621 185.727 451.711 185.996 453.234 185.996C454.234 185.996 455.051 185.895 455.684 185.691C456.059 185.566 456.414 185.355 456.75 185.059C457.086 184.754 457.391 184.602 457.664 184.602C457.992 184.602 458.273 184.723 458.508 184.965C458.75 185.207 458.871 185.492 458.871 185.82C458.871 186.352 458.508 186.855 457.781 187.332C456.703 188.043 455.125 188.398 453.047 188.398C451.18 188.398 449.727 188.012 448.688 187.238C447.281 186.199 446.578 184.777 446.578 182.973C446.578 181.262 447.148 179.848 448.289 178.73C449.43 177.605 450.918 177.043 452.754 177.043C453.418 177.043 454.035 177.105 454.605 177.23C455.176 177.355 455.703 177.543 456.188 177.793ZM464.379 172.801V177.922C464.879 177.625 465.383 177.406 465.891 177.266C466.406 177.117 466.926 177.043 467.449 177.043C468.277 177.043 469.016 177.184 469.664 177.465C470.312 177.746 470.848 178.191 471.27 178.801C471.699 179.402 471.914 180.164 471.914 181.086V185.598C472.523 185.598 472.922 185.656 473.109 185.773C473.484 186.016 473.672 186.359 473.672 186.805C473.672 187.156 473.551 187.445 473.309 187.672C473.066 187.891 472.656 188 472.078 188H469.336C468.766 188 468.355 187.891 468.105 187.672C467.863 187.445 467.742 187.152 467.742 186.793C467.742 186.355 467.93 186.016 468.305 185.773C468.5 185.648 468.898 185.59 469.5 185.598V181.25C469.5 180.633 469.359 180.199 469.078 179.949C468.711 179.613 468.168 179.445 467.449 179.445C466.918 179.445 466.445 179.551 466.031 179.762C465.625 179.965 465.074 180.41 464.379 181.098V185.598C464.996 185.598 465.395 185.656 465.574 185.773C465.957 186.016 466.148 186.359 466.148 186.805C466.148 187.156 466.023 187.445 465.773 187.672C465.531 187.891 465.121 188 464.543 188H461.812C461.234 188 460.82 187.891 460.57 187.672C460.328 187.445 460.207 187.152 460.207 186.793C460.207 186.355 460.398 186.016 460.781 185.773C460.969 185.648 461.367 185.59 461.977 185.598V175.203H461.566C460.988 175.203 460.574 175.094 460.324 174.875C460.082 174.648 459.961 174.355 459.961 173.996C459.961 173.645 460.082 173.359 460.324 173.141C460.574 172.914 460.988 172.801 461.566 172.801H464.379Z" fill="white"/>
<path d="M615.969 4.40625C616.117 4.20313 616.277 4.05078 616.449 3.94922C616.629 3.84766 616.82 3.79688 617.023 3.79688C617.375 3.79688 617.66 3.91797 617.879 4.16016C618.105 4.40234 618.219 4.8125 618.219 5.39062V7.42969C618.219 8.00781 618.105 8.42188 617.879 8.67188C617.66 8.91406 617.375 9.03516 617.023 9.03516C616.703 9.03516 616.445 8.94531 616.25 8.76562C616.055 8.58594 615.91 8.25 615.816 7.75781C615.762 7.42969 615.652 7.17578 615.488 6.99609C615.168 6.64453 614.719 6.36328 614.141 6.15234C613.57 5.94141 612.996 5.83594 612.418 5.83594C611.699 5.83594 611.039 5.99219 610.438 6.30469C609.836 6.61719 609.305 7.125 608.844 7.82812C608.383 8.53125 608.152 9.36719 608.152 10.3359V11.8945C608.152 13.0508 608.57 14.0156 609.406 14.7891C610.25 15.5625 611.418 15.9492 612.91 15.9492C613.801 15.9492 614.555 15.8281 615.172 15.5859C615.531 15.4453 615.914 15.168 616.32 14.7539C616.57 14.5039 616.766 14.3438 616.906 14.2734C617.047 14.1953 617.207 14.1562 617.387 14.1562C617.707 14.1562 617.988 14.2773 618.23 14.5195C618.473 14.7617 618.594 15.0469 618.594 15.375C618.594 15.7031 618.43 16.0547 618.102 16.4297C617.625 16.9766 617.012 17.4062 616.262 17.7188C615.254 18.1406 614.141 18.3516 612.922 18.3516C611.5 18.3516 610.219 18.0586 609.078 17.4727C608.156 17.0039 607.371 16.2656 606.723 15.2578C606.074 14.2422 605.75 13.1367 605.75 11.9414V10.3125C605.75 9.0625 606.039 7.89844 606.617 6.82031C607.203 5.73437 608.012 4.89844 609.043 4.3125C610.074 3.72656 611.168 3.43359 612.324 3.43359C613.02 3.43359 613.668 3.51562 614.27 3.67969C614.879 3.83594 615.445 4.07812 615.969 4.40625ZM624.137 2.80078V7.92188C624.637 7.625 625.141 7.40625 625.648 7.26562C626.164 7.11719 626.684 7.04297 627.207 7.04297C628.035 7.04297 628.773 7.18359 629.422 7.46484C630.07 7.74609 630.605 8.19141 631.027 8.80078C631.457 9.40234 631.672 10.1641 631.672 11.0859V15.5977C632.281 15.5977 632.68 15.6562 632.867 15.7734C633.242 16.0156 633.43 16.3594 633.43 16.8047C633.43 17.1562 633.309 17.4453 633.066 17.6719C632.824 17.8906 632.414 18 631.836 18H629.094C628.523 18 628.113 17.8906 627.863 17.6719C627.621 17.4453 627.5 17.1523 627.5 16.793C627.5 16.3555 627.688 16.0156 628.062 15.7734C628.258 15.6484 628.656 15.5898 629.258 15.5977V11.25C629.258 10.6328 629.117 10.1992 628.836 9.94922C628.469 9.61328 627.926 9.44531 627.207 9.44531C626.676 9.44531 626.203 9.55078 625.789 9.76172C625.383 9.96484 624.832 10.4102 624.137 11.0977V15.5977C624.754 15.5977 625.152 15.6562 625.332 15.7734C625.715 16.0156 625.906 16.3594 625.906 16.8047C625.906 17.1562 625.781 17.4453 625.531 17.6719C625.289 17.8906 624.879 18 624.301 18H621.57C620.992 18 620.578 17.8906 620.328 17.6719C620.086 17.4453 619.965 17.1523 619.965 16.793C619.965 16.3555 620.156 16.0156 620.539 15.7734C620.727 15.6484 621.125 15.5898 621.734 15.5977V5.20312H621.324C620.746 5.20312 620.332 5.09375 620.082 4.875C619.84 4.64844 619.719 4.35547 619.719 3.99609C619.719 3.64453 619.84 3.35938 620.082 3.14062C620.332 2.91406 620.746 2.80078 621.324 2.80078H624.137ZM643.191 18V17.4375C642.59 17.7578 641.926 17.9961 641.199 18.1523C640.473 18.3164 639.812 18.3984 639.219 18.3984C637.93 18.3984 636.883 18.0586 636.078 17.3789C635.273 16.6914 634.871 15.9336 634.871 15.1055C634.871 14.0977 635.383 13.1641 636.406 12.3047C637.438 11.4375 638.859 11.0039 640.672 11.0039C641.398 11.0039 642.238 11.082 643.191 11.2383V10.6641C643.191 10.3047 643.035 10.0117 642.723 9.78516C642.418 9.55859 641.832 9.44531 640.965 9.44531C640.254 9.44531 639.332 9.58594 638.199 9.86719C637.777 9.96875 637.449 10.0195 637.215 10.0195C636.895 10.0195 636.621 9.90625 636.395 9.67969C636.176 9.44531 636.066 9.14844 636.066 8.78906C636.066 8.58594 636.105 8.41016 636.184 8.26172C636.262 8.11328 636.371 7.99609 636.512 7.91016C636.652 7.81641 636.945 7.70703 637.391 7.58203C637.984 7.41797 638.59 7.28906 639.207 7.19531C639.824 7.09375 640.383 7.04297 640.883 7.04297C642.375 7.04297 643.531 7.36719 644.352 8.01562C645.18 8.65625 645.594 9.53516 645.594 10.6523V15.5977H646.004C646.582 15.5977 646.992 15.7109 647.234 15.9375C647.484 16.1562 647.609 16.4453 647.609 16.8047C647.609 17.1562 647.484 17.4453 647.234 17.6719C646.992 17.8906 646.582 18 646.004 18H643.191ZM643.191 13.6992C642.23 13.5117 641.344 13.418 640.531 13.418C639.555 13.418 638.715 13.6562 638.012 14.1328C637.574 14.4375 637.355 14.7461 637.355 15.0586C637.355 15.2852 637.461 15.4688 637.672 15.6094C638.062 15.8672 638.598 15.9961 639.277 15.9961C639.855 15.9961 640.508 15.8828 641.234 15.6562C641.969 15.4297 642.621 15.1211 643.191 14.7305V13.6992ZM656.645 2.80078V15.5977H659.527C660.105 15.5977 660.516 15.7109 660.758 15.9375C661.008 16.1562 661.133 16.4453 661.133 16.8047C661.133 17.1562 661.008 17.4453 660.758 17.6719C660.516 17.8906 660.105 18 659.527 18H651.359C650.781 18 650.367 17.8906 650.117 17.6719C649.875 17.4453 649.754 17.1523 649.754 16.793C649.754 16.4414 649.875 16.1562 650.117 15.9375C650.367 15.7109 650.781 15.5977 651.359 15.5977H654.242V5.20312H652.309C651.738 5.20312 651.328 5.09375 651.078 4.875C650.828 4.64844 650.703 4.35547 650.703 3.99609C650.703 3.64453 650.824 3.35938 651.066 3.14062C651.316 2.91406 651.73 2.80078 652.309 2.80078H656.645ZM671.059 2.80078V15.5977H673.941C674.52 15.5977 674.93 15.7109 675.172 15.9375C675.422 16.1562 675.547 16.4453 675.547 16.8047C675.547 17.1562 675.422 17.4453 675.172 17.6719C674.93 17.8906 674.52 18 673.941 18H665.773C665.195 18 664.781 17.8906 664.531 17.6719C664.289 17.4453 664.168 17.1523 664.168 16.793C664.168 16.4414 664.289 16.1562 664.531 15.9375C664.781 15.7109 665.195 15.5977 665.773 15.5977H668.656V5.20312H666.723C666.152 5.20312 665.742 5.09375 665.492 4.875C665.242 4.64844 665.117 4.35547 665.117 3.99609C665.117 3.64453 665.238 3.35938 665.48 3.14062C665.73 2.91406 666.145 2.80078 666.723 2.80078H671.059ZM690.301 13.8984H680.445C680.695 14.5234 681.137 15.0273 681.77 15.4102C682.41 15.793 683.273 15.9844 684.359 15.9844C685.25 15.9844 686.434 15.793 687.91 15.4102C688.52 15.2539 688.941 15.1758 689.176 15.1758C689.496 15.1758 689.766 15.2891 689.984 15.5156C690.203 15.7422 690.312 16.0273 690.312 16.3711C690.312 16.6836 690.195 16.9492 689.961 17.168C689.648 17.457 688.887 17.7344 687.676 18C686.465 18.2578 685.301 18.3867 684.184 18.3867C682.262 18.3867 680.723 17.8438 679.566 16.7578C678.418 15.6719 677.844 14.3359 677.844 12.75C677.844 11.0625 678.465 9.69141 679.707 8.63672C680.957 7.57422 682.395 7.04297 684.02 7.04297C684.996 7.04297 685.891 7.21484 686.703 7.55859C687.523 7.90234 688.133 8.27344 688.531 8.67188C689.094 9.25 689.559 9.96484 689.926 10.8164C690.176 11.4102 690.301 12.0977 690.301 12.8789V13.8984ZM687.641 11.4961C687.273 10.8086 686.793 10.2969 686.199 9.96094C685.605 9.61719 684.898 9.44531 684.078 9.44531C683.266 9.44531 682.562 9.61719 681.969 9.96094C681.375 10.2969 680.891 10.8086 680.516 11.4961H687.641ZM696.254 7.35938V8.16797C696.691 7.79297 697.172 7.51172 697.695 7.32422C698.227 7.13672 698.801 7.04297 699.418 7.04297C700.84 7.04297 701.965 7.48438 702.793 8.36719C703.449 9.07031 703.777 9.99219 703.777 11.1328V15.5977C704.285 15.5977 704.66 15.7109 704.902 15.9375C705.145 16.1562 705.266 16.4453 705.266 16.8047C705.266 17.1562 705.141 17.4453 704.891 17.6719C704.648 17.8906 704.238 18 703.66 18H701.492C700.914 18 700.5 17.8906 700.25 17.6719C700.008 17.4453 699.887 17.1523 699.887 16.793C699.887 16.4414 700.008 16.1562 700.25 15.9375C700.492 15.7109 700.867 15.5977 701.375 15.5977V11.0625C701.375 10.5391 701.234 10.1562 700.953 9.91406C700.586 9.60156 700.035 9.44531 699.301 9.44531C698.746 9.44531 698.258 9.55469 697.836 9.77344C697.422 9.98438 696.895 10.4375 696.254 11.1328V15.5977C696.871 15.5977 697.27 15.6562 697.449 15.7734C697.832 16.0078 698.023 16.3516 698.023 16.8047C698.023 17.1562 697.898 17.4453 697.648 17.6719C697.406 17.8906 696.996 18 696.418 18H693.688C693.109 18 692.695 17.8906 692.445 17.6719C692.203 17.4453 692.082 17.1523 692.082 16.793C692.082 16.3555 692.27 16.0156 692.645 15.7734C692.832 15.6562 693.234 15.5977 693.852 15.5977V9.76172C693.344 9.76172 692.969 9.64844 692.727 9.42188C692.484 9.19531 692.363 8.90625 692.363 8.55469C692.363 8.20312 692.484 7.91797 692.727 7.69922C692.977 7.47266 693.391 7.35938 693.969 7.35938H696.254ZM715.742 8.07422V7.35938H718.555C719.133 7.35938 719.543 7.47266 719.785 7.69922C720.035 7.91797 720.16 8.20703 720.16 8.56641C720.16 8.91797 720.035 9.20703 719.785 9.43359C719.543 9.65234 719.133 9.76172 718.555 9.76172H718.145V18.5039C718.145 19.3477 717.965 20.082 717.605 20.707C717.254 21.3398 716.711 21.8828 715.977 22.3359C715.242 22.7891 714.414 23.0156 713.492 23.0156H710.773C710.195 23.0156 709.781 22.9023 709.531 22.6758C709.289 22.457 709.168 22.1719 709.168 21.8203C709.168 21.4609 709.289 21.168 709.531 20.9414C709.781 20.7227 710.195 20.6133 710.773 20.6133H713.422C714.156 20.6133 714.727 20.4141 715.133 20.0156C715.539 19.6172 715.742 19.1133 715.742 18.5039V17.332C715.211 17.6758 714.668 17.9336 714.113 18.1055C713.566 18.2773 713.004 18.3633 712.426 18.3633C710.793 18.3633 709.426 17.8203 708.324 16.7344C707.223 15.6406 706.672 14.293 706.672 12.6914C706.672 11.082 707.223 9.73438 708.324 8.64844C709.426 7.55469 710.793 7.00781 712.426 7.00781C713.035 7.00781 713.613 7.09766 714.16 7.27734C714.715 7.44922 715.242 7.71484 715.742 8.07422ZM715.73 12.6797C715.73 11.7969 715.402 11.0312 714.746 10.3828C714.098 9.73438 713.316 9.41016 712.402 9.41016C711.488 9.41016 710.703 9.73438 710.047 10.3828C709.398 11.0312 709.074 11.7969 709.074 12.6797C709.074 13.5703 709.398 14.3398 710.047 14.9883C710.703 15.6289 711.488 15.9492 712.402 15.9492C713.316 15.9492 714.098 15.6289 714.746 14.9883C715.402 14.3398 715.73 13.5703 715.73 12.6797ZM733.543 13.8984H723.688C723.938 14.5234 724.379 15.0273 725.012 15.4102C725.652 15.793 726.516 15.9844 727.602 15.9844C728.492 15.9844 729.676 15.793 731.152 15.4102C731.762 15.2539 732.184 15.1758 732.418 15.1758C732.738 15.1758 733.008 15.2891 733.227 15.5156C733.445 15.7422 733.555 16.0273 733.555 16.3711C733.555 16.6836 733.438 16.9492 733.203 17.168C732.891 17.457 732.129 17.7344 730.918 18C729.707 18.2578 728.543 18.3867 727.426 18.3867C725.504 18.3867 723.965 17.8438 722.809 16.7578C721.66 15.6719 721.086 14.3359 721.086 12.75C721.086 11.0625 721.707 9.69141 722.949 8.63672C724.199 7.57422 725.637 7.04297 727.262 7.04297C728.238 7.04297 729.133 7.21484 729.945 7.55859C730.766 7.90234 731.375 8.27344 731.773 8.67188C732.336 9.25 732.801 9.96484 733.168 10.8164C733.418 11.4102 733.543 12.0977 733.543 12.8789V13.8984ZM730.883 11.4961C730.516 10.8086 730.035 10.2969 729.441 9.96094C728.848 9.61719 728.141 9.44531 727.32 9.44531C726.508 9.44531 725.805 9.61719 725.211 9.96094C724.617 10.2969 724.133 10.8086 723.758 11.4961H730.883ZM759.887 7.18359H760.449C761.027 7.18359 761.438 7.29688 761.68 7.52344C761.93 7.74219 762.055 8.03125 762.055 8.39062C762.055 8.74219 761.934 9.03125 761.691 9.25781C761.449 9.47656 761.039 9.58594 760.461 9.58594H759.711L759.535 12.2109H759.957C760.535 12.2109 760.945 12.3242 761.188 12.5508C761.438 12.7695 761.562 13.0586 761.562 13.418C761.562 13.7695 761.441 14.0586 761.199 14.2852C760.957 14.5039 760.547 14.6133 759.969 14.6133H759.359L759.078 18.7383C759.07 18.8008 759.012 19.0781 758.902 19.5703C758.824 19.7578 758.684 19.918 758.48 20.0508C758.277 20.1836 758.062 20.25 757.836 20.25C757.516 20.25 757.238 20.1289 757.004 19.8867C756.777 19.6523 756.664 19.3555 756.664 18.9961C756.664 18.9336 756.672 18.7852 756.688 18.5508L756.969 14.6133H755.176L754.895 18.7266C754.863 19.1406 754.832 19.3867 754.801 19.4648C754.715 19.6992 754.566 19.8867 754.355 20.0273C754.152 20.1758 753.926 20.25 753.676 20.25C753.332 20.25 753.043 20.1328 752.809 19.8984C752.582 19.6641 752.469 19.3633 752.469 18.9961C752.469 18.9102 752.477 18.7656 752.492 18.5625L752.762 14.6133H752.176C751.598 14.6133 751.184 14.5039 750.934 14.2852C750.691 14.0586 750.57 13.7656 750.57 13.4062C750.57 13.0547 750.691 12.7695 750.934 12.5508C751.184 12.3242 751.598 12.2109 752.176 12.2109H752.938L753.113 9.58594H752.68C752.102 9.58594 751.688 9.47656 751.438 9.25781C751.195 9.03125 751.074 8.73828 751.074 8.37891C751.074 8.02734 751.195 7.74219 751.438 7.52344C751.688 7.29688 752.098 7.18359 752.668 7.18359H753.289L753.57 3.05859C753.602 2.65234 753.637 2.39844 753.676 2.29688C753.762 2.07031 753.906 1.88672 754.109 1.74609C754.32 1.60547 754.551 1.53516 754.801 1.53516C755.129 1.53516 755.41 1.65234 755.645 1.88672C755.879 2.12109 755.996 2.43359 755.996 2.82422C755.996 2.91797 755.988 3.05469 755.973 3.23438L755.703 7.18359H757.484L757.766 3.05859C757.797 2.49609 757.922 2.10156 758.141 1.875C758.367 1.64844 758.652 1.53516 758.996 1.53516C759.332 1.53516 759.617 1.65625 759.852 1.89844C760.086 2.13281 760.203 2.42188 760.203 2.76562C760.203 2.84375 760.199 2.91016 760.191 2.96484L760.156 3.23438L759.887 7.18359ZM757.309 9.58594H755.527L755.352 12.2109H757.133L757.309 9.58594ZM768.512 15.5977H773.773C774.062 15.3633 774.336 15.2461 774.594 15.2461C774.961 15.2461 775.25 15.3672 775.461 15.6094C775.68 15.8516 775.789 16.2656 775.789 16.8516V18H764.844V15.457C769.172 11.8867 771.785 9.58984 772.684 8.56641C773.137 8.04297 773.363 7.54688 773.363 7.07812C773.363 6.49219 773.105 5.97656 772.59 5.53125C772.082 5.07812 771.402 4.85156 770.551 4.85156C769.691 4.85156 768.977 5.10156 768.406 5.60156C768.109 5.86719 767.871 6.26172 767.691 6.78516C767.582 7.11328 767.43 7.34766 767.234 7.48828C767.047 7.62891 766.812 7.69922 766.531 7.69922C766.203 7.69922 765.918 7.58203 765.676 7.34766C765.441 7.11328 765.324 6.83984 765.324 6.52734C765.324 6.05859 765.539 5.47266 765.969 4.76953C766.406 4.06641 767.039 3.50391 767.867 3.08203C768.703 2.66016 769.609 2.44922 770.586 2.44922C772.102 2.44922 773.344 2.91016 774.312 3.83203C775.281 4.74609 775.766 5.85547 775.766 7.16016C775.766 7.82422 775.625 8.44141 775.344 9.01172C775.07 9.57422 774.406 10.3555 773.352 11.3555C772.523 12.1445 770.91 13.5586 768.512 15.5977Z" fill="white"/>
<path d="M973.828 184.598V175.199C973.32 175.191 972.945 175.078 972.703 174.859C972.461 174.633 972.34 174.344 972.34 173.992C972.34 173.633 972.461 173.344 972.703 173.125C972.953 172.898 973.367 172.785 973.945 172.785L978.973 172.797C979.754 172.797 980.516 172.941 981.258 173.23C982.008 173.52 982.609 173.887 983.062 174.332C983.406 174.668 983.762 175.129 984.129 175.715C984.504 176.301 984.785 176.883 984.973 177.461C985.16 178.039 985.254 178.746 985.254 179.582V180.73C985.254 181.746 985.082 182.648 984.738 183.438C984.395 184.219 983.941 184.859 983.379 185.359C982.824 185.852 982.301 186.215 981.809 186.449C981.027 186.816 980.016 187 978.773 187H973.945C973.367 187 972.953 186.891 972.703 186.672C972.461 186.445 972.34 186.152 972.34 185.793C972.34 185.441 972.461 185.152 972.703 184.926C972.953 184.699 973.328 184.59 973.828 184.598ZM976.23 184.598H978.785C979.738 184.598 980.457 184.461 980.941 184.188C981.574 183.828 982.051 183.371 982.371 182.816C982.691 182.262 982.852 181.543 982.852 180.66V179.523C982.852 178.766 982.707 178.102 982.418 177.531C981.965 176.641 981.453 176.031 980.883 175.703C980.32 175.367 979.613 175.199 978.762 175.199H976.23V184.598ZM994.477 171.801V174.344H991.617V171.801H994.477ZM994.805 176.359V184.598H997.688C998.266 184.598 998.676 184.711 998.918 184.938C999.168 185.156 999.293 185.445 999.293 185.805C999.293 186.156 999.168 186.445 998.918 186.672C998.676 186.891 998.266 187 997.688 187H989.52C988.941 187 988.527 186.891 988.277 186.672C988.035 186.445 987.914 186.152 987.914 185.793C987.914 185.441 988.035 185.156 988.277 184.938C988.527 184.711 988.941 184.598 989.52 184.598H992.402V178.762H990.469C989.898 178.762 989.488 178.652 989.238 178.434C988.988 178.207 988.863 177.914 988.863 177.555C988.863 177.203 988.984 176.918 989.227 176.699C989.477 176.473 989.891 176.359 990.469 176.359H994.805ZM1005.6 176.359V177.168C1006.04 176.793 1006.52 176.512 1007.04 176.324C1007.57 176.137 1008.14 176.043 1008.76 176.043C1010.18 176.043 1011.31 176.484 1012.14 177.367C1012.79 178.07 1013.12 178.992 1013.12 180.133V184.598C1013.63 184.598 1014 184.711 1014.25 184.938C1014.49 185.156 1014.61 185.445 1014.61 185.805C1014.61 186.156 1014.48 186.445 1014.23 186.672C1013.99 186.891 1013.58 187 1013 187H1010.84C1010.26 187 1009.84 186.891 1009.59 186.672C1009.35 186.445 1009.23 186.152 1009.23 185.793C1009.23 185.441 1009.35 185.156 1009.59 184.938C1009.84 184.711 1010.21 184.598 1010.72 184.598V180.062C1010.72 179.539 1010.58 179.156 1010.3 178.914C1009.93 178.602 1009.38 178.445 1008.64 178.445C1008.09 178.445 1007.6 178.555 1007.18 178.773C1006.77 178.984 1006.24 179.438 1005.6 180.133V184.598C1006.21 184.598 1006.61 184.656 1006.79 184.773C1007.18 185.008 1007.37 185.352 1007.37 185.805C1007.37 186.156 1007.24 186.445 1006.99 186.672C1006.75 186.891 1006.34 187 1005.76 187H1003.03C1002.45 187 1002.04 186.891 1001.79 186.672C1001.55 186.445 1001.43 186.152 1001.43 185.793C1001.43 185.355 1001.61 185.016 1001.99 184.773C1002.18 184.656 1002.58 184.598 1003.2 184.598V178.762C1002.69 178.762 1002.31 178.648 1002.07 178.422C1001.83 178.195 1001.71 177.906 1001.71 177.555C1001.71 177.203 1001.83 176.918 1002.07 176.699C1002.32 176.473 1002.73 176.359 1003.31 176.359H1005.6ZM1020.01 176.359V177.168C1020.45 176.793 1020.93 176.512 1021.45 176.324C1021.98 176.137 1022.56 176.043 1023.18 176.043C1024.6 176.043 1025.72 176.484 1026.55 177.367C1027.21 178.07 1027.54 178.992 1027.54 180.133V184.598C1028.04 184.598 1028.42 184.711 1028.66 184.938C1028.9 185.156 1029.02 185.445 1029.02 185.805C1029.02 186.156 1028.9 186.445 1028.65 186.672C1028.41 186.891 1028 187 1027.42 187H1025.25C1024.67 187 1024.26 186.891 1024.01 186.672C1023.77 186.445 1023.64 186.152 1023.64 185.793C1023.64 185.441 1023.77 185.156 1024.01 184.938C1024.25 184.711 1024.62 184.598 1025.13 184.598V180.062C1025.13 179.539 1024.99 179.156 1024.71 178.914C1024.34 178.602 1023.79 178.445 1023.06 178.445C1022.5 178.445 1022.02 178.555 1021.59 178.773C1021.18 178.984 1020.65 179.438 1020.01 180.133V184.598C1020.63 184.598 1021.03 184.656 1021.21 184.773C1021.59 185.008 1021.78 185.352 1021.78 185.805C1021.78 186.156 1021.66 186.445 1021.41 186.672C1021.16 186.891 1020.75 187 1020.18 187H1017.45C1016.87 187 1016.45 186.891 1016.2 186.672C1015.96 186.445 1015.84 186.152 1015.84 185.793C1015.84 185.355 1016.03 185.016 1016.4 184.773C1016.59 184.656 1016.99 184.598 1017.61 184.598V178.762C1017.1 178.762 1016.73 178.648 1016.48 178.422C1016.24 178.195 1016.12 177.906 1016.12 177.555C1016.12 177.203 1016.24 176.918 1016.48 176.699C1016.73 176.473 1017.15 176.359 1017.73 176.359H1020.01ZM1042.89 182.898H1033.03C1033.28 183.523 1033.72 184.027 1034.36 184.41C1035 184.793 1035.86 184.984 1036.95 184.984C1037.84 184.984 1039.02 184.793 1040.5 184.41C1041.11 184.254 1041.53 184.176 1041.76 184.176C1042.08 184.176 1042.35 184.289 1042.57 184.516C1042.79 184.742 1042.9 185.027 1042.9 185.371C1042.9 185.684 1042.78 185.949 1042.55 186.168C1042.23 186.457 1041.47 186.734 1040.26 187C1039.05 187.258 1037.89 187.387 1036.77 187.387C1034.85 187.387 1033.31 186.844 1032.15 185.758C1031 184.672 1030.43 183.336 1030.43 181.75C1030.43 180.062 1031.05 178.691 1032.29 177.637C1033.54 176.574 1034.98 176.043 1036.61 176.043C1037.58 176.043 1038.48 176.215 1039.29 176.559C1040.11 176.902 1040.72 177.273 1041.12 177.672C1041.68 178.25 1042.14 178.965 1042.51 179.816C1042.76 180.41 1042.89 181.098 1042.89 181.879V182.898ZM1040.23 180.496C1039.86 179.809 1039.38 179.297 1038.79 178.961C1038.19 178.617 1037.48 178.445 1036.66 178.445C1035.85 178.445 1035.15 178.617 1034.55 178.961C1033.96 179.297 1033.48 179.809 1033.1 180.496H1040.23ZM1050.77 176.359V177.859C1051.78 177.133 1052.57 176.648 1053.15 176.406C1053.74 176.164 1054.29 176.043 1054.79 176.043C1055.57 176.043 1056.33 176.332 1057.07 176.91C1057.57 177.301 1057.82 177.699 1057.82 178.105C1057.82 178.449 1057.7 178.742 1057.45 178.984C1057.22 179.219 1056.93 179.336 1056.6 179.336C1056.3 179.336 1055.99 179.188 1055.66 178.891C1055.33 178.594 1055.04 178.445 1054.78 178.445C1054.45 178.445 1053.94 178.656 1053.27 179.078C1052.61 179.5 1051.77 180.133 1050.77 180.977V184.598H1054.2C1054.77 184.598 1055.18 184.711 1055.43 184.938C1055.68 185.156 1055.8 185.445 1055.8 185.805C1055.8 186.156 1055.68 186.445 1055.43 186.672C1055.18 186.891 1054.77 187 1054.2 187H1046.94C1046.36 187 1045.95 186.891 1045.7 186.672C1045.46 186.445 1045.34 186.152 1045.34 185.793C1045.34 185.441 1045.46 185.156 1045.7 184.938C1045.95 184.711 1046.36 184.598 1046.94 184.598H1048.37V178.762H1047.5C1046.93 178.762 1046.51 178.652 1046.26 178.434C1046.02 178.207 1045.9 177.914 1045.9 177.555C1045.9 177.203 1046.02 176.918 1046.26 176.699C1046.51 176.473 1046.93 176.359 1047.5 176.359H1050.77Z" fill="white"/>
<path d="M3.576 151.264V149.224H1.464V145.936H4.512V148H9.936V145.096H3.576V143.056H1.464V137.752H3.576V135.688H10.872V137.752H13.008V149.224H10.872V151.264H3.576ZM4.512 141.856H9.936V138.976H4.512V141.856ZM15.9249 149.152V145.864H18.9729V149.152H15.9249ZM15.9249 145.12V141.856H18.9729V145.12H15.9249ZM24.0135 151.264V149.224H21.9015V137.752H24.0135V135.688H31.3095V137.752H33.4455V149.224H31.3095V151.264H24.0135ZM24.9495 148H30.3735V138.976H24.9495V148ZM38.4744 151.264V149.224H36.3624V137.752H38.4744V135.688H45.7704V137.752H47.9064V149.224H45.7704V151.264H38.4744ZM39.4104 148H44.8344V138.976H39.4104V148ZM50.8234 151.264V139.792H52.9354V137.752H55.0474V135.688H58.1194V137.752H60.2314V139.792H62.3674V151.264H59.2954V147.16H53.8714V151.264H50.8234ZM53.8714 143.872H59.2954V141.016H57.1834V138.976H55.9834V141.016H53.8714V143.872ZM65.2843 151.264V137.752H67.3963V135.688H70.4443V137.752H72.5803V141.856H73.7563V137.752H75.8923V135.688H78.9643V137.752H81.0523V151.264H78.0283V138.976H76.8283V143.056H74.6923V149.224H71.6443V143.056H69.5083V138.976H68.3323V151.264H65.2843Z" fill="#00FF00"/>
<path d="M313.688 79.264V66.976H312.512V69.016H309.464V65.752H311.576V63.688H314.624V65.752H316.76V79.264H313.688ZM321.795 79.264V77.224H319.683V71.872H321.795V69.856H328.155V66.976H322.731V69.016H319.683V65.752H321.795V63.688H329.091V65.752H331.227V71.056H329.091V73.096H322.731V76H328.155V73.936H331.227V77.224H329.091V79.264H321.795ZM334.144 77.152V73.864H337.192V77.152H334.144ZM334.144 73.12V69.856H337.192V73.12H334.144ZM342.232 79.264V77.224H340.12V65.752H342.232V63.688H349.528V65.752H351.664V77.224H349.528V79.264H342.232ZM343.168 76H348.592V66.976H343.168V76ZM356.693 79.264V77.224H354.581V65.752H356.693V63.688H363.989V65.752H366.125V77.224H363.989V79.264H356.693ZM357.629 76H363.053V66.976H357.629V76ZM369.042 79.264V65.752H371.154V63.688H378.45V65.752H380.586V73.096H378.45V75.16H372.09V79.264H369.042ZM372.09 71.872H377.514V66.976H372.09V71.872ZM383.503 79.264V65.752H385.615V63.688H388.663V65.752H390.799V69.856H391.975V65.752H394.111V63.688H397.183V65.752H399.271V79.264H396.247V66.976H395.047V71.056H392.911V77.224H389.863V71.056H387.727V66.976H386.551V79.264H383.503Z" fill="#00FF00"/>
<path d="M528.576 151.264V149.224H526.464V143.872H528.576V141.856H534.936V138.976H529.512V141.016H526.464V137.752H528.576V135.688H535.872V137.752H538.008V143.056H535.872V145.096H529.512V148H534.936V145.936H538.008V149.224H535.872V151.264H528.576ZM540.925 149.152V145.864H543.973V149.152H540.925ZM540.925 145.12V141.856H543.973V145.12H540.925ZM549.014 151.264V149.224H546.902V145.936H549.95V148H555.374V145.096H549.014V141.856H555.374V138.976H549.95V141.016H546.902V137.752H549.014V135.688H556.31V137.752H558.446V143.056H556.31V143.872H558.446V149.224H556.31V151.264H549.014ZM563.474 151.264V149.224H561.362V137.752H563.474V135.688H570.77V137.752H572.906V149.224H570.77V151.264H563.474ZM564.41 148H569.834V138.976H564.41V148ZM575.823 151.264V137.752H577.935V135.688H585.231V137.752H587.367V145.096H585.231V147.16H578.871V151.264H575.823ZM578.871 143.872H584.295V138.976H578.871V143.872ZM590.284 151.264V137.752H592.396V135.688H595.444V137.752H597.58V141.856H598.756V137.752H600.892V135.688H603.964V137.752H606.052V151.264H603.028V138.976H601.828V143.056H599.692V149.224H596.644V143.056H594.508V138.976H593.332V151.264H590.284Z" fill="#00FF00"/>
<path d="M884.576 79.264V77.224H882.464V65.752H884.576V63.688H891.872V65.752H894.008V69.016H890.936V66.976H885.512V69.856H891.872V71.872H894.008V77.224H891.872V79.264H884.576ZM885.512 76H890.936V73.096H885.512V76ZM896.925 77.152V73.864H899.973V77.152H896.925ZM896.925 73.12V69.856H899.973V73.12H896.925ZM905.014 79.264V77.224H902.902V65.752H905.014V63.688H912.31V65.752H914.446V77.224H912.31V79.264H905.014ZM905.95 76H911.374V66.976H905.95V76ZM919.474 79.264V77.224H917.362V65.752H919.474V63.688H926.77V65.752H928.906V77.224H926.77V79.264H919.474ZM920.41 76H925.834V66.976H920.41V76ZM931.823 79.264V65.752H933.935V63.688H941.231V65.752H943.367V73.096H941.231V75.16H934.871V79.264H931.823ZM934.871 71.872H940.295V66.976H934.871V71.872ZM946.284 79.264V65.752H948.396V63.688H951.444V65.752H953.58V69.856H954.756V65.752H956.892V63.688H959.964V65.752H962.052V79.264H959.028V66.976H957.828V71.056H955.692V77.224H952.644V71.056H950.508V66.976H949.332V79.264H946.284Z" fill="#00FF00"/>
<path d="M401.211 221.016L403.707 209.273H402.383C402.164 209.273 402.016 209.242 401.938 209.18C401.859 209.109 401.82 209.008 401.82 208.875C401.82 208.719 401.883 208.582 402.008 208.465C402.141 208.348 402.336 208.289 402.594 208.289H408.781C409.859 208.289 410.703 208.57 411.312 209.133C411.93 209.688 412.238 210.363 412.238 211.16C412.238 211.91 412.02 212.586 411.582 213.188C411.145 213.781 410.488 214.305 409.613 214.758C410.426 215.07 411.012 215.469 411.371 215.953C411.73 216.43 411.91 216.965 411.91 217.559C411.91 218.137 411.75 218.727 411.43 219.328C411.117 219.922 410.738 220.406 410.293 220.781C409.848 221.148 409.281 221.465 408.594 221.73C408.125 221.91 407.605 222 407.035 222H399.676C399.457 222 399.309 221.965 399.23 221.895C399.152 221.824 399.113 221.727 399.113 221.602C399.113 221.445 399.176 221.309 399.301 221.191C399.434 221.074 399.629 221.016 399.887 221.016H401.211ZM403.602 214.383H407.082C407.848 214.383 408.559 214.246 409.215 213.973C409.871 213.691 410.371 213.297 410.715 212.789C411.059 212.281 411.23 211.812 411.23 211.383C411.23 210.812 410.996 210.32 410.527 209.906C410.066 209.484 409.418 209.273 408.582 209.273H404.691L403.602 214.383ZM402.195 221.016H407.176C407.832 221.016 408.449 220.855 409.027 220.535C409.613 220.207 410.07 219.785 410.398 219.27C410.727 218.754 410.891 218.266 410.891 217.805C410.891 217.031 410.555 216.434 409.883 216.012C409.219 215.59 408.234 215.379 406.93 215.379H403.391L402.195 221.016ZM422.984 222L423.289 220.559C421.688 221.777 420.094 222.387 418.508 222.387C417.727 222.387 417.105 222.164 416.645 221.719C416.191 221.266 415.965 220.691 415.965 219.996C415.965 219.746 415.996 219.48 416.059 219.199L417.406 212.848H416.082C415.863 212.848 415.715 212.812 415.637 212.742C415.559 212.672 415.52 212.574 415.52 212.449C415.52 212.293 415.582 212.156 415.707 212.039C415.84 211.914 416.035 211.852 416.293 211.852H418.602L417.043 219.199C417.012 219.363 416.996 219.531 416.996 219.703C416.996 220.219 417.148 220.633 417.453 220.945C417.758 221.25 418.172 221.402 418.695 221.402C420.312 221.402 421.941 220.668 423.582 219.199L424.93 212.848H423.113C422.895 212.848 422.746 212.812 422.668 212.742C422.59 212.672 422.551 212.574 422.551 212.449C422.551 212.293 422.613 212.156 422.738 212.039C422.871 211.914 423.066 211.852 423.324 211.852H426.125L424.18 221.016H425.012C425.23 221.016 425.379 221.051 425.457 221.121C425.535 221.184 425.574 221.277 425.574 221.402C425.574 221.566 425.508 221.707 425.375 221.824C425.25 221.941 425.059 222 424.801 222H422.984ZM437.738 206.801L437.199 209.344H435.758L436.297 206.801H437.738ZM436.707 211.852L434.762 221.016H438.629C438.848 221.016 438.996 221.051 439.074 221.121C439.152 221.184 439.191 221.277 439.191 221.402C439.191 221.566 439.125 221.707 438.992 221.824C438.867 221.941 438.676 222 438.418 222H429.699C429.48 222 429.332 221.965 429.254 221.895C429.176 221.824 429.137 221.727 429.137 221.602C429.137 221.445 429.199 221.309 429.324 221.191C429.457 221.074 429.652 221.016 429.91 221.016H433.777L435.512 212.848H432.641C432.422 212.848 432.27 212.812 432.184 212.742C432.105 212.672 432.066 212.574 432.066 212.449C432.066 212.293 432.133 212.156 432.266 212.039C432.398 211.914 432.594 211.852 432.852 211.852H436.707ZM452.082 207.293L449.164 221.016H453.031C453.25 221.016 453.398 221.051 453.477 221.121C453.555 221.184 453.594 221.277 453.594 221.402C453.594 221.566 453.527 221.707 453.395 221.824C453.27 221.941 453.078 222 452.82 222H444.102C443.883 222 443.734 221.965 443.656 221.895C443.578 221.824 443.539 221.727 443.539 221.602C443.539 221.445 443.602 221.309 443.727 221.191C443.859 221.074 444.055 221.016 444.312 221.016H448.18L450.887 208.289H448.039C447.82 208.289 447.672 208.254 447.594 208.184C447.516 208.113 447.477 208.016 447.477 207.891C447.477 207.734 447.539 207.598 447.664 207.48C447.797 207.355 447.992 207.293 448.25 207.293H452.082ZM470.797 207.293L467.879 221.016H469.203C469.422 221.016 469.57 221.051 469.648 221.121C469.727 221.184 469.766 221.277 469.766 221.402C469.766 221.566 469.699 221.707 469.566 221.824C469.441 221.941 469.25 222 468.992 222H466.672L467.094 220.043C465.625 221.605 463.996 222.387 462.207 222.387C461.02 222.387 460.035 221.988 459.254 221.191C458.473 220.395 458.082 219.355 458.082 218.074C458.082 217.035 458.395 215.98 459.02 214.91C459.652 213.832 460.484 212.996 461.516 212.402C462.547 211.801 463.566 211.5 464.574 211.5C466.293 211.5 467.574 212.281 468.418 213.844L469.59 208.289H468.277C468.059 208.289 467.906 208.254 467.82 208.184C467.742 208.113 467.703 208.016 467.703 207.891C467.703 207.734 467.77 207.598 467.902 207.48C468.035 207.355 468.23 207.293 468.488 207.293H470.797ZM462.488 221.402C463.191 221.402 463.852 221.258 464.469 220.969C465.094 220.672 465.656 220.281 466.156 219.797C466.664 219.305 467.074 218.715 467.387 218.027C467.699 217.34 467.855 216.637 467.855 215.918C467.855 214.934 467.531 214.117 466.883 213.469C466.242 212.82 465.434 212.496 464.457 212.496C463.074 212.496 461.832 213.047 460.73 214.148C459.637 215.25 459.09 216.5 459.09 217.898C459.09 218.93 459.41 219.773 460.051 220.43C460.699 221.078 461.512 221.402 462.488 221.402ZM480.98 206.801L480.441 209.344H479L479.539 206.801H480.98ZM479.949 211.852L478.004 221.016H481.871C482.09 221.016 482.238 221.051 482.316 221.121C482.395 221.184 482.434 221.277 482.434 221.402C482.434 221.566 482.367 221.707 482.234 221.824C482.109 221.941 481.918 222 481.66 222H472.941C472.723 222 472.574 221.965 472.496 221.895C472.418 221.824 472.379 221.727 472.379 221.602C472.379 221.445 472.441 221.309 472.566 221.191C472.699 221.074 472.895 221.016 473.152 221.016H477.02L478.754 212.848H475.883C475.664 212.848 475.512 212.812 475.426 212.742C475.348 212.672 475.309 212.574 475.309 212.449C475.309 212.293 475.375 212.156 475.508 212.039C475.641 211.914 475.836 211.852 476.094 211.852H479.949ZM490.66 211.852L490.344 213.34C491.203 212.629 491.934 212.145 492.535 211.887C493.145 211.629 493.801 211.5 494.504 211.5C495.473 211.5 496.23 211.758 496.777 212.273C497.332 212.789 497.609 213.457 497.609 214.277C497.609 214.434 497.59 214.613 497.551 214.816L496.227 221.016H497.059C497.277 221.016 497.426 221.051 497.504 221.121C497.582 221.184 497.621 221.277 497.621 221.402C497.621 221.566 497.555 221.707 497.422 221.824C497.297 221.941 497.105 222 496.848 222H494.199C493.98 222 493.832 221.965 493.754 221.895C493.676 221.824 493.637 221.727 493.637 221.602C493.637 221.445 493.699 221.309 493.824 221.191C493.957 221.074 494.152 221.016 494.41 221.016H495.242L496.52 214.98C496.559 214.801 496.578 214.629 496.578 214.465C496.578 213.895 496.379 213.426 495.98 213.059C495.582 212.684 495.012 212.496 494.27 212.496C493.59 212.496 492.98 212.633 492.441 212.906C491.91 213.18 491.105 213.824 490.027 214.84L488.715 221.016H489.828C490.047 221.016 490.195 221.051 490.273 221.121C490.352 221.184 490.391 221.277 490.391 221.402C490.391 221.566 490.324 221.707 490.191 221.824C490.066 221.941 489.875 222 489.617 222H486.406C486.188 222 486.039 221.965 485.961 221.895C485.883 221.824 485.844 221.727 485.844 221.602C485.844 221.445 485.906 221.309 486.031 221.191C486.164 221.074 486.359 221.016 486.617 221.016H487.73L489.465 212.848H488.633C488.414 212.848 488.266 212.812 488.188 212.742C488.109 212.672 488.07 212.574 488.07 212.449C488.07 212.293 488.133 212.156 488.258 212.039C488.391 211.914 488.586 211.852 488.844 211.852H490.66ZM511.18 213.656L511.566 211.852H513.875C514.094 211.852 514.238 211.883 514.309 211.945C514.402 212.023 514.449 212.125 514.449 212.25C514.449 212.406 514.383 212.547 514.25 212.672C514.117 212.789 513.922 212.848 513.664 212.848H512.352L510.254 222.68C510.121 223.312 509.867 223.887 509.492 224.402C509.227 224.762 508.824 225.129 508.285 225.504C507.746 225.879 507.289 226.141 506.914 226.289C506.539 226.445 506.047 226.523 505.438 226.523H502.648C502.43 226.523 502.281 226.488 502.203 226.418C502.125 226.348 502.086 226.254 502.086 226.137C502.086 225.973 502.148 225.828 502.273 225.703C502.406 225.586 502.602 225.527 502.859 225.527L505.684 225.539C506.238 225.539 506.777 225.398 507.301 225.117C507.824 224.836 508.309 224.398 508.754 223.805C509.004 223.477 509.184 223.055 509.293 222.539L509.926 219.586C508.559 221.031 507.031 221.754 505.344 221.754C504.211 221.754 503.27 221.375 502.52 220.617C501.77 219.852 501.395 218.871 501.395 217.676C501.395 216.84 501.59 216.039 501.98 215.273C502.371 214.5 502.844 213.852 503.398 213.328C503.953 212.797 504.582 212.359 505.285 212.016C505.996 211.672 506.758 211.5 507.57 211.5C509.234 211.5 510.438 212.219 511.18 213.656ZM505.613 220.758C506.277 220.758 506.902 220.621 507.488 220.348C508.074 220.074 508.602 219.715 509.07 219.27C509.539 218.816 509.918 218.273 510.207 217.641C510.504 217 510.652 216.348 510.652 215.684C510.652 214.77 510.348 214.012 509.738 213.41C509.129 212.801 508.363 212.496 507.441 212.496C506.137 212.496 504.969 213.008 503.938 214.031C502.914 215.055 502.402 216.211 502.402 217.5C502.402 218.453 502.707 219.234 503.316 219.844C503.926 220.453 504.691 220.758 505.613 220.758ZM538.578 207.094L535.625 221.016H539C539.219 221.016 539.367 221.051 539.445 221.121C539.523 221.184 539.562 221.277 539.562 221.402C539.562 221.566 539.496 221.707 539.363 221.824C539.238 221.941 539.047 222 538.789 222H531.055C530.836 222 530.688 221.965 530.609 221.895C530.531 221.824 530.492 221.727 530.492 221.602C530.492 221.445 530.555 221.309 530.68 221.191C530.812 221.074 531.008 221.016 531.266 221.016H534.641L537.301 208.453L533.879 209.461C533.715 209.508 533.594 209.531 533.516 209.531C533.422 209.531 533.34 209.496 533.27 209.426C533.199 209.348 533.164 209.254 533.164 209.145C533.164 209.012 533.207 208.891 533.293 208.781C533.379 208.672 533.543 208.582 533.785 208.512L538.578 207.094ZM547.73 215.777C548.559 214.848 549.34 214.176 550.074 213.762C550.816 213.348 551.582 213.141 552.371 213.141C553.238 213.141 553.973 213.465 554.574 214.113C555.184 214.754 555.488 215.602 555.488 216.656C555.488 217.398 555.312 218.145 554.961 218.895C554.617 219.645 554.199 220.266 553.707 220.758C553.215 221.25 552.676 221.641 552.09 221.93C551.504 222.211 550.867 222.352 550.18 222.352C549.133 222.352 548.277 221.973 547.613 221.215C546.949 220.457 546.617 219.258 546.617 217.617C546.617 215.438 547.07 213.523 547.977 211.875C548.891 210.219 550.215 208.918 551.949 207.973C553.215 207.285 554.465 206.941 555.699 206.941C556.285 206.941 556.777 207.059 557.176 207.293C557.348 207.402 557.434 207.535 557.434 207.691C557.434 207.855 557.375 207.996 557.258 208.113C557.148 208.23 557.02 208.289 556.871 208.289C556.762 208.289 556.645 208.25 556.52 208.172C556.238 208.016 555.859 207.938 555.383 207.938C554.508 207.938 553.59 208.18 552.629 208.664C551.668 209.148 550.805 209.801 550.039 210.621C549.281 211.441 548.711 212.324 548.328 213.27C548.07 213.902 547.871 214.738 547.73 215.777ZM547.613 217.406C547.613 218.836 547.863 219.855 548.363 220.465C548.871 221.066 549.562 221.367 550.438 221.367C551.453 221.367 552.379 220.91 553.215 219.996C554.051 219.082 554.469 218.023 554.469 216.82C554.469 216.016 554.238 215.367 553.777 214.875C553.316 214.375 552.762 214.125 552.113 214.125C551.348 214.125 550.555 214.438 549.734 215.062C549.156 215.5 548.449 216.281 547.613 217.406ZM567.383 214.371C567.984 214.699 568.434 215.102 568.73 215.578C569.035 216.055 569.188 216.609 569.188 217.242C569.188 218.008 568.945 218.801 568.461 219.621C567.977 220.441 567.277 221.102 566.363 221.602C565.457 222.102 564.547 222.352 563.633 222.352C562.586 222.352 561.719 222.02 561.031 221.355C560.344 220.691 560 219.879 560 218.918C560 218.02 560.289 217.16 560.867 216.34C561.445 215.512 562.277 214.855 563.363 214.371C562.809 214.004 562.402 213.617 562.145 213.211C561.895 212.797 561.77 212.297 561.77 211.711C561.77 211.133 561.918 210.555 562.215 209.977C562.512 209.391 562.891 208.883 563.352 208.453C563.82 208.016 564.363 207.656 564.98 207.375C565.605 207.086 566.277 206.941 566.996 206.941C567.996 206.941 568.816 207.258 569.457 207.891C570.105 208.516 570.43 209.293 570.43 210.223C570.43 211.012 570.188 211.766 569.703 212.484C569.219 213.195 568.445 213.824 567.383 214.371ZM565.473 213.879C566.535 213.879 567.453 213.523 568.227 212.812C569.008 212.102 569.398 211.305 569.398 210.422C569.398 209.711 569.152 209.121 568.66 208.652C568.168 208.176 567.535 207.938 566.762 207.938C565.699 207.938 564.766 208.316 563.961 209.074C563.164 209.832 562.766 210.668 562.766 211.582C562.766 212.199 563.016 212.738 563.516 213.199C564.016 213.652 564.668 213.879 565.473 213.879ZM563.879 221.367C565.098 221.367 566.117 220.941 566.938 220.09C567.758 219.238 568.168 218.363 568.168 217.465C568.168 216.73 567.906 216.113 567.383 215.613C566.859 215.105 566.16 214.852 565.285 214.852C564.129 214.852 563.125 215.254 562.273 216.059C561.43 216.855 561.008 217.73 561.008 218.684C561.008 219.449 561.27 220.09 561.793 220.605C562.324 221.113 563.02 221.367 563.879 221.367Z" fill="white"/>
<path d="M974.211 221.016L976.707 209.273H975.383C975.164 209.273 975.016 209.242 974.938 209.18C974.859 209.109 974.82 209.008 974.82 208.875C974.82 208.719 974.883 208.582 975.008 208.465C975.141 208.348 975.336 208.289 975.594 208.289H981.781C982.859 208.289 983.703 208.57 984.312 209.133C984.93 209.688 985.238 210.363 985.238 211.16C985.238 211.91 985.02 212.586 984.582 213.188C984.145 213.781 983.488 214.305 982.613 214.758C983.426 215.07 984.012 215.469 984.371 215.953C984.73 216.43 984.91 216.965 984.91 217.559C984.91 218.137 984.75 218.727 984.43 219.328C984.117 219.922 983.738 220.406 983.293 220.781C982.848 221.148 982.281 221.465 981.594 221.73C981.125 221.91 980.605 222 980.035 222H972.676C972.457 222 972.309 221.965 972.23 221.895C972.152 221.824 972.113 221.727 972.113 221.602C972.113 221.445 972.176 221.309 972.301 221.191C972.434 221.074 972.629 221.016 972.887 221.016H974.211ZM976.602 214.383H980.082C980.848 214.383 981.559 214.246 982.215 213.973C982.871 213.691 983.371 213.297 983.715 212.789C984.059 212.281 984.23 211.812 984.23 211.383C984.23 210.812 983.996 210.32 983.527 209.906C983.066 209.484 982.418 209.273 981.582 209.273H977.691L976.602 214.383ZM975.195 221.016H980.176C980.832 221.016 981.449 220.855 982.027 220.535C982.613 220.207 983.07 219.785 983.398 219.27C983.727 218.754 983.891 218.266 983.891 217.805C983.891 217.031 983.555 216.434 982.883 216.012C982.219 215.59 981.234 215.379 979.93 215.379H976.391L975.195 221.016ZM995.984 222L996.289 220.559C994.688 221.777 993.094 222.387 991.508 222.387C990.727 222.387 990.105 222.164 989.645 221.719C989.191 221.266 988.965 220.691 988.965 219.996C988.965 219.746 988.996 219.48 989.059 219.199L990.406 212.848H989.082C988.863 212.848 988.715 212.812 988.637 212.742C988.559 212.672 988.52 212.574 988.52 212.449C988.52 212.293 988.582 212.156 988.707 212.039C988.84 211.914 989.035 211.852 989.293 211.852H991.602L990.043 219.199C990.012 219.363 989.996 219.531 989.996 219.703C989.996 220.219 990.148 220.633 990.453 220.945C990.758 221.25 991.172 221.402 991.695 221.402C993.312 221.402 994.941 220.668 996.582 219.199L997.93 212.848H996.113C995.895 212.848 995.746 212.812 995.668 212.742C995.59 212.672 995.551 212.574 995.551 212.449C995.551 212.293 995.613 212.156 995.738 212.039C995.871 211.914 996.066 211.852 996.324 211.852H999.125L997.18 221.016H998.012C998.23 221.016 998.379 221.051 998.457 221.121C998.535 221.184 998.574 221.277 998.574 221.402C998.574 221.566 998.508 221.707 998.375 221.824C998.25 221.941 998.059 222 997.801 222H995.984ZM1010.74 206.801L1010.2 209.344H1008.76L1009.3 206.801H1010.74ZM1009.71 211.852L1007.76 221.016H1011.63C1011.85 221.016 1012 221.051 1012.07 221.121C1012.15 221.184 1012.19 221.277 1012.19 221.402C1012.19 221.566 1012.12 221.707 1011.99 221.824C1011.87 221.941 1011.68 222 1011.42 222H1002.7C1002.48 222 1002.33 221.965 1002.25 221.895C1002.18 221.824 1002.14 221.727 1002.14 221.602C1002.14 221.445 1002.2 221.309 1002.32 221.191C1002.46 221.074 1002.65 221.016 1002.91 221.016H1006.78L1008.51 212.848H1005.64C1005.42 212.848 1005.27 212.812 1005.18 212.742C1005.11 212.672 1005.07 212.574 1005.07 212.449C1005.07 212.293 1005.13 212.156 1005.27 212.039C1005.4 211.914 1005.59 211.852 1005.85 211.852H1009.71ZM1025.08 207.293L1022.16 221.016H1026.03C1026.25 221.016 1026.4 221.051 1026.48 221.121C1026.55 221.184 1026.59 221.277 1026.59 221.402C1026.59 221.566 1026.53 221.707 1026.39 221.824C1026.27 221.941 1026.08 222 1025.82 222H1017.1C1016.88 222 1016.73 221.965 1016.66 221.895C1016.58 221.824 1016.54 221.727 1016.54 221.602C1016.54 221.445 1016.6 221.309 1016.73 221.191C1016.86 221.074 1017.05 221.016 1017.31 221.016H1021.18L1023.89 208.289H1021.04C1020.82 208.289 1020.67 208.254 1020.59 208.184C1020.52 208.113 1020.48 208.016 1020.48 207.891C1020.48 207.734 1020.54 207.598 1020.66 207.48C1020.8 207.355 1020.99 207.293 1021.25 207.293H1025.08ZM1043.8 207.293L1040.88 221.016H1042.2C1042.42 221.016 1042.57 221.051 1042.65 221.121C1042.73 221.184 1042.77 221.277 1042.77 221.402C1042.77 221.566 1042.7 221.707 1042.57 221.824C1042.44 221.941 1042.25 222 1041.99 222H1039.67L1040.09 220.043C1038.62 221.605 1037 222.387 1035.21 222.387C1034.02 222.387 1033.04 221.988 1032.25 221.191C1031.47 220.395 1031.08 219.355 1031.08 218.074C1031.08 217.035 1031.39 215.98 1032.02 214.91C1032.65 213.832 1033.48 212.996 1034.52 212.402C1035.55 211.801 1036.57 211.5 1037.57 211.5C1039.29 211.5 1040.57 212.281 1041.42 213.844L1042.59 208.289H1041.28C1041.06 208.289 1040.91 208.254 1040.82 208.184C1040.74 208.113 1040.7 208.016 1040.7 207.891C1040.7 207.734 1040.77 207.598 1040.9 207.48C1041.04 207.355 1041.23 207.293 1041.49 207.293H1043.8ZM1035.49 221.402C1036.19 221.402 1036.85 221.258 1037.47 220.969C1038.09 220.672 1038.66 220.281 1039.16 219.797C1039.66 219.305 1040.07 218.715 1040.39 218.027C1040.7 217.34 1040.86 216.637 1040.86 215.918C1040.86 214.934 1040.53 214.117 1039.88 213.469C1039.24 212.82 1038.43 212.496 1037.46 212.496C1036.07 212.496 1034.83 213.047 1033.73 214.148C1032.64 215.25 1032.09 216.5 1032.09 217.898C1032.09 218.93 1032.41 219.773 1033.05 220.43C1033.7 221.078 1034.51 221.402 1035.49 221.402ZM1053.98 206.801L1053.44 209.344H1052L1052.54 206.801H1053.98ZM1052.95 211.852L1051 221.016H1054.87C1055.09 221.016 1055.24 221.051 1055.32 221.121C1055.39 221.184 1055.43 221.277 1055.43 221.402C1055.43 221.566 1055.37 221.707 1055.23 221.824C1055.11 221.941 1054.92 222 1054.66 222H1045.94C1045.72 222 1045.57 221.965 1045.5 221.895C1045.42 221.824 1045.38 221.727 1045.38 221.602C1045.38 221.445 1045.44 221.309 1045.57 221.191C1045.7 221.074 1045.89 221.016 1046.15 221.016H1050.02L1051.75 212.848H1048.88C1048.66 212.848 1048.51 212.812 1048.43 212.742C1048.35 212.672 1048.31 212.574 1048.31 212.449C1048.31 212.293 1048.38 212.156 1048.51 212.039C1048.64 211.914 1048.84 211.852 1049.09 211.852H1052.95ZM1063.66 211.852L1063.34 213.34C1064.2 212.629 1064.93 212.145 1065.54 211.887C1066.14 211.629 1066.8 211.5 1067.5 211.5C1068.47 211.5 1069.23 211.758 1069.78 212.273C1070.33 212.789 1070.61 213.457 1070.61 214.277C1070.61 214.434 1070.59 214.613 1070.55 214.816L1069.23 221.016H1070.06C1070.28 221.016 1070.43 221.051 1070.5 221.121C1070.58 221.184 1070.62 221.277 1070.62 221.402C1070.62 221.566 1070.55 221.707 1070.42 221.824C1070.3 221.941 1070.11 222 1069.85 222H1067.2C1066.98 222 1066.83 221.965 1066.75 221.895C1066.68 221.824 1066.64 221.727 1066.64 221.602C1066.64 221.445 1066.7 221.309 1066.82 221.191C1066.96 221.074 1067.15 221.016 1067.41 221.016H1068.24L1069.52 214.98C1069.56 214.801 1069.58 214.629 1069.58 214.465C1069.58 213.895 1069.38 213.426 1068.98 213.059C1068.58 212.684 1068.01 212.496 1067.27 212.496C1066.59 212.496 1065.98 212.633 1065.44 212.906C1064.91 213.18 1064.11 213.824 1063.03 214.84L1061.71 221.016H1062.83C1063.05 221.016 1063.2 221.051 1063.27 221.121C1063.35 221.184 1063.39 221.277 1063.39 221.402C1063.39 221.566 1063.32 221.707 1063.19 221.824C1063.07 221.941 1062.88 222 1062.62 222H1059.41C1059.19 222 1059.04 221.965 1058.96 221.895C1058.88 221.824 1058.84 221.727 1058.84 221.602C1058.84 221.445 1058.91 221.309 1059.03 221.191C1059.16 221.074 1059.36 221.016 1059.62 221.016H1060.73L1062.46 212.848H1061.63C1061.41 212.848 1061.27 212.812 1061.19 212.742C1061.11 212.672 1061.07 212.574 1061.07 212.449C1061.07 212.293 1061.13 212.156 1061.26 212.039C1061.39 211.914 1061.59 211.852 1061.84 211.852H1063.66ZM1084.18 213.656L1084.57 211.852H1086.88C1087.09 211.852 1087.24 211.883 1087.31 211.945C1087.4 212.023 1087.45 212.125 1087.45 212.25C1087.45 212.406 1087.38 212.547 1087.25 212.672C1087.12 212.789 1086.92 212.848 1086.66 212.848H1085.35L1083.25 222.68C1083.12 223.312 1082.87 223.887 1082.49 224.402C1082.23 224.762 1081.82 225.129 1081.29 225.504C1080.75 225.879 1080.29 226.141 1079.91 226.289C1079.54 226.445 1079.05 226.523 1078.44 226.523H1075.65C1075.43 226.523 1075.28 226.488 1075.2 226.418C1075.12 226.348 1075.09 226.254 1075.09 226.137C1075.09 225.973 1075.15 225.828 1075.27 225.703C1075.41 225.586 1075.6 225.527 1075.86 225.527L1078.68 225.539C1079.24 225.539 1079.78 225.398 1080.3 225.117C1080.82 224.836 1081.31 224.398 1081.75 223.805C1082 223.477 1082.18 223.055 1082.29 222.539L1082.93 219.586C1081.56 221.031 1080.03 221.754 1078.34 221.754C1077.21 221.754 1076.27 221.375 1075.52 220.617C1074.77 219.852 1074.39 218.871 1074.39 217.676C1074.39 216.84 1074.59 216.039 1074.98 215.273C1075.37 214.5 1075.84 213.852 1076.4 213.328C1076.95 212.797 1077.58 212.359 1078.29 212.016C1079 211.672 1079.76 211.5 1080.57 211.5C1082.23 211.5 1083.44 212.219 1084.18 213.656ZM1078.61 220.758C1079.28 220.758 1079.9 220.621 1080.49 220.348C1081.07 220.074 1081.6 219.715 1082.07 219.27C1082.54 218.816 1082.92 218.273 1083.21 217.641C1083.5 217 1083.65 216.348 1083.65 215.684C1083.65 214.77 1083.35 214.012 1082.74 213.41C1082.13 212.801 1081.36 212.496 1080.44 212.496C1079.14 212.496 1077.97 213.008 1076.94 214.031C1075.91 215.055 1075.4 216.211 1075.4 217.5C1075.4 218.453 1075.71 219.234 1076.32 219.844C1076.93 220.453 1077.69 220.758 1078.61 220.758ZM1111.58 207.094L1108.62 221.016H1112C1112.22 221.016 1112.37 221.051 1112.45 221.121C1112.52 221.184 1112.56 221.277 1112.56 221.402C1112.56 221.566 1112.5 221.707 1112.36 221.824C1112.24 221.941 1112.05 222 1111.79 222H1104.05C1103.84 222 1103.69 221.965 1103.61 221.895C1103.53 221.824 1103.49 221.727 1103.49 221.602C1103.49 221.445 1103.55 221.309 1103.68 221.191C1103.81 221.074 1104.01 221.016 1104.27 221.016H1107.64L1110.3 208.453L1106.88 209.461C1106.71 209.508 1106.59 209.531 1106.52 209.531C1106.42 209.531 1106.34 209.496 1106.27 209.426C1106.2 209.348 1106.16 209.254 1106.16 209.145C1106.16 209.012 1106.21 208.891 1106.29 208.781C1106.38 208.672 1106.54 208.582 1106.79 208.512L1111.58 207.094ZM1120.73 215.777C1121.56 214.848 1122.34 214.176 1123.07 213.762C1123.82 213.348 1124.58 213.141 1125.37 213.141C1126.24 213.141 1126.97 213.465 1127.57 214.113C1128.18 214.754 1128.49 215.602 1128.49 216.656C1128.49 217.398 1128.31 218.145 1127.96 218.895C1127.62 219.645 1127.2 220.266 1126.71 220.758C1126.21 221.25 1125.68 221.641 1125.09 221.93C1124.5 222.211 1123.87 222.352 1123.18 222.352C1122.13 222.352 1121.28 221.973 1120.61 221.215C1119.95 220.457 1119.62 219.258 1119.62 217.617C1119.62 215.438 1120.07 213.523 1120.98 211.875C1121.89 210.219 1123.21 208.918 1124.95 207.973C1126.21 207.285 1127.46 206.941 1128.7 206.941C1129.29 206.941 1129.78 207.059 1130.18 207.293C1130.35 207.402 1130.43 207.535 1130.43 207.691C1130.43 207.855 1130.38 207.996 1130.26 208.113C1130.15 208.23 1130.02 208.289 1129.87 208.289C1129.76 208.289 1129.64 208.25 1129.52 208.172C1129.24 208.016 1128.86 207.938 1128.38 207.938C1127.51 207.938 1126.59 208.18 1125.63 208.664C1124.67 209.148 1123.8 209.801 1123.04 210.621C1122.28 211.441 1121.71 212.324 1121.33 213.27C1121.07 213.902 1120.87 214.738 1120.73 215.777ZM1120.61 217.406C1120.61 218.836 1120.86 219.855 1121.36 220.465C1121.87 221.066 1122.56 221.367 1123.44 221.367C1124.45 221.367 1125.38 220.91 1126.21 219.996C1127.05 219.082 1127.47 218.023 1127.47 216.82C1127.47 216.016 1127.24 215.367 1126.78 214.875C1126.32 214.375 1125.76 214.125 1125.11 214.125C1124.35 214.125 1123.55 214.438 1122.73 215.062C1122.16 215.5 1121.45 216.281 1120.61 217.406ZM1140.38 214.371C1140.98 214.699 1141.43 215.102 1141.73 215.578C1142.04 216.055 1142.19 216.609 1142.19 217.242C1142.19 218.008 1141.95 218.801 1141.46 219.621C1140.98 220.441 1140.28 221.102 1139.36 221.602C1138.46 222.102 1137.55 222.352 1136.63 222.352C1135.59 222.352 1134.72 222.02 1134.03 221.355C1133.34 220.691 1133 219.879 1133 218.918C1133 218.02 1133.29 217.16 1133.87 216.34C1134.45 215.512 1135.28 214.855 1136.36 214.371C1135.81 214.004 1135.4 213.617 1135.14 213.211C1134.89 212.797 1134.77 212.297 1134.77 211.711C1134.77 211.133 1134.92 210.555 1135.21 209.977C1135.51 209.391 1135.89 208.883 1136.35 208.453C1136.82 208.016 1137.36 207.656 1137.98 207.375C1138.61 207.086 1139.28 206.941 1140 206.941C1141 206.941 1141.82 207.258 1142.46 207.891C1143.11 208.516 1143.43 209.293 1143.43 210.223C1143.43 211.012 1143.19 211.766 1142.7 212.484C1142.22 213.195 1141.45 213.824 1140.38 214.371ZM1138.47 213.879C1139.54 213.879 1140.45 213.523 1141.23 212.812C1142.01 212.102 1142.4 211.305 1142.4 210.422C1142.4 209.711 1142.15 209.121 1141.66 208.652C1141.17 208.176 1140.54 207.938 1139.76 207.938C1138.7 207.938 1137.77 208.316 1136.96 209.074C1136.16 209.832 1135.77 210.668 1135.77 211.582C1135.77 212.199 1136.02 212.738 1136.52 213.199C1137.02 213.652 1137.67 213.879 1138.47 213.879ZM1136.88 221.367C1138.1 221.367 1139.12 220.941 1139.94 220.09C1140.76 219.238 1141.17 218.363 1141.17 217.465C1141.17 216.73 1140.91 216.113 1140.38 215.613C1139.86 215.105 1139.16 214.852 1138.29 214.852C1137.13 214.852 1136.12 215.254 1135.27 216.059C1134.43 216.855 1134.01 217.73 1134.01 218.684C1134.01 219.449 1134.27 220.09 1134.79 220.605C1135.32 221.113 1136.02 221.367 1136.88 221.367Z" fill="white"/>
<circle cx="1188.5" cy="109" r="10.5" transform="rotate(180 1188.5 109)" stroke="white" stroke-width="7"/>
<line x1="1123" y1="28.5" x2="1017" y2="28.5" stroke="white" stroke-width="3"/>
<line x1="1199.94" y1="105.061" x2="1121.94" y2="27.0607" stroke="white" stroke-width="3"/>
<path d="M1029.21 11.1797L1026.98 18H1024.29L1022.86 6.19922C1022.49 6.15234 1022.21 6.02734 1022.02 5.82422C1021.84 5.61328 1021.74 5.34766 1021.74 5.02734C1021.74 4.65234 1021.86 4.35156 1022.11 4.125C1022.36 3.89844 1022.77 3.78516 1023.35 3.78516L1026.55 3.79688C1027.12 3.79688 1027.54 3.90625 1027.78 4.125C1028.03 4.34375 1028.15 4.63281 1028.15 4.99219C1028.15 5.35156 1028.03 5.64453 1027.78 5.87109C1027.54 6.08984 1027.12 6.19922 1026.55 6.19922H1025.29L1026.09 12.9141L1027.98 7.32422H1030.47L1032.35 12.9141L1033.14 6.19922H1031.89C1031.31 6.19922 1030.9 6.08984 1030.65 5.87109C1030.41 5.64453 1030.29 5.35156 1030.29 4.99219C1030.29 4.63281 1030.41 4.34375 1030.65 4.125C1030.9 3.89844 1031.31 3.78516 1031.89 3.78516L1035.08 3.79688C1035.66 3.79688 1036.07 3.90625 1036.31 4.125C1036.56 4.34375 1036.68 4.63281 1036.68 4.99219C1036.68 5.29688 1036.59 5.55859 1036.39 5.77734C1036.2 5.99609 1035.91 6.13672 1035.55 6.19922L1034.16 18H1031.52L1029.21 11.1797ZM1043.12 7.35938V8.85938C1044.12 8.13281 1044.92 7.64844 1045.5 7.40625C1046.08 7.16406 1046.63 7.04297 1047.14 7.04297C1047.92 7.04297 1048.68 7.33203 1049.41 7.91016C1049.91 8.30078 1050.16 8.69922 1050.16 9.10547C1050.16 9.44922 1050.04 9.74219 1049.8 9.98438C1049.56 10.2188 1049.28 10.3359 1048.94 10.3359C1048.64 10.3359 1048.33 10.1875 1048 9.89062C1047.68 9.59375 1047.38 9.44531 1047.12 9.44531C1046.79 9.44531 1046.29 9.65625 1045.61 10.0781C1044.95 10.5 1044.12 11.1328 1043.12 11.9766V15.5977H1046.54C1047.12 15.5977 1047.53 15.7109 1047.77 15.9375C1048.02 16.1562 1048.14 16.4453 1048.14 16.8047C1048.14 17.1562 1048.02 17.4453 1047.77 17.6719C1047.53 17.8906 1047.12 18 1046.54 18H1039.29C1038.71 18 1038.29 17.8906 1038.04 17.6719C1037.8 17.4453 1037.68 17.1523 1037.68 16.793C1037.68 16.4414 1037.8 16.1562 1038.04 15.9375C1038.29 15.7109 1038.71 15.5977 1039.29 15.5977H1040.71V9.76172H1039.85C1039.27 9.76172 1038.86 9.65234 1038.61 9.43359C1038.36 9.20703 1038.24 8.91406 1038.24 8.55469C1038.24 8.20312 1038.36 7.91797 1038.61 7.69922C1038.86 7.47266 1039.27 7.35938 1039.85 7.35938H1043.12ZM1060.19 18V17.4375C1059.59 17.7578 1058.93 17.9961 1058.2 18.1523C1057.47 18.3164 1056.81 18.3984 1056.22 18.3984C1054.93 18.3984 1053.88 18.0586 1053.08 17.3789C1052.27 16.6914 1051.87 15.9336 1051.87 15.1055C1051.87 14.0977 1052.38 13.1641 1053.41 12.3047C1054.44 11.4375 1055.86 11.0039 1057.67 11.0039C1058.4 11.0039 1059.24 11.082 1060.19 11.2383V10.6641C1060.19 10.3047 1060.04 10.0117 1059.72 9.78516C1059.42 9.55859 1058.83 9.44531 1057.96 9.44531C1057.25 9.44531 1056.33 9.58594 1055.2 9.86719C1054.78 9.96875 1054.45 10.0195 1054.21 10.0195C1053.89 10.0195 1053.62 9.90625 1053.39 9.67969C1053.18 9.44531 1053.07 9.14844 1053.07 8.78906C1053.07 8.58594 1053.11 8.41016 1053.18 8.26172C1053.26 8.11328 1053.37 7.99609 1053.51 7.91016C1053.65 7.81641 1053.95 7.70703 1054.39 7.58203C1054.98 7.41797 1055.59 7.28906 1056.21 7.19531C1056.82 7.09375 1057.38 7.04297 1057.88 7.04297C1059.38 7.04297 1060.53 7.36719 1061.35 8.01562C1062.18 8.65625 1062.59 9.53516 1062.59 10.6523V15.5977H1063C1063.58 15.5977 1063.99 15.7109 1064.23 15.9375C1064.48 16.1562 1064.61 16.4453 1064.61 16.8047C1064.61 17.1562 1064.48 17.4453 1064.23 17.6719C1063.99 17.8906 1063.58 18 1063 18H1060.19ZM1060.19 13.6992C1059.23 13.5117 1058.34 13.418 1057.53 13.418C1056.55 13.418 1055.71 13.6562 1055.01 14.1328C1054.57 14.4375 1054.36 14.7461 1054.36 15.0586C1054.36 15.2852 1054.46 15.4688 1054.67 15.6094C1055.06 15.8672 1055.6 15.9961 1056.28 15.9961C1056.86 15.9961 1057.51 15.8828 1058.23 15.6562C1058.97 15.4297 1059.62 15.1211 1060.19 14.7305V13.6992ZM1069.46 16.6758V20.6133H1070.9C1071.48 20.6133 1071.89 20.7227 1072.13 20.9414C1072.38 21.168 1072.51 21.4609 1072.51 21.8203C1072.51 22.1719 1072.38 22.457 1072.13 22.6758C1071.89 22.9023 1071.48 23.0156 1070.9 23.0156H1066.65C1066.07 23.0156 1065.66 22.9023 1065.41 22.6758C1065.16 22.457 1065.04 22.1719 1065.04 21.8203C1065.04 21.4609 1065.17 21.168 1065.42 20.9414C1065.67 20.7227 1066.08 20.6133 1066.65 20.6133H1067.06V9.76172H1066.65C1066.07 9.76172 1065.66 9.65234 1065.41 9.43359C1065.16 9.20703 1065.04 8.91406 1065.04 8.55469C1065.04 8.20312 1065.16 7.91797 1065.41 7.69922C1065.66 7.47266 1066.07 7.35938 1066.65 7.35938H1069.46V8.17969C1070.02 7.79688 1070.61 7.51172 1071.21 7.32422C1071.81 7.13672 1072.43 7.04297 1073.06 7.04297C1074.7 7.04297 1076.1 7.60156 1077.25 8.71875C1078.41 9.82812 1078.99 11.1016 1078.99 12.5391C1078.99 14.125 1078.3 15.4336 1076.94 16.4648C1075.8 17.3242 1074.51 17.7539 1073.08 17.7539C1072.46 17.7539 1071.86 17.6641 1071.25 17.4844C1070.65 17.3047 1070.05 17.0352 1069.46 16.6758ZM1076.59 12.5508C1076.59 12.2148 1076.45 11.7891 1076.19 11.2734C1075.92 10.75 1075.51 10.3164 1074.96 9.97266C1074.41 9.62109 1073.77 9.44531 1073.02 9.44531C1071.83 9.44531 1070.88 9.89453 1070.18 10.793C1069.7 11.4102 1069.46 12.0039 1069.46 12.5742C1069.46 13.2148 1069.8 13.8398 1070.48 14.4492C1071.17 15.0508 1072.02 15.3516 1073.02 15.3516C1074.04 15.3516 1074.89 15.0508 1075.57 14.4492C1076.25 13.8477 1076.59 13.2148 1076.59 12.5508ZM1106.76 6.19922V13.0078C1106.76 14.4922 1106.23 15.7539 1105.16 16.793C1104.09 17.832 1102.81 18.3516 1101.31 18.3516C1100.57 18.3516 1099.87 18.2227 1099.21 17.9648C1098.57 17.6992 1097.98 17.3125 1097.46 16.8047C1096.94 16.2969 1096.54 15.7695 1096.25 15.2227C1095.96 14.668 1095.82 13.9297 1095.82 13.0078V6.19922C1095.31 6.19922 1094.93 6.08594 1094.69 5.85938C1094.45 5.63281 1094.33 5.34375 1094.33 4.99219C1094.33 4.63281 1094.45 4.34375 1094.69 4.125C1094.93 3.90625 1095.35 3.79688 1095.93 3.79688L1099.09 3.78516C1099.66 3.78516 1100.07 3.89844 1100.32 4.125C1100.57 4.34375 1100.69 4.63281 1100.69 4.99219C1100.69 5.35156 1100.57 5.64453 1100.32 5.87109C1100.07 6.08984 1099.66 6.19922 1099.09 6.19922H1098.22V13.2188C1098.22 13.9375 1098.52 14.5742 1099.11 15.1289C1099.71 15.6758 1100.43 15.9492 1101.28 15.9492C1101.84 15.9492 1102.37 15.8164 1102.86 15.5508C1103.35 15.2852 1103.75 14.8984 1104.07 14.3906C1104.26 14.0703 1104.36 13.6797 1104.36 13.2188V6.19922H1103.49C1102.91 6.19922 1102.5 6.08984 1102.25 5.87109C1102.01 5.64453 1101.89 5.35156 1101.89 4.99219C1101.89 4.63281 1102.01 4.34375 1102.25 4.125C1102.5 3.89844 1102.91 3.78516 1103.49 3.78516L1106.64 3.79688C1107.22 3.79688 1107.63 3.90625 1107.88 4.125C1108.12 4.34375 1108.25 4.63281 1108.25 4.99219C1108.25 5.34375 1108.13 5.63281 1107.89 5.85938C1107.64 6.08594 1107.27 6.19922 1106.76 6.19922ZM1112.7 16.6758V20.6133H1114.14C1114.72 20.6133 1115.13 20.7227 1115.38 20.9414C1115.62 21.168 1115.75 21.4609 1115.75 21.8203C1115.75 22.1719 1115.62 22.457 1115.38 22.6758C1115.13 22.9023 1114.72 23.0156 1114.14 23.0156H1109.89C1109.31 23.0156 1108.9 22.9023 1108.65 22.6758C1108.41 22.457 1108.29 22.1719 1108.29 21.8203C1108.29 21.4609 1108.41 21.168 1108.66 20.9414C1108.91 20.7227 1109.32 20.6133 1109.89 20.6133H1110.3V9.76172H1109.89C1109.31 9.76172 1108.9 9.65234 1108.65 9.43359C1108.41 9.20703 1108.29 8.91406 1108.29 8.55469C1108.29 8.20312 1108.41 7.91797 1108.65 7.69922C1108.9 7.47266 1109.31 7.35938 1109.89 7.35938H1112.7V8.17969C1113.27 7.79688 1113.85 7.51172 1114.45 7.32422C1115.05 7.13672 1115.67 7.04297 1116.3 7.04297C1117.94 7.04297 1119.34 7.60156 1120.5 8.71875C1121.65 9.82812 1122.23 11.1016 1122.23 12.5391C1122.23 14.125 1121.55 15.4336 1120.18 16.4648C1119.04 17.3242 1117.75 17.7539 1116.32 17.7539C1115.71 17.7539 1115.1 17.6641 1114.5 17.4844C1113.89 17.3047 1113.3 17.0352 1112.7 16.6758ZM1119.83 12.5508C1119.83 12.2148 1119.7 11.7891 1119.43 11.2734C1119.16 10.75 1118.75 10.3164 1118.2 9.97266C1117.65 9.62109 1117.01 9.44531 1116.27 9.44531C1115.07 9.44531 1114.12 9.89453 1113.42 10.793C1112.94 11.4102 1112.7 12.0039 1112.7 12.5742C1112.7 13.2148 1113.04 13.8398 1113.72 14.4492C1114.41 15.0508 1115.26 15.3516 1116.27 15.3516C1117.28 15.3516 1118.13 15.0508 1118.81 14.4492C1119.49 13.8477 1119.83 13.2148 1119.83 12.5508Z" fill="white"/>
<path d="M1123.58 149.264V147.224H1121.46V143.936H1124.51V146H1129.94V143.096H1123.58V141.056H1121.46V135.752H1123.58V133.688H1130.87V135.752H1133.01V147.224H1130.87V149.264H1123.58ZM1124.51 139.856H1129.94V136.976H1124.51V139.856ZM1135.92 147.152V143.864H1138.97V147.152H1135.92ZM1135.92 143.12V139.856H1138.97V143.12H1135.92ZM1144.01 149.264V147.224H1141.9V135.752H1144.01V133.688H1151.31V135.752H1153.45V147.224H1151.31V149.264H1144.01ZM1144.95 146H1150.37V136.976H1144.95V146ZM1158.47 149.264V147.224H1156.36V135.752H1158.47V133.688H1165.77V135.752H1167.91V147.224H1165.77V149.264H1158.47ZM1159.41 146H1164.83V136.976H1159.41V146ZM1170.82 149.264V135.752H1172.94V133.688H1180.23V135.752H1182.37V143.096H1180.23V145.16H1173.87V149.264H1170.82ZM1173.87 141.872H1179.3V136.976H1173.87V141.872ZM1185.28 149.264V135.752H1187.4V133.688H1190.44V135.752H1192.58V139.856H1193.76V135.752H1195.89V133.688H1198.96V135.752H1201.05V149.264H1198.03V136.976H1196.83V141.056H1194.69V147.224H1191.64V141.056H1189.51V136.976H1188.33V149.264H1185.28Z" fill="#00FF00"/>
</svg>
