<svg width="1203" height="206" viewBox="0 0 1203 206" fill="none" xmlns="http://www.w3.org/2000/svg">
<line x1="41" y1="106.5" x2="123" y2="106.5" stroke="#00FF00" stroke-width="3"/>
<line x1="174" y1="106.5" x2="357" y2="106.5" stroke="#00FF00" stroke-width="3"/>
<line x1="413" y1="106.5" x2="765" y2="106.5" stroke="#00FF00" stroke-width="3"/>
<line x1="829.005" y1="105.5" x2="1162" y2="106.5" stroke="#00FF00" stroke-width="3"/>
<line x1="77" y1="27.5" x2="223" y2="27.5" stroke="white" stroke-width="3"/>
<circle cx="14" cy="108" r="10.5" stroke="white" stroke-width="7"/>
<circle cx="148" cy="108" r="10.5" stroke="white" stroke-width="7"/>
<circle cx="386" cy="106" r="10.5" stroke="white" stroke-width="7"/>
<circle cx="798" cy="110" r="10.5" stroke="white" stroke-width="7"/>
<line x1="2.93934" y1="101.939" x2="77.9393" y2="26.9393" stroke="white" stroke-width="3"/>
<line x1="449" y1="26.5" x2="529" y2="26.5" stroke="white" stroke-width="3"/>
<line x1="374.939" y1="100.939" x2="449.939" y2="25.9393" stroke="white" stroke-width="3"/>
<line x1="224" y1="200.5" x2="404" y2="200.5" stroke="white" stroke-width="3"/>
<line x1="136.061" y1="111.939" x2="225.061" y2="200.939" stroke="white" stroke-width="3"/>
<line x1="787.061" y1="115.939" x2="876.061" y2="204.939" stroke="white" stroke-width="3"/>
<path d="M78.8281 13.5977V4.19922C78.3203 4.19141 77.9453 4.07812 77.7031 3.85938C77.4609 3.63281 77.3398 3.34375 77.3398 2.99219C77.3398 2.63281 77.4609 2.34375 77.7031 2.125C77.9531 1.89844 78.3672 1.78516 78.9453 1.78516L83.9727 1.79688C84.7539 1.79688 85.5156 1.94141 86.2578 2.23047C87.0078 2.51953 87.6094 2.88672 88.0625 3.33203C88.4062 3.66797 88.7617 4.12891 89.1289 4.71484C89.5039 5.30078 89.7852 5.88281 89.9727 6.46094C90.1602 7.03906 90.2539 7.74609 90.2539 8.58203V9.73047C90.2539 10.7461 90.082 11.6484 89.7383 12.4375C89.3945 13.2188 88.9414 13.8594 88.3789 14.3594C87.8242 14.8516 87.3008 15.2148 86.8086 15.4492C86.0273 15.8164 85.0156 16 83.7734 16H78.9453C78.3672 16 77.9531 15.8906 77.7031 15.6719C77.4609 15.4453 77.3398 15.1523 77.3398 14.793C77.3398 14.4414 77.4609 14.1523 77.7031 13.9258C77.9531 13.6992 78.3281 13.5898 78.8281 13.5977ZM81.2305 13.5977H83.7852C84.7383 13.5977 85.457 13.4609 85.9414 13.1875C86.5742 12.8281 87.0508 12.3711 87.3711 11.8164C87.6914 11.2617 87.8516 10.543 87.8516 9.66016V8.52344C87.8516 7.76562 87.707 7.10156 87.418 6.53125C86.9648 5.64062 86.4531 5.03125 85.8828 4.70312C85.3203 4.36719 84.6133 4.19922 83.7617 4.19922H81.2305V13.5977ZM100.777 16V15.4375C100.176 15.7578 99.5117 15.9961 98.7852 16.1523C98.0586 16.3164 97.3984 16.3984 96.8047 16.3984C95.5156 16.3984 94.4688 16.0586 93.6641 15.3789C92.8594 14.6914 92.457 13.9336 92.457 13.1055C92.457 12.0977 92.9688 11.1641 93.9922 10.3047C95.0234 9.4375 96.4453 9.00391 98.2578 9.00391C98.9844 9.00391 99.8242 9.08203 100.777 9.23828V8.66406C100.777 8.30469 100.621 8.01172 100.309 7.78516C100.004 7.55859 99.418 7.44531 98.5508 7.44531C97.8398 7.44531 96.918 7.58594 95.7852 7.86719C95.3633 7.96875 95.0352 8.01953 94.8008 8.01953C94.4805 8.01953 94.207 7.90625 93.9805 7.67969C93.7617 7.44531 93.6523 7.14844 93.6523 6.78906C93.6523 6.58594 93.6914 6.41016 93.7695 6.26172C93.8477 6.11328 93.957 5.99609 94.0977 5.91016C94.2383 5.81641 94.5312 5.70703 94.9766 5.58203C95.5703 5.41797 96.1758 5.28906 96.793 5.19531C97.4102 5.09375 97.9688 5.04297 98.4688 5.04297C99.9609 5.04297 101.117 5.36719 101.938 6.01562C102.766 6.65625 103.18 7.53516 103.18 8.65234V13.5977H103.59C104.168 13.5977 104.578 13.7109 104.82 13.9375C105.07 14.1562 105.195 14.4453 105.195 14.8047C105.195 15.1562 105.07 15.4453 104.82 15.6719C104.578 15.8906 104.168 16 103.59 16H100.777ZM100.777 11.6992C99.8164 11.5117 98.9297 11.418 98.1172 11.418C97.1406 11.418 96.3008 11.6562 95.5977 12.1328C95.1602 12.4375 94.9414 12.7461 94.9414 13.0586C94.9414 13.2852 95.0469 13.4688 95.2578 13.6094C95.6484 13.8672 96.1836 13.9961 96.8633 13.9961C97.4414 13.9961 98.0938 13.8828 98.8203 13.6562C99.5547 13.4297 100.207 13.1211 100.777 12.7305V11.6992ZM111.688 15.918L107.527 7.76172C107.137 7.71484 106.84 7.58203 106.637 7.36328C106.434 7.14453 106.332 6.87891 106.332 6.56641C106.332 6.20703 106.453 5.91797 106.695 5.69922C106.945 5.47266 107.359 5.35938 107.938 5.35938H110.129C110.707 5.35938 111.117 5.47266 111.359 5.69922C111.609 5.91797 111.734 6.20703 111.734 6.56641C111.734 6.91797 111.609 7.20703 111.359 7.43359C111.117 7.65234 110.73 7.76172 110.199 7.76172L113.035 13.2812L115.848 7.76172C115.332 7.76172 114.949 7.65234 114.699 7.43359C114.457 7.20703 114.336 6.91406 114.336 6.55469C114.336 6.20312 114.457 5.91797 114.699 5.69922C114.949 5.47266 115.363 5.35938 115.941 5.35938H118.203C118.773 5.35938 119.18 5.47266 119.422 5.69922C119.672 5.91797 119.797 6.20703 119.797 6.56641C119.797 6.88672 119.691 7.16016 119.48 7.38672C119.27 7.60547 118.957 7.73047 118.543 7.76172L113.035 18.6133C113.637 18.6133 114.031 18.6719 114.219 18.7891C114.594 19.0312 114.781 19.375 114.781 19.8203C114.781 20.1719 114.656 20.457 114.406 20.6758C114.164 20.9023 113.754 21.0156 113.176 21.0156H107.938C107.359 21.0156 106.945 20.9023 106.695 20.6758C106.453 20.457 106.332 20.1719 106.332 19.8203C106.332 19.4609 106.453 19.168 106.695 18.9414C106.945 18.7227 107.359 18.6133 107.938 18.6133H110.328L111.688 15.918ZM136.953 13.5977V4.19922H136.578C136 4.19922 135.586 4.08984 135.336 3.87109C135.094 3.64453 134.973 3.35156 134.973 2.99219C134.973 2.63281 135.094 2.34375 135.336 2.125C135.586 1.89844 136 1.78516 136.578 1.78516H142.602C144.039 1.78516 145.195 2.1875 146.07 2.99219C146.945 3.78906 147.383 4.73828 147.383 5.83984C147.383 6.36328 147.281 6.85547 147.078 7.31641C146.875 7.77734 146.566 8.20312 146.152 8.59375C146.91 9.04688 147.477 9.57812 147.852 10.1875C148.234 10.7891 148.426 11.4727 148.426 12.2383C148.426 12.8477 148.289 13.4141 148.016 13.9375C147.812 14.3359 147.562 14.6523 147.266 14.8867C146.867 15.2148 146.379 15.4844 145.801 15.6953C145.223 15.8984 144.5 16 143.633 16H136.578C136 16 135.586 15.8906 135.336 15.6719C135.094 15.4453 134.973 15.1523 134.973 14.793C134.973 14.4414 135.098 14.1562 135.348 13.9375C135.598 13.7109 136.008 13.5977 136.578 13.5977H136.953ZM139.355 7.69141H141.992C142.938 7.69141 143.723 7.45312 144.348 6.97656C144.77 6.65625 144.98 6.25781 144.98 5.78125C144.98 5.35938 144.781 4.99219 144.383 4.67969C143.984 4.35938 143.352 4.19922 142.484 4.19922H139.355V7.69141ZM139.355 13.5977H143.504C144.48 13.5977 145.168 13.4531 145.566 13.1641C145.871 12.9453 146.023 12.6328 146.023 12.2266C146.023 11.7422 145.723 11.2656 145.121 10.7969C144.52 10.3281 143.656 10.0938 142.531 10.0938H139.355V13.5977ZM162.301 11.8984H152.445C152.695 12.5234 153.137 13.0273 153.77 13.4102C154.41 13.793 155.273 13.9844 156.359 13.9844C157.25 13.9844 158.434 13.793 159.91 13.4102C160.52 13.2539 160.941 13.1758 161.176 13.1758C161.496 13.1758 161.766 13.2891 161.984 13.5156C162.203 13.7422 162.312 14.0273 162.312 14.3711C162.312 14.6836 162.195 14.9492 161.961 15.168C161.648 15.457 160.887 15.7344 159.676 16C158.465 16.2578 157.301 16.3867 156.184 16.3867C154.262 16.3867 152.723 15.8438 151.566 14.7578C150.418 13.6719 149.844 12.3359 149.844 10.75C149.844 9.0625 150.465 7.69141 151.707 6.63672C152.957 5.57422 154.395 5.04297 156.02 5.04297C156.996 5.04297 157.891 5.21484 158.703 5.55859C159.523 5.90234 160.133 6.27344 160.531 6.67188C161.094 7.25 161.559 7.96484 161.926 8.81641C162.176 9.41016 162.301 10.0977 162.301 10.8789V11.8984ZM159.641 9.49609C159.273 8.80859 158.793 8.29688 158.199 7.96094C157.605 7.61719 156.898 7.44531 156.078 7.44531C155.266 7.44531 154.562 7.61719 153.969 7.96094C153.375 8.29688 152.891 8.80859 152.516 9.49609H159.641ZM173.328 6.07422V5.35938H176.141C176.719 5.35938 177.129 5.47266 177.371 5.69922C177.621 5.91797 177.746 6.20703 177.746 6.56641C177.746 6.91797 177.621 7.20703 177.371 7.43359C177.129 7.65234 176.719 7.76172 176.141 7.76172H175.73V16.5039C175.73 17.3477 175.551 18.082 175.191 18.707C174.84 19.3398 174.297 19.8828 173.562 20.3359C172.828 20.7891 172 21.0156 171.078 21.0156H168.359C167.781 21.0156 167.367 20.9023 167.117 20.6758C166.875 20.457 166.754 20.1719 166.754 19.8203C166.754 19.4609 166.875 19.168 167.117 18.9414C167.367 18.7227 167.781 18.6133 168.359 18.6133H171.008C171.742 18.6133 172.312 18.4141 172.719 18.0156C173.125 17.6172 173.328 17.1133 173.328 16.5039V15.332C172.797 15.6758 172.254 15.9336 171.699 16.1055C171.152 16.2773 170.59 16.3633 170.012 16.3633C168.379 16.3633 167.012 15.8203 165.91 14.7344C164.809 13.6406 164.258 12.293 164.258 10.6914C164.258 9.08203 164.809 7.73438 165.91 6.64844C167.012 5.55469 168.379 5.00781 170.012 5.00781C170.621 5.00781 171.199 5.09766 171.746 5.27734C172.301 5.44922 172.828 5.71484 173.328 6.07422ZM173.316 10.6797C173.316 9.79688 172.988 9.03125 172.332 8.38281C171.684 7.73438 170.902 7.41016 169.988 7.41016C169.074 7.41016 168.289 7.73438 167.633 8.38281C166.984 9.03125 166.66 9.79688 166.66 10.6797C166.66 11.5703 166.984 12.3398 167.633 12.9883C168.289 13.6289 169.074 13.9492 169.988 13.9492C170.902 13.9492 171.684 13.6289 172.332 12.9883C172.988 12.3398 173.316 11.5703 173.316 10.6797ZM185.961 0.800781V3.34375H183.102V0.800781H185.961ZM186.289 5.35938V13.5977H189.172C189.75 13.5977 190.16 13.7109 190.402 13.9375C190.652 14.1562 190.777 14.4453 190.777 14.8047C190.777 15.1562 190.652 15.4453 190.402 15.6719C190.16 15.8906 189.75 16 189.172 16H181.004C180.426 16 180.012 15.8906 179.762 15.6719C179.52 15.4453 179.398 15.1523 179.398 14.793C179.398 14.4414 179.52 14.1562 179.762 13.9375C180.012 13.7109 180.426 13.5977 181.004 13.5977H183.887V7.76172H181.953C181.383 7.76172 180.973 7.65234 180.723 7.43359C180.473 7.20703 180.348 6.91406 180.348 6.55469C180.348 6.20312 180.469 5.91797 180.711 5.69922C180.961 5.47266 181.375 5.35938 181.953 5.35938H186.289ZM197.082 5.35938V6.16797C197.52 5.79297 198 5.51172 198.523 5.32422C199.055 5.13672 199.629 5.04297 200.246 5.04297C201.668 5.04297 202.793 5.48438 203.621 6.36719C204.277 7.07031 204.605 7.99219 204.605 9.13281V13.5977C205.113 13.5977 205.488 13.7109 205.73 13.9375C205.973 14.1562 206.094 14.4453 206.094 14.8047C206.094 15.1562 205.969 15.4453 205.719 15.6719C205.477 15.8906 205.066 16 204.488 16H202.32C201.742 16 201.328 15.8906 201.078 15.6719C200.836 15.4453 200.715 15.1523 200.715 14.793C200.715 14.4414 200.836 14.1562 201.078 13.9375C201.32 13.7109 201.695 13.5977 202.203 13.5977V9.0625C202.203 8.53906 202.062 8.15625 201.781 7.91406C201.414 7.60156 200.863 7.44531 200.129 7.44531C199.574 7.44531 199.086 7.55469 198.664 7.77344C198.25 7.98438 197.723 8.4375 197.082 9.13281V13.5977C197.699 13.5977 198.098 13.6562 198.277 13.7734C198.66 14.0078 198.852 14.3516 198.852 14.8047C198.852 15.1562 198.727 15.4453 198.477 15.6719C198.234 15.8906 197.824 16 197.246 16H194.516C193.938 16 193.523 15.8906 193.273 15.6719C193.031 15.4453 192.91 15.1523 192.91 14.793C192.91 14.3555 193.098 14.0156 193.473 13.7734C193.66 13.6562 194.062 13.5977 194.68 13.5977V7.76172C194.172 7.76172 193.797 7.64844 193.555 7.42188C193.312 7.19531 193.191 6.90625 193.191 6.55469C193.191 6.20312 193.312 5.91797 193.555 5.69922C193.805 5.47266 194.219 5.35938 194.797 5.35938H197.082ZM216.523 8.17188C216.133 7.92969 215.723 7.75 215.293 7.63281C214.863 7.50781 214.414 7.44531 213.945 7.44531C213.016 7.44531 212.277 7.59766 211.73 7.90234C211.488 8.03516 211.367 8.17969 211.367 8.33594C211.367 8.51562 211.531 8.69141 211.859 8.86328C212.109 8.98828 212.668 9.10938 213.535 9.22656C215.129 9.44531 216.238 9.66406 216.863 9.88281C217.684 10.1719 218.316 10.6016 218.762 11.1719C219.207 11.7422 219.43 12.3438 219.43 12.9766C219.43 13.8359 219.051 14.5547 218.293 15.1328C217.207 15.9688 215.797 16.3867 214.062 16.3867C213.367 16.3867 212.723 16.3242 212.129 16.1992C211.543 16.082 211.004 15.9062 210.512 15.6719C210.395 15.7734 210.27 15.8516 210.137 15.9062C210.004 15.9609 209.867 15.9883 209.727 15.9883C209.352 15.9883 209.051 15.8672 208.824 15.625C208.605 15.375 208.496 14.9609 208.496 14.3828V13.5742C208.496 12.9961 208.605 12.5859 208.824 12.3438C209.051 12.0938 209.344 11.9688 209.703 11.9688C209.992 11.9688 210.234 12.0508 210.43 12.2148C210.625 12.3711 210.777 12.6445 210.887 13.0352C211.254 13.3477 211.695 13.5859 212.211 13.75C212.727 13.9062 213.32 13.9844 213.992 13.9844C215.094 13.9844 215.949 13.8125 216.559 13.4688C216.848 13.2969 216.992 13.1172 216.992 12.9297C216.992 12.6172 216.785 12.3594 216.371 12.1562C215.957 11.9531 215.102 11.7812 213.805 11.6406C211.875 11.4375 210.586 11.0469 209.938 10.4688C209.289 9.89844 208.965 9.19531 208.965 8.35938C208.965 7.5 209.328 6.78516 210.055 6.21484C211.039 5.43359 212.328 5.04297 213.922 5.04297C214.477 5.04297 215.008 5.09766 215.516 5.20703C216.031 5.30859 216.523 5.46875 216.992 5.6875C217.141 5.57812 217.277 5.49609 217.402 5.44141C217.535 5.38672 217.656 5.35938 217.766 5.35938C218.094 5.35938 218.367 5.48438 218.586 5.73438C218.805 5.97656 218.914 6.38672 218.914 6.96484V7.55078C218.914 8.07422 218.852 8.42969 218.727 8.61719C218.477 8.97656 218.137 9.15625 217.707 9.15625C217.418 9.15625 217.164 9.06641 216.945 8.88672C216.727 8.70703 216.586 8.46875 216.523 8.17188Z" fill="white"/>
<path d="M238.969 175.406C239.117 175.203 239.277 175.051 239.449 174.949C239.629 174.848 239.82 174.797 240.023 174.797C240.375 174.797 240.66 174.918 240.879 175.16C241.105 175.402 241.219 175.812 241.219 176.391V178.43C241.219 179.008 241.105 179.422 240.879 179.672C240.66 179.914 240.375 180.035 240.023 180.035C239.703 180.035 239.445 179.945 239.25 179.766C239.055 179.586 238.91 179.25 238.816 178.758C238.762 178.43 238.652 178.176 238.488 177.996C238.168 177.645 237.719 177.363 237.141 177.152C236.57 176.941 235.996 176.836 235.418 176.836C234.699 176.836 234.039 176.992 233.438 177.305C232.836 177.617 232.305 178.125 231.844 178.828C231.383 179.531 231.152 180.367 231.152 181.336V182.895C231.152 184.051 231.57 185.016 232.406 185.789C233.25 186.562 234.418 186.949 235.91 186.949C236.801 186.949 237.555 186.828 238.172 186.586C238.531 186.445 238.914 186.168 239.32 185.754C239.57 185.504 239.766 185.344 239.906 185.273C240.047 185.195 240.207 185.156 240.387 185.156C240.707 185.156 240.988 185.277 241.23 185.52C241.473 185.762 241.594 186.047 241.594 186.375C241.594 186.703 241.43 187.055 241.102 187.43C240.625 187.977 240.012 188.406 239.262 188.719C238.254 189.141 237.141 189.352 235.922 189.352C234.5 189.352 233.219 189.059 232.078 188.473C231.156 188.004 230.371 187.266 229.723 186.258C229.074 185.242 228.75 184.137 228.75 182.941V181.312C228.75 180.062 229.039 178.898 229.617 177.82C230.203 176.734 231.012 175.898 232.043 175.312C233.074 174.727 234.168 174.434 235.324 174.434C236.02 174.434 236.668 174.516 237.27 174.68C237.879 174.836 238.445 175.078 238.969 175.406ZM247.137 173.801V178.922C247.637 178.625 248.141 178.406 248.648 178.266C249.164 178.117 249.684 178.043 250.207 178.043C251.035 178.043 251.773 178.184 252.422 178.465C253.07 178.746 253.605 179.191 254.027 179.801C254.457 180.402 254.672 181.164 254.672 182.086V186.598C255.281 186.598 255.68 186.656 255.867 186.773C256.242 187.016 256.43 187.359 256.43 187.805C256.43 188.156 256.309 188.445 256.066 188.672C255.824 188.891 255.414 189 254.836 189H252.094C251.523 189 251.113 188.891 250.863 188.672C250.621 188.445 250.5 188.152 250.5 187.793C250.5 187.355 250.688 187.016 251.062 186.773C251.258 186.648 251.656 186.59 252.258 186.598V182.25C252.258 181.633 252.117 181.199 251.836 180.949C251.469 180.613 250.926 180.445 250.207 180.445C249.676 180.445 249.203 180.551 248.789 180.762C248.383 180.965 247.832 181.41 247.137 182.098V186.598C247.754 186.598 248.152 186.656 248.332 186.773C248.715 187.016 248.906 187.359 248.906 187.805C248.906 188.156 248.781 188.445 248.531 188.672C248.289 188.891 247.879 189 247.301 189H244.57C243.992 189 243.578 188.891 243.328 188.672C243.086 188.445 242.965 188.152 242.965 187.793C242.965 187.355 243.156 187.016 243.539 186.773C243.727 186.648 244.125 186.59 244.734 186.598V176.203H244.324C243.746 176.203 243.332 176.094 243.082 175.875C242.84 175.648 242.719 175.355 242.719 174.996C242.719 174.645 242.84 174.359 243.082 174.141C243.332 173.914 243.746 173.801 244.324 173.801H247.137ZM266.191 189V188.438C265.59 188.758 264.926 188.996 264.199 189.152C263.473 189.316 262.812 189.398 262.219 189.398C260.93 189.398 259.883 189.059 259.078 188.379C258.273 187.691 257.871 186.934 257.871 186.105C257.871 185.098 258.383 184.164 259.406 183.305C260.438 182.438 261.859 182.004 263.672 182.004C264.398 182.004 265.238 182.082 266.191 182.238V181.664C266.191 181.305 266.035 181.012 265.723 180.785C265.418 180.559 264.832 180.445 263.965 180.445C263.254 180.445 262.332 180.586 261.199 180.867C260.777 180.969 260.449 181.02 260.215 181.02C259.895 181.02 259.621 180.906 259.395 180.68C259.176 180.445 259.066 180.148 259.066 179.789C259.066 179.586 259.105 179.41 259.184 179.262C259.262 179.113 259.371 178.996 259.512 178.91C259.652 178.816 259.945 178.707 260.391 178.582C260.984 178.418 261.59 178.289 262.207 178.195C262.824 178.094 263.383 178.043 263.883 178.043C265.375 178.043 266.531 178.367 267.352 179.016C268.18 179.656 268.594 180.535 268.594 181.652V186.598H269.004C269.582 186.598 269.992 186.711 270.234 186.938C270.484 187.156 270.609 187.445 270.609 187.805C270.609 188.156 270.484 188.445 270.234 188.672C269.992 188.891 269.582 189 269.004 189H266.191ZM266.191 184.699C265.23 184.512 264.344 184.418 263.531 184.418C262.555 184.418 261.715 184.656 261.012 185.133C260.574 185.438 260.355 185.746 260.355 186.059C260.355 186.285 260.461 186.469 260.672 186.609C261.062 186.867 261.598 186.996 262.277 186.996C262.855 186.996 263.508 186.883 264.234 186.656C264.969 186.43 265.621 186.121 266.191 185.73V184.699ZM279.645 173.801V186.598H282.527C283.105 186.598 283.516 186.711 283.758 186.938C284.008 187.156 284.133 187.445 284.133 187.805C284.133 188.156 284.008 188.445 283.758 188.672C283.516 188.891 283.105 189 282.527 189H274.359C273.781 189 273.367 188.891 273.117 188.672C272.875 188.445 272.754 188.152 272.754 187.793C272.754 187.441 272.875 187.156 273.117 186.938C273.367 186.711 273.781 186.598 274.359 186.598H277.242V176.203H275.309C274.738 176.203 274.328 176.094 274.078 175.875C273.828 175.648 273.703 175.355 273.703 174.996C273.703 174.645 273.824 174.359 274.066 174.141C274.316 173.914 274.73 173.801 275.309 173.801H279.645ZM294.059 173.801V186.598H296.941C297.52 186.598 297.93 186.711 298.172 186.938C298.422 187.156 298.547 187.445 298.547 187.805C298.547 188.156 298.422 188.445 298.172 188.672C297.93 188.891 297.52 189 296.941 189H288.773C288.195 189 287.781 188.891 287.531 188.672C287.289 188.445 287.168 188.152 287.168 187.793C287.168 187.441 287.289 187.156 287.531 186.938C287.781 186.711 288.195 186.598 288.773 186.598H291.656V176.203H289.723C289.152 176.203 288.742 176.094 288.492 175.875C288.242 175.648 288.117 175.355 288.117 174.996C288.117 174.645 288.238 174.359 288.48 174.141C288.73 173.914 289.145 173.801 289.723 173.801H294.059ZM313.301 184.898H303.445C303.695 185.523 304.137 186.027 304.77 186.41C305.41 186.793 306.273 186.984 307.359 186.984C308.25 186.984 309.434 186.793 310.91 186.41C311.52 186.254 311.941 186.176 312.176 186.176C312.496 186.176 312.766 186.289 312.984 186.516C313.203 186.742 313.312 187.027 313.312 187.371C313.312 187.684 313.195 187.949 312.961 188.168C312.648 188.457 311.887 188.734 310.676 189C309.465 189.258 308.301 189.387 307.184 189.387C305.262 189.387 303.723 188.844 302.566 187.758C301.418 186.672 300.844 185.336 300.844 183.75C300.844 182.062 301.465 180.691 302.707 179.637C303.957 178.574 305.395 178.043 307.02 178.043C307.996 178.043 308.891 178.215 309.703 178.559C310.523 178.902 311.133 179.273 311.531 179.672C312.094 180.25 312.559 180.965 312.926 181.816C313.176 182.41 313.301 183.098 313.301 183.879V184.898ZM310.641 182.496C310.273 181.809 309.793 181.297 309.199 180.961C308.605 180.617 307.898 180.445 307.078 180.445C306.266 180.445 305.562 180.617 304.969 180.961C304.375 181.297 303.891 181.809 303.516 182.496H310.641ZM319.254 178.359V179.168C319.691 178.793 320.172 178.512 320.695 178.324C321.227 178.137 321.801 178.043 322.418 178.043C323.84 178.043 324.965 178.484 325.793 179.367C326.449 180.07 326.777 180.992 326.777 182.133V186.598C327.285 186.598 327.66 186.711 327.902 186.938C328.145 187.156 328.266 187.445 328.266 187.805C328.266 188.156 328.141 188.445 327.891 188.672C327.648 188.891 327.238 189 326.66 189H324.492C323.914 189 323.5 188.891 323.25 188.672C323.008 188.445 322.887 188.152 322.887 187.793C322.887 187.441 323.008 187.156 323.25 186.938C323.492 186.711 323.867 186.598 324.375 186.598V182.062C324.375 181.539 324.234 181.156 323.953 180.914C323.586 180.602 323.035 180.445 322.301 180.445C321.746 180.445 321.258 180.555 320.836 180.773C320.422 180.984 319.895 181.438 319.254 182.133V186.598C319.871 186.598 320.27 186.656 320.449 186.773C320.832 187.008 321.023 187.352 321.023 187.805C321.023 188.156 320.898 188.445 320.648 188.672C320.406 188.891 319.996 189 319.418 189H316.688C316.109 189 315.695 188.891 315.445 188.672C315.203 188.445 315.082 188.152 315.082 187.793C315.082 187.355 315.27 187.016 315.645 186.773C315.832 186.656 316.234 186.598 316.852 186.598V180.762C316.344 180.762 315.969 180.648 315.727 180.422C315.484 180.195 315.363 179.906 315.363 179.555C315.363 179.203 315.484 178.918 315.727 178.699C315.977 178.473 316.391 178.359 316.969 178.359H319.254ZM338.742 179.074V178.359H341.555C342.133 178.359 342.543 178.473 342.785 178.699C343.035 178.918 343.16 179.207 343.16 179.566C343.16 179.918 343.035 180.207 342.785 180.434C342.543 180.652 342.133 180.762 341.555 180.762H341.145V189.504C341.145 190.348 340.965 191.082 340.605 191.707C340.254 192.34 339.711 192.883 338.977 193.336C338.242 193.789 337.414 194.016 336.492 194.016H333.773C333.195 194.016 332.781 193.902 332.531 193.676C332.289 193.457 332.168 193.172 332.168 192.82C332.168 192.461 332.289 192.168 332.531 191.941C332.781 191.723 333.195 191.613 333.773 191.613H336.422C337.156 191.613 337.727 191.414 338.133 191.016C338.539 190.617 338.742 190.113 338.742 189.504V188.332C338.211 188.676 337.668 188.934 337.113 189.105C336.566 189.277 336.004 189.363 335.426 189.363C333.793 189.363 332.426 188.82 331.324 187.734C330.223 186.641 329.672 185.293 329.672 183.691C329.672 182.082 330.223 180.734 331.324 179.648C332.426 178.555 333.793 178.008 335.426 178.008C336.035 178.008 336.613 178.098 337.16 178.277C337.715 178.449 338.242 178.715 338.742 179.074ZM338.73 183.68C338.73 182.797 338.402 182.031 337.746 181.383C337.098 180.734 336.316 180.41 335.402 180.41C334.488 180.41 333.703 180.734 333.047 181.383C332.398 182.031 332.074 182.797 332.074 183.68C332.074 184.57 332.398 185.34 333.047 185.988C333.703 186.629 334.488 186.949 335.402 186.949C336.316 186.949 337.098 186.629 337.746 185.988C338.402 185.34 338.73 184.57 338.73 183.68ZM356.543 184.898H346.688C346.938 185.523 347.379 186.027 348.012 186.41C348.652 186.793 349.516 186.984 350.602 186.984C351.492 186.984 352.676 186.793 354.152 186.41C354.762 186.254 355.184 186.176 355.418 186.176C355.738 186.176 356.008 186.289 356.227 186.516C356.445 186.742 356.555 187.027 356.555 187.371C356.555 187.684 356.438 187.949 356.203 188.168C355.891 188.457 355.129 188.734 353.918 189C352.707 189.258 351.543 189.387 350.426 189.387C348.504 189.387 346.965 188.844 345.809 187.758C344.66 186.672 344.086 185.336 344.086 183.75C344.086 182.062 344.707 180.691 345.949 179.637C347.199 178.574 348.637 178.043 350.262 178.043C351.238 178.043 352.133 178.215 352.945 178.559C353.766 178.902 354.375 179.273 354.773 179.672C355.336 180.25 355.801 180.965 356.168 181.816C356.418 182.41 356.543 183.098 356.543 183.879V184.898ZM353.883 182.496C353.516 181.809 353.035 181.297 352.441 180.961C351.848 180.617 351.141 180.445 350.32 180.445C349.508 180.445 348.805 180.617 348.211 180.961C347.617 181.297 347.133 181.809 346.758 182.496H353.883ZM382.887 178.184H383.449C384.027 178.184 384.438 178.297 384.68 178.523C384.93 178.742 385.055 179.031 385.055 179.391C385.055 179.742 384.934 180.031 384.691 180.258C384.449 180.477 384.039 180.586 383.461 180.586H382.711L382.535 183.211H382.957C383.535 183.211 383.945 183.324 384.188 183.551C384.438 183.77 384.562 184.059 384.562 184.418C384.562 184.77 384.441 185.059 384.199 185.285C383.957 185.504 383.547 185.613 382.969 185.613H382.359L382.078 189.738C382.07 189.801 382.012 190.078 381.902 190.57C381.824 190.758 381.684 190.918 381.48 191.051C381.277 191.184 381.062 191.25 380.836 191.25C380.516 191.25 380.238 191.129 380.004 190.887C379.777 190.652 379.664 190.355 379.664 189.996C379.664 189.934 379.672 189.785 379.688 189.551L379.969 185.613H378.176L377.895 189.727C377.863 190.141 377.832 190.387 377.801 190.465C377.715 190.699 377.566 190.887 377.355 191.027C377.152 191.176 376.926 191.25 376.676 191.25C376.332 191.25 376.043 191.133 375.809 190.898C375.582 190.664 375.469 190.363 375.469 189.996C375.469 189.91 375.477 189.766 375.492 189.562L375.762 185.613H375.176C374.598 185.613 374.184 185.504 373.934 185.285C373.691 185.059 373.57 184.766 373.57 184.406C373.57 184.055 373.691 183.77 373.934 183.551C374.184 183.324 374.598 183.211 375.176 183.211H375.938L376.113 180.586H375.68C375.102 180.586 374.688 180.477 374.438 180.258C374.195 180.031 374.074 179.738 374.074 179.379C374.074 179.027 374.195 178.742 374.438 178.523C374.688 178.297 375.098 178.184 375.668 178.184H376.289L376.57 174.059C376.602 173.652 376.637 173.398 376.676 173.297C376.762 173.07 376.906 172.887 377.109 172.746C377.32 172.605 377.551 172.535 377.801 172.535C378.129 172.535 378.41 172.652 378.645 172.887C378.879 173.121 378.996 173.434 378.996 173.824C378.996 173.918 378.988 174.055 378.973 174.234L378.703 178.184H380.484L380.766 174.059C380.797 173.496 380.922 173.102 381.141 172.875C381.367 172.648 381.652 172.535 381.996 172.535C382.332 172.535 382.617 172.656 382.852 172.898C383.086 173.133 383.203 173.422 383.203 173.766C383.203 173.844 383.199 173.91 383.191 173.965L383.156 174.234L382.887 178.184ZM380.309 180.586H378.527L378.352 183.211H380.133L380.309 180.586ZM397.184 180.973C397.895 181.457 398.426 182.02 398.777 182.66C399.129 183.293 399.305 184.004 399.305 184.793C399.305 185.645 399.07 186.434 398.602 187.16C398.141 187.879 397.469 188.426 396.586 188.801C395.703 189.168 394.547 189.352 393.117 189.352C391.258 189.352 389.859 189.062 388.922 188.484C388.398 188.156 388.137 187.766 388.137 187.312C388.137 186.969 388.25 186.68 388.477 186.445C388.711 186.203 388.992 186.082 389.32 186.082C389.547 186.082 389.781 186.16 390.023 186.316C390.367 186.551 390.691 186.707 390.996 186.785C391.465 186.895 392.109 186.949 392.93 186.949C394.328 186.949 395.34 186.77 395.965 186.41C396.59 186.043 396.902 185.527 396.902 184.863C396.902 184.371 396.719 183.898 396.352 183.445C395.992 182.984 395.508 182.629 394.898 182.379C394.547 182.238 393.953 182.141 393.117 182.086C392.719 182.062 392.41 181.941 392.191 181.723C391.98 181.496 391.875 181.219 391.875 180.891C391.875 180.547 391.992 180.258 392.227 180.023C392.461 179.789 392.758 179.672 393.117 179.672C393.914 179.672 394.34 179.668 394.395 179.66C394.707 179.629 395.02 179.527 395.332 179.355C395.645 179.184 395.895 178.949 396.082 178.652C396.277 178.348 396.375 178.035 396.375 177.715C396.375 177.207 396.148 176.77 395.695 176.402C395.25 176.027 394.578 175.84 393.68 175.84C392.523 175.84 391.641 176.176 391.031 176.848C390.852 177.043 390.707 177.168 390.598 177.223C390.434 177.309 390.25 177.352 390.047 177.352C389.719 177.352 389.438 177.234 389.203 177C388.969 176.766 388.852 176.477 388.852 176.133C388.852 175.594 389.211 175.07 389.93 174.562C390.977 173.82 392.285 173.449 393.855 173.449C395.34 173.449 396.531 173.871 397.43 174.715C398.328 175.559 398.777 176.574 398.777 177.762C398.777 178.379 398.645 178.957 398.379 179.496C398.113 180.027 397.715 180.52 397.184 180.973Z" fill="white"/>
<path d="M457.199 6.19922V15.5977H462.379V13.3242C462.379 12.7461 462.488 12.3359 462.707 12.0938C462.934 11.8438 463.227 11.7188 463.586 11.7188C463.938 11.7188 464.223 11.8438 464.441 12.0938C464.668 12.3359 464.781 12.7461 464.781 13.3242V18H453.402C452.824 18 452.41 17.8906 452.16 17.6719C451.918 17.4453 451.797 17.1523 451.797 16.793C451.797 16.4414 451.918 16.1562 452.16 15.9375C452.41 15.7109 452.824 15.5977 453.402 15.5977H454.797V6.19922H453.402C452.824 6.19922 452.41 6.08984 452.16 5.87109C451.918 5.64453 451.797 5.35156 451.797 4.99219C451.797 4.63281 451.918 4.34375 452.16 4.125C452.41 3.89844 452.824 3.78516 453.402 3.78516L458.605 3.79688C459.184 3.79688 459.594 3.90625 459.836 4.125C460.086 4.34375 460.211 4.63281 460.211 4.99219C460.211 5.35156 460.086 5.64453 459.836 5.87109C459.594 6.08984 459.184 6.19922 458.605 6.19922H457.199ZM477.719 7.35938V15.5977C478.227 15.5977 478.602 15.7109 478.844 15.9375C479.086 16.1641 479.207 16.4531 479.207 16.8047C479.207 17.1562 479.082 17.4453 478.832 17.6719C478.59 17.8906 478.18 18 477.602 18H475.316V17.4492C474.629 17.7617 473.973 17.9961 473.348 18.1523C472.723 18.3086 472.129 18.3867 471.566 18.3867C470.777 18.3867 470.094 18.2227 469.516 17.8945C468.938 17.5586 468.48 17.0977 468.145 16.5117C467.902 16.0898 467.781 15.5625 467.781 14.9297V9.76172H467.371C466.793 9.76172 466.379 9.65234 466.129 9.43359C465.887 9.20703 465.766 8.91406 465.766 8.55469C465.766 8.20312 465.887 7.91797 466.129 7.69922C466.379 7.47266 466.793 7.35938 467.371 7.35938H470.184V14.5078C470.184 15.0156 470.305 15.3906 470.547 15.6328C470.797 15.8672 471.176 15.9844 471.684 15.9844C472.168 15.9844 472.688 15.8906 473.242 15.7031C473.805 15.5078 474.496 15.1602 475.316 14.6602V9.76172H474.449C473.871 9.76172 473.457 9.65234 473.207 9.43359C472.965 9.20703 472.844 8.91406 472.844 8.55469C472.844 8.20312 472.965 7.91797 473.207 7.69922C473.457 7.47266 473.871 7.35938 474.449 7.35938H477.719ZM484.598 7.35938V8.16797C485.035 7.79297 485.516 7.51172 486.039 7.32422C486.57 7.13672 487.145 7.04297 487.762 7.04297C489.184 7.04297 490.309 7.48438 491.137 8.36719C491.793 9.07031 492.121 9.99219 492.121 11.1328V15.5977C492.629 15.5977 493.004 15.7109 493.246 15.9375C493.488 16.1562 493.609 16.4453 493.609 16.8047C493.609 17.1562 493.484 17.4453 493.234 17.6719C492.992 17.8906 492.582 18 492.004 18H489.836C489.258 18 488.844 17.8906 488.594 17.6719C488.352 17.4453 488.23 17.1523 488.23 16.793C488.23 16.4414 488.352 16.1562 488.594 15.9375C488.836 15.7109 489.211 15.5977 489.719 15.5977V11.0625C489.719 10.5391 489.578 10.1562 489.297 9.91406C488.93 9.60156 488.379 9.44531 487.645 9.44531C487.09 9.44531 486.602 9.55469 486.18 9.77344C485.766 9.98438 485.238 10.4375 484.598 11.1328V15.5977C485.215 15.5977 485.613 15.6562 485.793 15.7734C486.176 16.0078 486.367 16.3516 486.367 16.8047C486.367 17.1562 486.242 17.4453 485.992 17.6719C485.75 17.8906 485.34 18 484.762 18H482.031C481.453 18 481.039 17.8906 480.789 17.6719C480.547 17.4453 480.426 17.1523 480.426 16.793C480.426 16.3555 480.613 16.0156 480.988 15.7734C481.176 15.6562 481.578 15.5977 482.195 15.5977V9.76172C481.688 9.76172 481.312 9.64844 481.07 9.42188C480.828 9.19531 480.707 8.90625 480.707 8.55469C480.707 8.20312 480.828 7.91797 481.07 7.69922C481.32 7.47266 481.734 7.35938 482.312 7.35938H484.598ZM505.188 7.79297C505.477 7.51953 505.773 7.38281 506.078 7.38281C506.422 7.38281 506.703 7.50781 506.922 7.75781C507.148 8 507.262 8.40625 507.262 8.97656V10.5234C507.262 11.1016 507.148 11.5117 506.922 11.7539C506.703 11.9961 506.414 12.1172 506.055 12.1172C505.727 12.1172 505.449 12.0234 505.223 11.8359C505.059 11.6953 504.93 11.4102 504.836 10.9805C504.742 10.543 504.516 10.2188 504.156 10.0078C503.523 9.63281 502.715 9.44531 501.73 9.44531C500.598 9.44531 499.688 9.77734 499 10.4414C498.32 11.1055 497.98 11.9453 497.98 12.9609C497.98 13.8984 498.309 14.6406 498.965 15.1875C499.621 15.7266 500.711 15.9961 502.234 15.9961C503.234 15.9961 504.051 15.8945 504.684 15.6914C505.059 15.5664 505.414 15.3555 505.75 15.0586C506.086 14.7539 506.391 14.6016 506.664 14.6016C506.992 14.6016 507.273 14.7227 507.508 14.9648C507.75 15.207 507.871 15.4922 507.871 15.8203C507.871 16.3516 507.508 16.8555 506.781 17.332C505.703 18.043 504.125 18.3984 502.047 18.3984C500.18 18.3984 498.727 18.0117 497.688 17.2383C496.281 16.1992 495.578 14.7773 495.578 12.9727C495.578 11.2617 496.148 9.84766 497.289 8.73047C498.43 7.60547 499.918 7.04297 501.754 7.04297C502.418 7.04297 503.035 7.10547 503.605 7.23047C504.176 7.35547 504.703 7.54297 505.188 7.79297ZM513.379 2.80078V7.92188C513.879 7.625 514.383 7.40625 514.891 7.26562C515.406 7.11719 515.926 7.04297 516.449 7.04297C517.277 7.04297 518.016 7.18359 518.664 7.46484C519.312 7.74609 519.848 8.19141 520.27 8.80078C520.699 9.40234 520.914 10.1641 520.914 11.0859V15.5977C521.523 15.5977 521.922 15.6562 522.109 15.7734C522.484 16.0156 522.672 16.3594 522.672 16.8047C522.672 17.1562 522.551 17.4453 522.309 17.6719C522.066 17.8906 521.656 18 521.078 18H518.336C517.766 18 517.355 17.8906 517.105 17.6719C516.863 17.4453 516.742 17.1523 516.742 16.793C516.742 16.3555 516.93 16.0156 517.305 15.7734C517.5 15.6484 517.898 15.5898 518.5 15.5977V11.25C518.5 10.6328 518.359 10.1992 518.078 9.94922C517.711 9.61328 517.168 9.44531 516.449 9.44531C515.918 9.44531 515.445 9.55078 515.031 9.76172C514.625 9.96484 514.074 10.4102 513.379 11.0977V15.5977C513.996 15.5977 514.395 15.6562 514.574 15.7734C514.957 16.0156 515.148 16.3594 515.148 16.8047C515.148 17.1562 515.023 17.4453 514.773 17.6719C514.531 17.8906 514.121 18 513.543 18H510.812C510.234 18 509.82 17.8906 509.57 17.6719C509.328 17.4453 509.207 17.1523 509.207 16.793C509.207 16.3555 509.398 16.0156 509.781 15.7734C509.969 15.6484 510.367 15.5898 510.977 15.5977V5.20312H510.566C509.988 5.20312 509.574 5.09375 509.324 4.875C509.082 4.64844 508.961 4.35547 508.961 3.99609C508.961 3.64453 509.082 3.35938 509.324 3.14062C509.574 2.91406 509.988 2.80078 510.566 2.80078H513.379Z" fill="white"/>
<path d="M3.576 151.264V149.224H1.464V145.936H4.512V148H9.936V145.096H3.576V143.056H1.464V137.752H3.576V135.688H10.872V137.752H13.008V149.224H10.872V151.264H3.576ZM4.512 141.856H9.936V138.976H4.512V141.856ZM15.9249 149.152V145.864H18.9729V149.152H15.9249ZM15.9249 145.12V141.856H18.9729V145.12H15.9249ZM24.0135 151.264V149.224H21.9015V137.752H24.0135V135.688H31.3095V137.752H33.4455V149.224H31.3095V151.264H24.0135ZM24.9495 148H30.3735V138.976H24.9495V148ZM38.4744 151.264V149.224H36.3624V137.752H38.4744V135.688H45.7704V137.752H47.9064V149.224H45.7704V151.264H38.4744ZM39.4104 148H44.8344V138.976H39.4104V148ZM50.8234 151.264V139.792H52.9354V137.752H55.0474V135.688H58.1194V137.752H60.2314V139.792H62.3674V151.264H59.2954V147.16H53.8714V151.264H50.8234ZM53.8714 143.872H59.2954V141.016H57.1834V138.976H55.9834V141.016H53.8714V143.872ZM65.2843 151.264V137.752H67.3963V135.688H70.4443V137.752H72.5803V141.856H73.7563V137.752H75.8923V135.688H78.9643V137.752H81.0523V151.264H78.0283V138.976H76.8283V143.056H74.6923V149.224H71.6443V143.056H69.5083V138.976H68.3323V151.264H65.2843Z" fill="#00FF00"/>
<path d="M139.688 84.264V71.976H138.512V74.016H135.464V70.752H137.576V68.688H140.624V70.752H142.76V84.264H139.688ZM147.795 84.264V82.224H145.683V70.752H147.795V68.688H155.091V70.752H157.227V82.224H155.091V84.264H147.795ZM148.731 81H154.155V71.976H148.731V81ZM160.144 82.152V78.864H163.192V82.152H160.144ZM160.144 78.12V74.856H163.192V78.12H160.144ZM168.232 84.264V82.224H166.12V70.752H168.232V68.688H175.528V70.752H177.664V82.224H175.528V84.264H168.232ZM169.168 81H174.592V71.976H169.168V81ZM182.693 84.264V82.224H180.581V70.752H182.693V68.688H189.989V70.752H192.125V82.224H189.989V84.264H182.693ZM183.629 81H189.053V71.976H183.629V81ZM195.042 84.264V72.792H197.154V70.752H199.266V68.688H202.338V70.752H204.45V72.792H206.586V84.264H203.514V80.16H198.09V84.264H195.042ZM198.09 76.872H203.514V74.016H201.402V71.976H200.202V74.016H198.09V76.872ZM209.503 84.264V70.752H211.615V68.688H214.663V70.752H216.799V74.856H217.975V70.752H220.111V68.688H223.183V70.752H225.271V84.264H222.247V71.976H221.047V76.056H218.911V82.224H215.863V76.056H213.727V71.976H212.551V84.264H209.503Z" fill="#00FF00"/>
<path d="M377.688 146.264V133.976H376.512V136.016H373.464V132.752H375.576V130.688H378.624V132.752H380.76V146.264H377.688ZM385.795 146.264V144.224H383.683V138.872H385.795V136.856H392.155V133.976H386.731V136.016H383.683V132.752H385.795V130.688H393.091V132.752H395.227V138.056H393.091V140.096H386.731V143H392.155V140.936H395.227V144.224H393.091V146.264H385.795ZM398.144 144.152V140.864H401.192V144.152H398.144ZM398.144 140.12V136.856H401.192V140.12H398.144ZM406.232 146.264V144.224H404.12V132.752H406.232V130.688H413.528V132.752H415.664V144.224H413.528V146.264H406.232ZM407.168 143H412.592V133.976H407.168V143ZM420.693 146.264V144.224H418.581V132.752H420.693V130.688H427.989V132.752H430.125V144.224H427.989V146.264H420.693ZM421.629 143H427.053V133.976H421.629V143ZM433.042 146.264V132.752H435.154V130.688H442.45V132.752H444.586V140.096H442.45V142.16H436.09V146.264H433.042ZM436.09 138.872H441.514V133.976H436.09V138.872ZM447.503 146.264V132.752H449.615V130.688H452.663V132.752H454.799V136.856H455.975V132.752H458.111V130.688H461.183V132.752H463.271V146.264H460.247V133.976H459.047V138.056H456.911V144.224H453.863V138.056H451.727V133.976H450.551V146.264H447.503Z" fill="#00FF00"/>
<path d="M795.576 83.264V81.224H793.464V77.936H796.512V80H801.936V79.16H797.688V77.096H795.576V75.056H793.464V69.752H795.576V67.688H802.872V69.752H805.008V75.056H801.936V70.976H796.512V73.856H798.624V75.872H802.872V77.936H805.008V81.224H802.872V83.264H795.576ZM807.925 81.152V77.864H810.973V81.152H807.925ZM807.925 77.12V73.856H810.973V77.12H807.925ZM816.014 83.264V81.224H813.902V69.752H816.014V67.688H823.31V69.752H825.446V81.224H823.31V83.264H816.014ZM816.95 80H822.374V70.976H816.95V80ZM830.474 83.264V81.224H828.362V69.752H830.474V67.688H837.77V69.752H839.906V81.224H837.77V83.264H830.474ZM831.41 80H836.834V70.976H831.41V80ZM842.823 83.264V69.752H844.935V67.688H852.231V69.752H854.367V77.096H852.231V79.16H845.871V83.264H842.823ZM845.871 75.872H851.295V70.976H845.871V75.872ZM857.284 83.264V69.752H859.396V67.688H862.444V69.752H864.58V73.856H865.756V69.752H867.892V67.688H870.964V69.752H873.052V83.264H870.028V70.976H868.828V75.056H866.692V81.224H863.644V75.056H861.508V70.976H860.332V83.264H857.284Z" fill="#00FF00"/>
<path d="M460.918 48.418H454.449L452.352 52.0156H454.238C454.465 52.0156 454.617 52.0508 454.695 52.1211C454.773 52.1836 454.812 52.2773 454.812 52.4023C454.812 52.5664 454.746 52.707 454.613 52.8242C454.48 52.9414 454.285 53 454.027 53H450.359C450.141 53 449.992 52.9648 449.914 52.8945C449.836 52.8242 449.797 52.7266 449.797 52.6016C449.797 52.4453 449.859 52.3086 449.984 52.1914C450.117 52.0742 450.312 52.0156 450.57 52.0156H451.32L458.176 40.2734H455.27C455.051 40.2734 454.902 40.2422 454.824 40.1797C454.746 40.1094 454.707 40.0078 454.707 39.875C454.707 39.7188 454.77 39.582 454.895 39.4648C455.027 39.3477 455.223 39.2891 455.48 39.2891H460.426L462.535 52.0156H463.297C463.516 52.0156 463.664 52.0508 463.742 52.1211C463.82 52.1836 463.859 52.2773 463.859 52.4023C463.859 52.5664 463.793 52.707 463.66 52.8242C463.535 52.9414 463.344 53 463.086 53H459.406C459.188 53 459.039 52.9648 458.961 52.8945C458.883 52.8242 458.844 52.7266 458.844 52.6016C458.844 52.4453 458.906 52.3086 459.031 52.1914C459.164 52.0742 459.359 52.0156 459.617 52.0156H461.504L460.918 48.418ZM460.754 47.4336L459.559 40.2734H459.195L455.023 47.4336H460.754ZM471.594 42.8516L471.066 45.3359C472.621 44.1641 473.746 43.418 474.441 43.0977C475.145 42.7695 475.762 42.6055 476.293 42.6055C476.824 42.6055 477.301 42.7852 477.723 43.1445C478.152 43.5039 478.367 43.7852 478.367 43.9883C478.367 44.1523 478.305 44.2969 478.18 44.4219C478.055 44.5469 477.906 44.6094 477.734 44.6094C477.656 44.6094 477.594 44.5977 477.547 44.5742C477.5 44.543 477.418 44.4531 477.301 44.3047C477.09 44.0312 476.891 43.8438 476.703 43.7422C476.523 43.6406 476.34 43.5898 476.152 43.5898C475.715 43.5898 475.156 43.7617 474.477 44.1055C473.805 44.4492 472.578 45.2891 470.797 46.625L469.648 52.0156H474.008C474.234 52.0156 474.387 52.0508 474.465 52.1211C474.543 52.1836 474.582 52.2773 474.582 52.4023C474.582 52.5664 474.516 52.707 474.383 52.8242C474.25 52.9414 474.055 53 473.797 53H466.074C465.855 53 465.707 52.9688 465.629 52.9062C465.551 52.8359 465.512 52.7422 465.512 52.625C465.512 52.4688 465.574 52.3359 465.699 52.2266C465.824 52.1094 466.016 52.0508 466.273 52.0508H468.652L470.398 43.8477H468.582C468.363 43.8477 468.215 43.8125 468.137 43.7422C468.059 43.6719 468.02 43.5781 468.02 43.4609C468.02 43.2969 468.082 43.1562 468.207 43.0391C468.34 42.9141 468.535 42.8516 468.793 42.8516H471.594ZM485.211 42.8516H490.555C490.781 42.8516 490.93 42.8828 491 42.9453C491.078 43.0078 491.117 43.1055 491.117 43.2383C491.117 43.3789 491.09 43.4961 491.035 43.5898C490.98 43.6758 490.914 43.7383 490.836 43.7773C490.734 43.8242 490.57 43.8477 490.344 43.8477H485L483.605 50.3984C483.566 50.5859 483.547 50.7578 483.547 50.9141C483.547 51.2891 483.738 51.6328 484.121 51.9453C484.512 52.25 485.078 52.4023 485.82 52.4023C486.516 52.4023 487.27 52.3047 488.082 52.1094C488.902 51.9141 489.555 51.6875 490.039 51.4297C490.219 51.3281 490.359 51.2773 490.461 51.2773C490.57 51.2773 490.66 51.3164 490.73 51.3945C490.801 51.4648 490.836 51.5625 490.836 51.6875C490.836 51.8516 490.738 52.0039 490.543 52.1445C490.066 52.4883 489.227 52.8008 488.023 53.082C487.156 53.2852 486.352 53.3867 485.609 53.3867C484.633 53.3867 483.875 53.1602 483.336 52.707C482.805 52.2539 482.539 51.707 482.539 51.0664C482.539 50.8633 482.562 50.6406 482.609 50.3984L484.004 43.8477H482.188C481.969 43.8477 481.82 43.8125 481.742 43.7422C481.664 43.6719 481.625 43.5742 481.625 43.4492C481.625 43.293 481.688 43.1562 481.812 43.0391C481.945 42.9141 482.141 42.8516 482.398 42.8516H484.215L484.836 39.9453C484.883 39.7109 484.965 39.543 485.082 39.4414C485.199 39.3398 485.332 39.2891 485.48 39.2891C485.59 39.2891 485.68 39.3242 485.75 39.3945C485.828 39.4648 485.867 39.5508 485.867 39.6523C485.867 39.7148 485.852 39.8125 485.82 39.9453L485.211 42.8516ZM504.723 43.4961C504.77 43.2695 504.852 43.1055 504.969 43.0039C505.086 42.9023 505.215 42.8516 505.355 42.8516C505.473 42.8516 505.566 42.8906 505.637 42.9688C505.715 43.0391 505.754 43.1211 505.754 43.2148C505.754 43.2852 505.738 43.3867 505.707 43.5195L505.355 45.207C505.301 45.4414 505.215 45.6094 505.098 45.7109C504.988 45.8125 504.859 45.8633 504.711 45.8633C504.602 45.8633 504.508 45.8281 504.43 45.7578C504.359 45.6875 504.324 45.6055 504.324 45.5117L504.336 45.3125C504.344 45.25 504.348 45.1914 504.348 45.1367C504.348 44.7148 504.16 44.3711 503.785 44.1055C503.23 43.6992 502.453 43.4961 501.453 43.4961C500.25 43.4961 499.293 43.7539 498.582 44.2695C498.051 44.6523 497.785 45.0586 497.785 45.4883C497.785 45.9102 498.016 46.2539 498.477 46.5195C498.812 46.707 499.523 46.8633 500.609 46.9883C501.695 47.1055 502.473 47.2422 502.941 47.3984C503.598 47.6094 504.086 47.9141 504.406 48.3125C504.727 48.7109 504.887 49.1602 504.887 49.6602C504.887 50.2383 504.676 50.8164 504.254 51.3945C503.832 51.9727 503.188 52.4492 502.32 52.8242C501.453 53.1992 500.477 53.3867 499.391 53.3867C498.617 53.3867 497.934 53.2852 497.34 53.082C496.746 52.8867 496.242 52.5938 495.828 52.2031C495.766 52.5234 495.688 52.7305 495.594 52.8242C495.461 52.9414 495.316 53 495.16 53C495.051 53 494.957 52.9648 494.879 52.8945C494.809 52.8242 494.773 52.7383 494.773 52.6367C494.773 52.5664 494.785 52.4688 494.809 52.3438L495.242 50.3164C495.289 50.082 495.371 49.9141 495.488 49.8125C495.605 49.7109 495.738 49.6602 495.887 49.6602C495.996 49.6602 496.086 49.6992 496.156 49.7773C496.234 49.8477 496.273 49.9336 496.273 50.0352C496.273 50.0977 496.262 50.1875 496.238 50.3047C496.215 50.4219 496.203 50.5078 496.203 50.5625C496.203 51.0078 496.434 51.3984 496.895 51.7344C497.504 52.1797 498.395 52.4023 499.566 52.4023C500.965 52.4023 502.031 52.125 502.766 51.5703C503.5 51.0156 503.867 50.4648 503.867 49.918C503.867 49.6211 503.758 49.332 503.539 49.0508C503.328 48.7617 503.004 48.5352 502.566 48.3711C502.129 48.1992 501.41 48.0625 500.41 47.9609C499.418 47.8516 498.691 47.7188 498.23 47.5625C497.777 47.3984 497.422 47.1523 497.164 46.8242C496.906 46.4961 496.777 46.1211 496.777 45.6992C496.777 45.207 496.945 44.7266 497.281 44.2578C497.617 43.7812 498.176 43.3711 498.957 43.0273C499.746 42.6758 500.629 42.5 501.605 42.5C502.285 42.5 502.883 42.582 503.398 42.7461C503.922 42.9102 504.363 43.1602 504.723 43.4961ZM532.59 53H531.055L530.328 43.2617L525.523 53H523.977L525.242 40.2734H524.879C524.66 40.2734 524.508 40.2422 524.422 40.1797C524.344 40.1094 524.305 40.0078 524.305 39.875C524.305 39.7188 524.371 39.582 524.504 39.4648C524.637 39.3477 524.832 39.2891 525.09 39.2891H528.746C528.965 39.2891 529.113 39.3242 529.191 39.3945C529.27 39.457 529.309 39.5508 529.309 39.6758C529.309 39.8398 529.242 39.9805 529.109 40.0977C528.984 40.2148 528.793 40.2734 528.535 40.2734H526.227L525.066 51.875L529.766 42.3242H531.266L531.969 51.875L535.707 40.2734H533.398C533.18 40.2734 533.031 40.2422 532.953 40.1797C532.875 40.1094 532.836 40.0078 532.836 39.875C532.836 39.7188 532.898 39.582 533.023 39.4648C533.156 39.3477 533.352 39.2891 533.609 39.2891H537.254C537.473 39.2891 537.621 39.3242 537.699 39.3945C537.777 39.457 537.816 39.5508 537.816 39.6758C537.816 39.793 537.777 39.9062 537.699 40.0156C537.621 40.1172 537.527 40.1875 537.418 40.2266C537.34 40.2578 537.094 40.2734 536.68 40.2734L532.59 53ZM549.055 48.1602H539.023C539 48.4023 538.988 48.5859 538.988 48.7109C538.988 49.7812 539.352 50.6641 540.078 51.3594C540.805 52.0547 541.789 52.4023 543.031 52.4023C543.758 52.4023 544.547 52.2852 545.398 52.0508C546.25 51.8086 546.98 51.4844 547.59 51.0781C547.77 50.9609 547.914 50.9023 548.023 50.9023C548.125 50.9023 548.211 50.9414 548.281 51.0195C548.352 51.0898 548.387 51.1836 548.387 51.3008C548.387 51.4414 548.324 51.5742 548.199 51.6992C547.84 52.082 547.121 52.4609 546.043 52.8359C544.965 53.2031 543.871 53.3867 542.762 53.3867C541.324 53.3867 540.168 52.9609 539.293 52.1094C538.426 51.2578 537.992 50.1758 537.992 48.8633C537.992 47.9961 538.18 47.1797 538.555 46.4141C538.93 45.6406 539.422 44.9766 540.031 44.4219C540.648 43.8594 541.355 43.3984 542.152 43.0391C542.957 42.6797 543.832 42.5 544.777 42.5C546.121 42.5 547.199 42.8945 548.012 43.6836C548.832 44.4727 549.242 45.4805 549.242 46.707C549.242 47.1133 549.18 47.5977 549.055 48.1602ZM548.258 47.1641C548.297 46.0859 547.977 45.2031 547.297 44.5156C546.609 43.8359 545.688 43.4961 544.531 43.4961C543.406 43.4961 542.355 43.8281 541.379 44.4922C540.402 45.1562 539.688 46.0469 539.234 47.1641H548.258ZM562.379 43.4961C562.426 43.2695 562.508 43.1055 562.625 43.0039C562.742 42.9023 562.871 42.8516 563.012 42.8516C563.129 42.8516 563.223 42.8906 563.293 42.9688C563.371 43.0391 563.41 43.1211 563.41 43.2148C563.41 43.2852 563.395 43.3867 563.363 43.5195L563.012 45.207C562.957 45.4414 562.871 45.6094 562.754 45.7109C562.645 45.8125 562.516 45.8633 562.367 45.8633C562.258 45.8633 562.164 45.8281 562.086 45.7578C562.016 45.6875 561.98 45.6055 561.98 45.5117L561.992 45.3125C562 45.25 562.004 45.1914 562.004 45.1367C562.004 44.7148 561.816 44.3711 561.441 44.1055C560.887 43.6992 560.109 43.4961 559.109 43.4961C557.906 43.4961 556.949 43.7539 556.238 44.2695C555.707 44.6523 555.441 45.0586 555.441 45.4883C555.441 45.9102 555.672 46.2539 556.133 46.5195C556.469 46.707 557.18 46.8633 558.266 46.9883C559.352 47.1055 560.129 47.2422 560.598 47.3984C561.254 47.6094 561.742 47.9141 562.062 48.3125C562.383 48.7109 562.543 49.1602 562.543 49.6602C562.543 50.2383 562.332 50.8164 561.91 51.3945C561.488 51.9727 560.844 52.4492 559.977 52.8242C559.109 53.1992 558.133 53.3867 557.047 53.3867C556.273 53.3867 555.59 53.2852 554.996 53.082C554.402 52.8867 553.898 52.5938 553.484 52.2031C553.422 52.5234 553.344 52.7305 553.25 52.8242C553.117 52.9414 552.973 53 552.816 53C552.707 53 552.613 52.9648 552.535 52.8945C552.465 52.8242 552.43 52.7383 552.43 52.6367C552.43 52.5664 552.441 52.4688 552.465 52.3438L552.898 50.3164C552.945 50.082 553.027 49.9141 553.145 49.8125C553.262 49.7109 553.395 49.6602 553.543 49.6602C553.652 49.6602 553.742 49.6992 553.812 49.7773C553.891 49.8477 553.93 49.9336 553.93 50.0352C553.93 50.0977 553.918 50.1875 553.895 50.3047C553.871 50.4219 553.859 50.5078 553.859 50.5625C553.859 51.0078 554.09 51.3984 554.551 51.7344C555.16 52.1797 556.051 52.4023 557.223 52.4023C558.621 52.4023 559.688 52.125 560.422 51.5703C561.156 51.0156 561.523 50.4648 561.523 49.918C561.523 49.6211 561.414 49.332 561.195 49.0508C560.984 48.7617 560.66 48.5352 560.223 48.3711C559.785 48.1992 559.066 48.0625 558.066 47.9609C557.074 47.8516 556.348 47.7188 555.887 47.5625C555.434 47.3984 555.078 47.1523 554.82 46.8242C554.562 46.4961 554.434 46.1211 554.434 45.6992C554.434 45.207 554.602 44.7266 554.938 44.2578C555.273 43.7812 555.832 43.3711 556.613 43.0273C557.402 42.6758 558.285 42.5 559.262 42.5C559.941 42.5 560.539 42.582 561.055 42.7461C561.578 42.9102 562.02 43.1602 562.379 43.4961ZM571.695 42.8516H577.039C577.266 42.8516 577.414 42.8828 577.484 42.9453C577.562 43.0078 577.602 43.1055 577.602 43.2383C577.602 43.3789 577.574 43.4961 577.52 43.5898C577.465 43.6758 577.398 43.7383 577.32 43.7773C577.219 43.8242 577.055 43.8477 576.828 43.8477H571.484L570.09 50.3984C570.051 50.5859 570.031 50.7578 570.031 50.9141C570.031 51.2891 570.223 51.6328 570.605 51.9453C570.996 52.25 571.562 52.4023 572.305 52.4023C573 52.4023 573.754 52.3047 574.566 52.1094C575.387 51.9141 576.039 51.6875 576.523 51.4297C576.703 51.3281 576.844 51.2773 576.945 51.2773C577.055 51.2773 577.145 51.3164 577.215 51.3945C577.285 51.4648 577.32 51.5625 577.32 51.6875C577.32 51.8516 577.223 52.0039 577.027 52.1445C576.551 52.4883 575.711 52.8008 574.508 53.082C573.641 53.2852 572.836 53.3867 572.094 53.3867C571.117 53.3867 570.359 53.1602 569.82 52.707C569.289 52.2539 569.023 51.707 569.023 51.0664C569.023 50.8633 569.047 50.6406 569.094 50.3984L570.488 43.8477H568.672C568.453 43.8477 568.305 43.8125 568.227 43.7422C568.148 43.6719 568.109 43.5742 568.109 43.4492C568.109 43.293 568.172 43.1562 568.297 43.0391C568.43 42.9141 568.625 42.8516 568.883 42.8516H570.699L571.32 39.9453C571.367 39.7109 571.449 39.543 571.566 39.4414C571.684 39.3398 571.816 39.2891 571.965 39.2891C572.074 39.2891 572.164 39.3242 572.234 39.3945C572.312 39.4648 572.352 39.5508 572.352 39.6523C572.352 39.7148 572.336 39.8125 572.305 39.9453L571.695 42.8516Z" fill="white"/>
<circle cx="1188.5" cy="109" r="10.5" transform="rotate(180 1188.5 109)" stroke="white" stroke-width="7"/>
<line x1="1123" y1="27.5" x2="1016" y2="27.5" stroke="white" stroke-width="3"/>
<line x1="1199.94" y1="105.061" x2="1121.94" y2="27.0607" stroke="white" stroke-width="3"/>
<path d="M1026.21 8.17969L1023.98 15H1021.29L1019.86 3.19922C1019.49 3.15234 1019.21 3.02734 1019.02 2.82422C1018.84 2.61328 1018.74 2.34766 1018.74 2.02734C1018.74 1.65234 1018.86 1.35156 1019.11 1.125C1019.36 0.898438 1019.77 0.785156 1020.35 0.785156L1023.55 0.796875C1024.12 0.796875 1024.54 0.90625 1024.78 1.125C1025.03 1.34375 1025.15 1.63281 1025.15 1.99219C1025.15 2.35156 1025.03 2.64453 1024.78 2.87109C1024.54 3.08984 1024.12 3.19922 1023.55 3.19922H1022.29L1023.09 9.91406L1024.98 4.32422H1027.47L1029.35 9.91406L1030.14 3.19922H1028.89C1028.31 3.19922 1027.9 3.08984 1027.65 2.87109C1027.41 2.64453 1027.29 2.35156 1027.29 1.99219C1027.29 1.63281 1027.41 1.34375 1027.65 1.125C1027.9 0.898438 1028.31 0.785156 1028.89 0.785156L1032.08 0.796875C1032.66 0.796875 1033.07 0.90625 1033.31 1.125C1033.56 1.34375 1033.68 1.63281 1033.68 1.99219C1033.68 2.29688 1033.59 2.55859 1033.39 2.77734C1033.2 2.99609 1032.91 3.13672 1032.55 3.19922L1031.16 15H1028.52L1026.21 8.17969ZM1040.12 4.35938V5.85938C1041.12 5.13281 1041.92 4.64844 1042.5 4.40625C1043.08 4.16406 1043.63 4.04297 1044.14 4.04297C1044.92 4.04297 1045.68 4.33203 1046.41 4.91016C1046.91 5.30078 1047.16 5.69922 1047.16 6.10547C1047.16 6.44922 1047.04 6.74219 1046.8 6.98438C1046.56 7.21875 1046.28 7.33594 1045.94 7.33594C1045.64 7.33594 1045.33 7.1875 1045 6.89062C1044.68 6.59375 1044.38 6.44531 1044.12 6.44531C1043.79 6.44531 1043.29 6.65625 1042.61 7.07812C1041.95 7.5 1041.12 8.13281 1040.12 8.97656V12.5977H1043.54C1044.12 12.5977 1044.53 12.7109 1044.77 12.9375C1045.02 13.1562 1045.14 13.4453 1045.14 13.8047C1045.14 14.1562 1045.02 14.4453 1044.77 14.6719C1044.53 14.8906 1044.12 15 1043.54 15H1036.29C1035.71 15 1035.29 14.8906 1035.04 14.6719C1034.8 14.4453 1034.68 14.1523 1034.68 13.793C1034.68 13.4414 1034.8 13.1562 1035.04 12.9375C1035.29 12.7109 1035.71 12.5977 1036.29 12.5977H1037.71V6.76172H1036.85C1036.27 6.76172 1035.86 6.65234 1035.61 6.43359C1035.36 6.20703 1035.24 5.91406 1035.24 5.55469C1035.24 5.20312 1035.36 4.91797 1035.61 4.69922C1035.86 4.47266 1036.27 4.35938 1036.85 4.35938H1040.12ZM1057.19 15V14.4375C1056.59 14.7578 1055.93 14.9961 1055.2 15.1523C1054.47 15.3164 1053.81 15.3984 1053.22 15.3984C1051.93 15.3984 1050.88 15.0586 1050.08 14.3789C1049.27 13.6914 1048.87 12.9336 1048.87 12.1055C1048.87 11.0977 1049.38 10.1641 1050.41 9.30469C1051.44 8.4375 1052.86 8.00391 1054.67 8.00391C1055.4 8.00391 1056.24 8.08203 1057.19 8.23828V7.66406C1057.19 7.30469 1057.04 7.01172 1056.72 6.78516C1056.42 6.55859 1055.83 6.44531 1054.96 6.44531C1054.25 6.44531 1053.33 6.58594 1052.2 6.86719C1051.78 6.96875 1051.45 7.01953 1051.21 7.01953C1050.89 7.01953 1050.62 6.90625 1050.39 6.67969C1050.18 6.44531 1050.07 6.14844 1050.07 5.78906C1050.07 5.58594 1050.11 5.41016 1050.18 5.26172C1050.26 5.11328 1050.37 4.99609 1050.51 4.91016C1050.65 4.81641 1050.95 4.70703 1051.39 4.58203C1051.98 4.41797 1052.59 4.28906 1053.21 4.19531C1053.82 4.09375 1054.38 4.04297 1054.88 4.04297C1056.38 4.04297 1057.53 4.36719 1058.35 5.01562C1059.18 5.65625 1059.59 6.53516 1059.59 7.65234V12.5977H1060C1060.58 12.5977 1060.99 12.7109 1061.23 12.9375C1061.48 13.1562 1061.61 13.4453 1061.61 13.8047C1061.61 14.1562 1061.48 14.4453 1061.23 14.6719C1060.99 14.8906 1060.58 15 1060 15H1057.19ZM1057.19 10.6992C1056.23 10.5117 1055.34 10.418 1054.53 10.418C1053.55 10.418 1052.71 10.6562 1052.01 11.1328C1051.57 11.4375 1051.36 11.7461 1051.36 12.0586C1051.36 12.2852 1051.46 12.4688 1051.67 12.6094C1052.06 12.8672 1052.6 12.9961 1053.28 12.9961C1053.86 12.9961 1054.51 12.8828 1055.23 12.6562C1055.97 12.4297 1056.62 12.1211 1057.19 11.7305V10.6992ZM1066.46 13.6758V17.6133H1067.9C1068.48 17.6133 1068.89 17.7227 1069.13 17.9414C1069.38 18.168 1069.51 18.4609 1069.51 18.8203C1069.51 19.1719 1069.38 19.457 1069.13 19.6758C1068.89 19.9023 1068.48 20.0156 1067.9 20.0156H1063.65C1063.07 20.0156 1062.66 19.9023 1062.41 19.6758C1062.16 19.457 1062.04 19.1719 1062.04 18.8203C1062.04 18.4609 1062.17 18.168 1062.42 17.9414C1062.67 17.7227 1063.08 17.6133 1063.65 17.6133H1064.06V6.76172H1063.65C1063.07 6.76172 1062.66 6.65234 1062.41 6.43359C1062.16 6.20703 1062.04 5.91406 1062.04 5.55469C1062.04 5.20312 1062.16 4.91797 1062.41 4.69922C1062.66 4.47266 1063.07 4.35938 1063.65 4.35938H1066.46V5.17969C1067.02 4.79688 1067.61 4.51172 1068.21 4.32422C1068.81 4.13672 1069.43 4.04297 1070.06 4.04297C1071.7 4.04297 1073.1 4.60156 1074.25 5.71875C1075.41 6.82812 1075.99 8.10156 1075.99 9.53906C1075.99 11.125 1075.3 12.4336 1073.94 13.4648C1072.8 14.3242 1071.51 14.7539 1070.08 14.7539C1069.46 14.7539 1068.86 14.6641 1068.25 14.4844C1067.65 14.3047 1067.05 14.0352 1066.46 13.6758ZM1073.59 9.55078C1073.59 9.21484 1073.45 8.78906 1073.19 8.27344C1072.92 7.75 1072.51 7.31641 1071.96 6.97266C1071.41 6.62109 1070.77 6.44531 1070.02 6.44531C1068.83 6.44531 1067.88 6.89453 1067.18 7.79297C1066.7 8.41016 1066.46 9.00391 1066.46 9.57422C1066.46 10.2148 1066.8 10.8398 1067.48 11.4492C1068.17 12.0508 1069.02 12.3516 1070.02 12.3516C1071.04 12.3516 1071.89 12.0508 1072.57 11.4492C1073.25 10.8477 1073.59 10.2148 1073.59 9.55078ZM1103.76 3.19922V10.0078C1103.76 11.4922 1103.23 12.7539 1102.16 13.793C1101.09 14.832 1099.81 15.3516 1098.31 15.3516C1097.57 15.3516 1096.87 15.2227 1096.21 14.9648C1095.57 14.6992 1094.98 14.3125 1094.46 13.8047C1093.94 13.2969 1093.54 12.7695 1093.25 12.2227C1092.96 11.668 1092.82 10.9297 1092.82 10.0078V3.19922C1092.31 3.19922 1091.93 3.08594 1091.69 2.85938C1091.45 2.63281 1091.33 2.34375 1091.33 1.99219C1091.33 1.63281 1091.45 1.34375 1091.69 1.125C1091.93 0.90625 1092.35 0.796875 1092.93 0.796875L1096.09 0.785156C1096.66 0.785156 1097.07 0.898438 1097.32 1.125C1097.57 1.34375 1097.69 1.63281 1097.69 1.99219C1097.69 2.35156 1097.57 2.64453 1097.32 2.87109C1097.07 3.08984 1096.66 3.19922 1096.09 3.19922H1095.22V10.2188C1095.22 10.9375 1095.52 11.5742 1096.11 12.1289C1096.71 12.6758 1097.43 12.9492 1098.28 12.9492C1098.84 12.9492 1099.37 12.8164 1099.86 12.5508C1100.35 12.2852 1100.75 11.8984 1101.07 11.3906C1101.26 11.0703 1101.36 10.6797 1101.36 10.2188V3.19922H1100.49C1099.91 3.19922 1099.5 3.08984 1099.25 2.87109C1099.01 2.64453 1098.89 2.35156 1098.89 1.99219C1098.89 1.63281 1099.01 1.34375 1099.25 1.125C1099.5 0.898438 1099.91 0.785156 1100.49 0.785156L1103.64 0.796875C1104.22 0.796875 1104.63 0.90625 1104.88 1.125C1105.12 1.34375 1105.25 1.63281 1105.25 1.99219C1105.25 2.34375 1105.13 2.63281 1104.89 2.85938C1104.64 3.08594 1104.27 3.19922 1103.76 3.19922ZM1109.7 13.6758V17.6133H1111.14C1111.72 17.6133 1112.13 17.7227 1112.38 17.9414C1112.62 18.168 1112.75 18.4609 1112.75 18.8203C1112.75 19.1719 1112.62 19.457 1112.38 19.6758C1112.13 19.9023 1111.72 20.0156 1111.14 20.0156H1106.89C1106.31 20.0156 1105.9 19.9023 1105.65 19.6758C1105.41 19.457 1105.29 19.1719 1105.29 18.8203C1105.29 18.4609 1105.41 18.168 1105.66 17.9414C1105.91 17.7227 1106.32 17.6133 1106.89 17.6133H1107.3V6.76172H1106.89C1106.31 6.76172 1105.9 6.65234 1105.65 6.43359C1105.41 6.20703 1105.29 5.91406 1105.29 5.55469C1105.29 5.20312 1105.41 4.91797 1105.65 4.69922C1105.9 4.47266 1106.31 4.35938 1106.89 4.35938H1109.7V5.17969C1110.27 4.79688 1110.85 4.51172 1111.45 4.32422C1112.05 4.13672 1112.67 4.04297 1113.3 4.04297C1114.94 4.04297 1116.34 4.60156 1117.5 5.71875C1118.65 6.82812 1119.23 8.10156 1119.23 9.53906C1119.23 11.125 1118.55 12.4336 1117.18 13.4648C1116.04 14.3242 1114.75 14.7539 1113.32 14.7539C1112.71 14.7539 1112.1 14.6641 1111.5 14.4844C1110.89 14.3047 1110.3 14.0352 1109.7 13.6758ZM1116.83 9.55078C1116.83 9.21484 1116.7 8.78906 1116.43 8.27344C1116.16 7.75 1115.75 7.31641 1115.2 6.97266C1114.65 6.62109 1114.01 6.44531 1113.27 6.44531C1112.07 6.44531 1111.12 6.89453 1110.42 7.79297C1109.94 8.41016 1109.7 9.00391 1109.7 9.57422C1109.7 10.2148 1110.04 10.8398 1110.72 11.4492C1111.41 12.0508 1112.26 12.3516 1113.27 12.3516C1114.28 12.3516 1115.13 12.0508 1115.81 11.4492C1116.49 10.8477 1116.83 10.2148 1116.83 9.55078Z" fill="white"/>
<path d="M1123.58 149.264V147.224H1121.46V143.936H1124.51V146H1129.94V143.096H1123.58V141.056H1121.46V135.752H1123.58V133.688H1130.87V135.752H1133.01V147.224H1130.87V149.264H1123.58ZM1124.51 139.856H1129.94V136.976H1124.51V139.856ZM1135.92 147.152V143.864H1138.97V147.152H1135.92ZM1135.92 143.12V139.856H1138.97V143.12H1135.92ZM1144.01 149.264V147.224H1141.9V135.752H1144.01V133.688H1151.31V135.752H1153.45V147.224H1151.31V149.264H1144.01ZM1144.95 146H1150.37V136.976H1144.95V146ZM1158.47 149.264V147.224H1156.36V135.752H1158.47V133.688H1165.77V135.752H1167.91V147.224H1165.77V149.264H1158.47ZM1159.41 146H1164.83V136.976H1159.41V146ZM1170.82 149.264V135.752H1172.94V133.688H1180.23V135.752H1182.37V143.096H1180.23V145.16H1173.87V149.264H1170.82ZM1173.87 141.872H1179.3V136.976H1173.87V141.872ZM1185.28 149.264V135.752H1187.4V133.688H1190.44V135.752H1192.58V139.856H1193.76V135.752H1195.89V133.688H1198.96V135.752H1201.05V149.264H1198.03V136.976H1196.83V141.056H1194.69V147.224H1191.64V141.056H1189.51V136.976H1188.33V149.264H1185.28Z" fill="#00FF00"/>
<path d="M875 204L1123 202" stroke="white" stroke-width="3"/>
<path d="M882.691 188.391C882.48 188.641 882.309 188.801 882.176 188.871C882.051 188.941 881.895 188.977 881.707 188.977C881.34 188.977 881.043 188.855 880.816 188.613C880.598 188.363 880.488 187.953 880.488 187.383V185.766C880.488 185.188 880.598 184.777 880.816 184.535C881.043 184.285 881.34 184.16 881.707 184.16C881.988 184.16 882.223 184.234 882.41 184.383C882.605 184.531 882.754 184.781 882.855 185.133C882.957 185.477 883.062 185.711 883.172 185.836C883.398 186.078 883.801 186.324 884.379 186.574C884.957 186.824 885.59 186.949 886.277 186.949C887.348 186.949 888.227 186.699 888.914 186.199C889.352 185.895 889.57 185.52 889.57 185.074C889.57 184.777 889.465 184.5 889.254 184.242C889.043 183.977 888.699 183.758 888.223 183.586C887.91 183.469 887.211 183.309 886.125 183.105C884.812 182.863 883.82 182.57 883.148 182.227C882.477 181.883 881.945 181.398 881.555 180.773C881.164 180.148 880.969 179.473 880.969 178.746C880.969 177.598 881.449 176.594 882.41 175.734C883.371 174.867 884.621 174.434 886.16 174.434C886.777 174.434 887.348 174.504 887.871 174.645C888.402 174.777 888.883 174.984 889.312 175.266C889.625 174.961 889.938 174.809 890.25 174.809C890.602 174.809 890.887 174.934 891.105 175.184C891.332 175.426 891.445 175.832 891.445 176.402V178.207C891.445 178.785 891.332 179.199 891.105 179.449C890.887 179.691 890.602 179.812 890.25 179.812C889.953 179.812 889.695 179.723 889.477 179.543C889.305 179.41 889.176 179.145 889.09 178.746C889.004 178.348 888.895 178.062 888.762 177.891C888.535 177.594 888.195 177.344 887.742 177.141C887.289 176.938 886.766 176.836 886.172 176.836C885.305 176.836 884.617 177.039 884.109 177.445C883.609 177.844 883.359 178.262 883.359 178.699C883.359 178.996 883.461 179.285 883.664 179.566C883.875 179.84 884.18 180.055 884.578 180.211C884.844 180.32 885.59 180.496 886.816 180.738C888.051 180.98 888.996 181.246 889.652 181.535C890.316 181.824 890.867 182.277 891.305 182.895C891.742 183.512 891.961 184.246 891.961 185.098C891.961 186.285 891.543 187.234 890.707 187.945C889.598 188.883 888.184 189.352 886.465 189.352C885.801 189.352 885.152 189.27 884.52 189.105C883.895 188.949 883.285 188.711 882.691 188.391ZM905.719 178.359V186.598C906.227 186.598 906.602 186.711 906.844 186.938C907.086 187.164 907.207 187.453 907.207 187.805C907.207 188.156 907.082 188.445 906.832 188.672C906.59 188.891 906.18 189 905.602 189H903.316V188.449C902.629 188.762 901.973 188.996 901.348 189.152C900.723 189.309 900.129 189.387 899.566 189.387C898.777 189.387 898.094 189.223 897.516 188.895C896.938 188.559 896.48 188.098 896.145 187.512C895.902 187.09 895.781 186.562 895.781 185.93V180.762H895.371C894.793 180.762 894.379 180.652 894.129 180.434C893.887 180.207 893.766 179.914 893.766 179.555C893.766 179.203 893.887 178.918 894.129 178.699C894.379 178.473 894.793 178.359 895.371 178.359H898.184V185.508C898.184 186.016 898.305 186.391 898.547 186.633C898.797 186.867 899.176 186.984 899.684 186.984C900.168 186.984 900.688 186.891 901.242 186.703C901.805 186.508 902.496 186.16 903.316 185.66V180.762H902.449C901.871 180.762 901.457 180.652 901.207 180.434C900.965 180.207 900.844 179.914 900.844 179.555C900.844 179.203 900.965 178.918 901.207 178.699C901.457 178.473 901.871 178.359 902.449 178.359H905.719ZM912 173.801V179.191C912.586 178.809 913.18 178.523 913.781 178.336C914.391 178.141 915.004 178.043 915.621 178.043C917.285 178.043 918.695 178.617 919.852 179.766C921.008 180.914 921.586 182.301 921.586 183.926C921.586 185.48 921.035 186.781 919.934 187.828C918.832 188.867 917.379 189.387 915.574 189.387C914.934 189.387 914.316 189.305 913.723 189.141C913.129 188.977 912.555 188.734 912 188.414V189H909.188C908.609 189 908.195 188.891 907.945 188.672C907.703 188.445 907.582 188.152 907.582 187.793C907.582 187.441 907.707 187.156 907.957 186.938C908.207 186.711 908.617 186.598 909.188 186.598H909.598V176.203H909.188C908.609 176.203 908.195 176.094 907.945 175.875C907.703 175.648 907.582 175.355 907.582 174.996C907.582 174.645 907.703 174.359 907.945 174.141C908.195 173.914 908.609 173.801 909.188 173.801H912ZM919.184 183.996C919.184 183.004 918.836 182.164 918.141 181.477C917.445 180.789 916.594 180.445 915.586 180.445C914.586 180.445 913.738 180.789 913.043 181.477C912.348 182.164 912 182.992 912 183.961C912 184.844 912.312 185.57 912.938 186.141C913.562 186.703 914.445 186.984 915.586 186.984C916.727 186.984 917.609 186.703 918.234 186.141C918.867 185.57 919.184 184.855 919.184 183.996ZM925.734 178.359V179.039C926.125 178.656 926.477 178.395 926.789 178.254C927.109 178.105 927.477 178.031 927.891 178.031C928.242 178.031 928.59 178.117 928.934 178.289C929.277 178.461 929.613 178.719 929.941 179.062C930.355 178.719 930.773 178.465 931.195 178.301C931.625 178.129 932.062 178.043 932.508 178.043C933.398 178.043 934.121 178.281 934.676 178.758C935.41 179.383 935.777 180.203 935.777 181.219V186.598C936.277 186.598 936.648 186.711 936.891 186.938C937.133 187.164 937.254 187.453 937.254 187.805C937.254 188.156 937.133 188.445 936.891 188.672C936.648 188.891 936.238 189 935.66 189H933.375V181.418C933.375 181.051 933.309 180.797 933.176 180.656C933.043 180.516 932.84 180.445 932.566 180.445C932.301 180.445 932.055 180.516 931.828 180.656C931.539 180.852 931.188 181.219 930.773 181.758V186.598C931.273 186.598 931.645 186.711 931.887 186.938C932.129 187.164 932.25 187.453 932.25 187.805C932.25 188.156 932.129 188.445 931.887 188.672C931.645 188.891 931.234 189 930.656 189H928.371V181.418C928.371 181.059 928.301 180.809 928.16 180.668C928.027 180.52 927.824 180.445 927.551 180.445C927.27 180.445 926.992 180.535 926.719 180.715C926.445 180.887 926.117 181.234 925.734 181.758V186.598C926.234 186.598 926.605 186.711 926.848 186.938C927.098 187.164 927.223 187.453 927.223 187.805C927.223 188.156 927.098 188.445 926.848 188.672C926.605 188.891 926.195 189 925.617 189H923.449C922.871 189 922.461 188.891 922.219 188.672C921.969 188.445 921.844 188.152 921.844 187.793C921.844 187.441 921.965 187.156 922.207 186.938C922.449 186.711 922.824 186.598 923.332 186.598V180.762C922.824 180.762 922.449 180.648 922.207 180.422C921.965 180.195 921.844 179.906 921.844 179.555C921.844 179.203 921.969 178.918 922.219 178.699C922.461 178.473 922.871 178.359 923.449 178.359H925.734ZM944.719 173.801V176.344H941.859V173.801H944.719ZM945.047 178.359V186.598H947.93C948.508 186.598 948.918 186.711 949.16 186.938C949.41 187.156 949.535 187.445 949.535 187.805C949.535 188.156 949.41 188.445 949.16 188.672C948.918 188.891 948.508 189 947.93 189H939.762C939.184 189 938.77 188.891 938.52 188.672C938.277 188.445 938.156 188.152 938.156 187.793C938.156 187.441 938.277 187.156 938.52 186.938C938.77 186.711 939.184 186.598 939.762 186.598H942.645V180.762H940.711C940.141 180.762 939.73 180.652 939.48 180.434C939.23 180.207 939.105 179.914 939.105 179.555C939.105 179.203 939.227 178.918 939.469 178.699C939.719 178.473 940.133 178.359 940.711 178.359H945.047ZM960.867 181.172C960.477 180.93 960.066 180.75 959.637 180.633C959.207 180.508 958.758 180.445 958.289 180.445C957.359 180.445 956.621 180.598 956.074 180.902C955.832 181.035 955.711 181.18 955.711 181.336C955.711 181.516 955.875 181.691 956.203 181.863C956.453 181.988 957.012 182.109 957.879 182.227C959.473 182.445 960.582 182.664 961.207 182.883C962.027 183.172 962.66 183.602 963.105 184.172C963.551 184.742 963.773 185.344 963.773 185.977C963.773 186.836 963.395 187.555 962.637 188.133C961.551 188.969 960.141 189.387 958.406 189.387C957.711 189.387 957.066 189.324 956.473 189.199C955.887 189.082 955.348 188.906 954.855 188.672C954.738 188.773 954.613 188.852 954.48 188.906C954.348 188.961 954.211 188.988 954.07 188.988C953.695 188.988 953.395 188.867 953.168 188.625C952.949 188.375 952.84 187.961 952.84 187.383V186.574C952.84 185.996 952.949 185.586 953.168 185.344C953.395 185.094 953.688 184.969 954.047 184.969C954.336 184.969 954.578 185.051 954.773 185.215C954.969 185.371 955.121 185.645 955.23 186.035C955.598 186.348 956.039 186.586 956.555 186.75C957.07 186.906 957.664 186.984 958.336 186.984C959.438 186.984 960.293 186.812 960.902 186.469C961.191 186.297 961.336 186.117 961.336 185.93C961.336 185.617 961.129 185.359 960.715 185.156C960.301 184.953 959.445 184.781 958.148 184.641C956.219 184.438 954.93 184.047 954.281 183.469C953.633 182.898 953.309 182.195 953.309 181.359C953.309 180.5 953.672 179.785 954.398 179.215C955.383 178.434 956.672 178.043 958.266 178.043C958.82 178.043 959.352 178.098 959.859 178.207C960.375 178.309 960.867 178.469 961.336 178.688C961.484 178.578 961.621 178.496 961.746 178.441C961.879 178.387 962 178.359 962.109 178.359C962.438 178.359 962.711 178.484 962.93 178.734C963.148 178.977 963.258 179.387 963.258 179.965V180.551C963.258 181.074 963.195 181.43 963.07 181.617C962.82 181.977 962.48 182.156 962.051 182.156C961.762 182.156 961.508 182.066 961.289 181.887C961.07 181.707 960.93 181.469 960.867 181.172ZM975.281 181.172C974.891 180.93 974.48 180.75 974.051 180.633C973.621 180.508 973.172 180.445 972.703 180.445C971.773 180.445 971.035 180.598 970.488 180.902C970.246 181.035 970.125 181.18 970.125 181.336C970.125 181.516 970.289 181.691 970.617 181.863C970.867 181.988 971.426 182.109 972.293 182.227C973.887 182.445 974.996 182.664 975.621 182.883C976.441 183.172 977.074 183.602 977.52 184.172C977.965 184.742 978.188 185.344 978.188 185.977C978.188 186.836 977.809 187.555 977.051 188.133C975.965 188.969 974.555 189.387 972.82 189.387C972.125 189.387 971.48 189.324 970.887 189.199C970.301 189.082 969.762 188.906 969.27 188.672C969.152 188.773 969.027 188.852 968.895 188.906C968.762 188.961 968.625 188.988 968.484 188.988C968.109 188.988 967.809 188.867 967.582 188.625C967.363 188.375 967.254 187.961 967.254 187.383V186.574C967.254 185.996 967.363 185.586 967.582 185.344C967.809 185.094 968.102 184.969 968.461 184.969C968.75 184.969 968.992 185.051 969.188 185.215C969.383 185.371 969.535 185.645 969.645 186.035C970.012 186.348 970.453 186.586 970.969 186.75C971.484 186.906 972.078 186.984 972.75 186.984C973.852 186.984 974.707 186.812 975.316 186.469C975.605 186.297 975.75 186.117 975.75 185.93C975.75 185.617 975.543 185.359 975.129 185.156C974.715 184.953 973.859 184.781 972.562 184.641C970.633 184.438 969.344 184.047 968.695 183.469C968.047 182.898 967.723 182.195 967.723 181.359C967.723 180.5 968.086 179.785 968.812 179.215C969.797 178.434 971.086 178.043 972.68 178.043C973.234 178.043 973.766 178.098 974.273 178.207C974.789 178.309 975.281 178.469 975.75 178.688C975.898 178.578 976.035 178.496 976.16 178.441C976.293 178.387 976.414 178.359 976.523 178.359C976.852 178.359 977.125 178.484 977.344 178.734C977.562 178.977 977.672 179.387 977.672 179.965V180.551C977.672 181.074 977.609 181.43 977.484 181.617C977.234 181.977 976.895 182.156 976.465 182.156C976.176 182.156 975.922 182.066 975.703 181.887C975.484 181.707 975.344 181.469 975.281 181.172ZM987.961 173.801V176.344H985.102V173.801H987.961ZM988.289 178.359V186.598H991.172C991.75 186.598 992.16 186.711 992.402 186.938C992.652 187.156 992.777 187.445 992.777 187.805C992.777 188.156 992.652 188.445 992.402 188.672C992.16 188.891 991.75 189 991.172 189H983.004C982.426 189 982.012 188.891 981.762 188.672C981.52 188.445 981.398 188.152 981.398 187.793C981.398 187.441 981.52 187.156 981.762 186.938C982.012 186.711 982.426 186.598 983.004 186.598H985.887V180.762H983.953C983.383 180.762 982.973 180.652 982.723 180.434C982.473 180.207 982.348 179.914 982.348 179.555C982.348 179.203 982.469 178.918 982.711 178.699C982.961 178.473 983.375 178.359 983.953 178.359H988.289ZM1007.75 183.879C1007.75 184.801 1007.5 185.695 1006.98 186.562C1006.47 187.422 1005.71 188.109 1004.7 188.625C1003.69 189.133 1002.63 189.387 1001.53 189.387C1000.44 189.387 999.391 189.137 998.391 188.637C997.391 188.129 996.629 187.441 996.105 186.574C995.582 185.707 995.32 184.801 995.32 183.855C995.32 182.895 995.586 181.953 996.117 181.031C996.648 180.102 997.41 179.371 998.402 178.84C999.402 178.309 1000.45 178.043 1001.53 178.043C1002.62 178.043 1003.68 178.316 1004.68 178.863C1005.7 179.402 1006.46 180.133 1006.98 181.055C1007.5 181.969 1007.75 182.91 1007.75 183.879ZM1005.35 183.891C1005.35 183.117 1005.07 182.406 1004.52 181.758C1003.76 180.883 1002.77 180.445 1001.53 180.445C1000.45 180.445 999.539 180.793 998.812 181.488C998.086 182.184 997.723 182.988 997.723 183.902C997.723 184.652 998.09 185.355 998.824 186.012C999.559 186.66 1000.46 186.984 1001.53 186.984C1002.61 186.984 1003.52 186.66 1004.25 186.012C1004.98 185.355 1005.35 184.648 1005.35 183.891ZM1013.5 178.359V179.168C1013.93 178.793 1014.41 178.512 1014.94 178.324C1015.47 178.137 1016.04 178.043 1016.66 178.043C1018.08 178.043 1019.21 178.484 1020.04 179.367C1020.69 180.07 1021.02 180.992 1021.02 182.133V186.598C1021.53 186.598 1021.9 186.711 1022.14 186.938C1022.39 187.156 1022.51 187.445 1022.51 187.805C1022.51 188.156 1022.38 188.445 1022.13 188.672C1021.89 188.891 1021.48 189 1020.9 189H1018.73C1018.16 189 1017.74 188.891 1017.49 188.672C1017.25 188.445 1017.13 188.152 1017.13 187.793C1017.13 187.441 1017.25 187.156 1017.49 186.938C1017.73 186.711 1018.11 186.598 1018.62 186.598V182.062C1018.62 181.539 1018.48 181.156 1018.2 180.914C1017.83 180.602 1017.28 180.445 1016.54 180.445C1015.99 180.445 1015.5 180.555 1015.08 180.773C1014.66 180.984 1014.14 181.438 1013.5 182.133V186.598C1014.11 186.598 1014.51 186.656 1014.69 186.773C1015.07 187.008 1015.27 187.352 1015.27 187.805C1015.27 188.156 1015.14 188.445 1014.89 188.672C1014.65 188.891 1014.24 189 1013.66 189H1010.93C1010.35 189 1009.94 188.891 1009.69 188.672C1009.45 188.445 1009.32 188.152 1009.32 187.793C1009.32 187.355 1009.51 187.016 1009.89 186.773C1010.07 186.656 1010.48 186.598 1011.09 186.598V180.762C1010.59 180.762 1010.21 180.648 1009.97 180.422C1009.73 180.195 1009.61 179.906 1009.61 179.555C1009.61 179.203 1009.73 178.918 1009.97 178.699C1010.22 178.473 1010.63 178.359 1011.21 178.359H1013.5ZM1032.94 181.172C1032.55 180.93 1032.14 180.75 1031.71 180.633C1031.28 180.508 1030.83 180.445 1030.36 180.445C1029.43 180.445 1028.69 180.598 1028.14 180.902C1027.9 181.035 1027.78 181.18 1027.78 181.336C1027.78 181.516 1027.95 181.691 1028.27 181.863C1028.52 181.988 1029.08 182.109 1029.95 182.227C1031.54 182.445 1032.65 182.664 1033.28 182.883C1034.1 183.172 1034.73 183.602 1035.18 184.172C1035.62 184.742 1035.84 185.344 1035.84 185.977C1035.84 186.836 1035.46 187.555 1034.71 188.133C1033.62 188.969 1032.21 189.387 1030.48 189.387C1029.78 189.387 1029.14 189.324 1028.54 189.199C1027.96 189.082 1027.42 188.906 1026.93 188.672C1026.81 188.773 1026.68 188.852 1026.55 188.906C1026.42 188.961 1026.28 188.988 1026.14 188.988C1025.77 188.988 1025.46 188.867 1025.24 188.625C1025.02 188.375 1024.91 187.961 1024.91 187.383V186.574C1024.91 185.996 1025.02 185.586 1025.24 185.344C1025.46 185.094 1025.76 184.969 1026.12 184.969C1026.41 184.969 1026.65 185.051 1026.84 185.215C1027.04 185.371 1027.19 185.645 1027.3 186.035C1027.67 186.348 1028.11 186.586 1028.62 186.75C1029.14 186.906 1029.73 186.984 1030.41 186.984C1031.51 186.984 1032.36 186.812 1032.97 186.469C1033.26 186.297 1033.41 186.117 1033.41 185.93C1033.41 185.617 1033.2 185.359 1032.79 185.156C1032.37 184.953 1031.52 184.781 1030.22 184.641C1028.29 184.438 1027 184.047 1026.35 183.469C1025.7 182.898 1025.38 182.195 1025.38 181.359C1025.38 180.5 1025.74 179.785 1026.47 179.215C1027.45 178.434 1028.74 178.043 1030.34 178.043C1030.89 178.043 1031.42 178.098 1031.93 178.207C1032.45 178.309 1032.94 178.469 1033.41 178.688C1033.55 178.578 1033.69 178.496 1033.82 178.441C1033.95 178.387 1034.07 178.359 1034.18 178.359C1034.51 178.359 1034.78 178.484 1035 178.734C1035.22 178.977 1035.33 179.387 1035.33 179.965V180.551C1035.33 181.074 1035.27 181.43 1035.14 181.617C1034.89 181.977 1034.55 182.156 1034.12 182.156C1033.83 182.156 1033.58 182.066 1033.36 181.887C1033.14 181.707 1033 181.469 1032.94 181.172ZM1062.94 175.406C1063.09 175.203 1063.25 175.051 1063.42 174.949C1063.6 174.848 1063.79 174.797 1063.99 174.797C1064.34 174.797 1064.63 174.918 1064.85 175.16C1065.07 175.402 1065.19 175.812 1065.19 176.391V178.43C1065.19 179.008 1065.07 179.422 1064.85 179.672C1064.63 179.914 1064.34 180.035 1063.99 180.035C1063.67 180.035 1063.41 179.945 1063.22 179.766C1063.02 179.586 1062.88 179.25 1062.79 178.758C1062.73 178.43 1062.62 178.176 1062.46 177.996C1062.14 177.645 1061.69 177.363 1061.11 177.152C1060.54 176.941 1059.96 176.836 1059.39 176.836C1058.67 176.836 1058.01 176.992 1057.41 177.305C1056.8 177.617 1056.27 178.125 1055.81 178.828C1055.35 179.531 1055.12 180.367 1055.12 181.336V182.895C1055.12 184.051 1055.54 185.016 1056.38 185.789C1057.22 186.562 1058.39 186.949 1059.88 186.949C1060.77 186.949 1061.52 186.828 1062.14 186.586C1062.5 186.445 1062.88 186.168 1063.29 185.754C1063.54 185.504 1063.73 185.344 1063.88 185.273C1064.02 185.195 1064.18 185.156 1064.36 185.156C1064.68 185.156 1064.96 185.277 1065.2 185.52C1065.44 185.762 1065.56 186.047 1065.56 186.375C1065.56 186.703 1065.4 187.055 1065.07 187.43C1064.59 187.977 1063.98 188.406 1063.23 188.719C1062.22 189.141 1061.11 189.352 1059.89 189.352C1058.47 189.352 1057.19 189.059 1056.05 188.473C1055.12 188.004 1054.34 187.266 1053.69 186.258C1053.04 185.242 1052.72 184.137 1052.72 182.941V181.312C1052.72 180.062 1053.01 178.898 1053.59 177.82C1054.17 176.734 1054.98 175.898 1056.01 175.312C1057.04 174.727 1058.14 174.434 1059.29 174.434C1059.99 174.434 1060.64 174.516 1061.24 174.68C1061.85 174.836 1062.41 175.078 1062.94 175.406ZM1072.58 177.199V186.598H1077.76V184.324C1077.76 183.746 1077.87 183.336 1078.09 183.094C1078.32 182.844 1078.61 182.719 1078.97 182.719C1079.32 182.719 1079.61 182.844 1079.82 183.094C1080.05 183.336 1080.16 183.746 1080.16 184.324V189H1068.79C1068.21 189 1067.79 188.891 1067.54 188.672C1067.3 188.445 1067.18 188.152 1067.18 187.793C1067.18 187.441 1067.3 187.156 1067.54 186.938C1067.79 186.711 1068.21 186.598 1068.79 186.598H1070.18V177.199H1068.79C1068.21 177.199 1067.79 177.09 1067.54 176.871C1067.3 176.645 1067.18 176.352 1067.18 175.992C1067.18 175.633 1067.3 175.344 1067.54 175.125C1067.79 174.898 1068.21 174.785 1068.79 174.785L1073.99 174.797C1074.57 174.797 1074.98 174.906 1075.22 175.125C1075.47 175.344 1075.59 175.633 1075.59 175.992C1075.59 176.352 1075.47 176.645 1075.22 176.871C1074.98 177.09 1074.57 177.199 1073.99 177.199H1072.58ZM1094.74 181.898C1094.74 184.031 1094.06 185.809 1092.7 187.23C1091.35 188.645 1089.79 189.352 1088 189.352C1086.4 189.352 1084.96 188.762 1083.67 187.582C1082.07 186.121 1081.28 184.227 1081.28 181.898C1081.28 179.57 1082.07 177.672 1083.67 176.203C1084.96 175.023 1086.4 174.434 1088 174.434C1089.79 174.434 1091.35 175.145 1092.7 176.566C1094.06 177.98 1094.74 179.758 1094.74 181.898ZM1092.34 181.898C1092.34 180.438 1091.9 179.23 1091.02 178.277C1090.13 177.316 1089.13 176.836 1088 176.836C1086.89 176.836 1085.89 177.316 1085 178.277C1084.12 179.238 1083.68 180.445 1083.68 181.898C1083.68 183.352 1084.12 184.559 1085 185.52C1085.89 186.473 1086.89 186.949 1088 186.949C1089.13 186.949 1090.13 186.473 1091.02 185.52C1091.9 184.566 1092.34 183.359 1092.34 181.898ZM1098.9 188.391C1098.69 188.641 1098.52 188.801 1098.39 188.871C1098.26 188.941 1098.11 188.977 1097.92 188.977C1097.55 188.977 1097.25 188.855 1097.03 188.613C1096.81 188.363 1096.7 187.953 1096.7 187.383V185.766C1096.7 185.188 1096.81 184.777 1097.03 184.535C1097.25 184.285 1097.55 184.16 1097.92 184.16C1098.2 184.16 1098.43 184.234 1098.62 184.383C1098.82 184.531 1098.96 184.781 1099.07 185.133C1099.17 185.477 1099.27 185.711 1099.38 185.836C1099.61 186.078 1100.01 186.324 1100.59 186.574C1101.17 186.824 1101.8 186.949 1102.49 186.949C1103.56 186.949 1104.44 186.699 1105.12 186.199C1105.56 185.895 1105.78 185.52 1105.78 185.074C1105.78 184.777 1105.68 184.5 1105.46 184.242C1105.25 183.977 1104.91 183.758 1104.43 183.586C1104.12 183.469 1103.42 183.309 1102.34 183.105C1101.02 182.863 1100.03 182.57 1099.36 182.227C1098.69 181.883 1098.16 181.398 1097.77 180.773C1097.38 180.148 1097.18 179.473 1097.18 178.746C1097.18 177.598 1097.66 176.594 1098.62 175.734C1099.58 174.867 1100.83 174.434 1102.37 174.434C1102.99 174.434 1103.56 174.504 1104.08 174.645C1104.61 174.777 1105.09 174.984 1105.52 175.266C1105.84 174.961 1106.15 174.809 1106.46 174.809C1106.81 174.809 1107.1 174.934 1107.32 175.184C1107.54 175.426 1107.66 175.832 1107.66 176.402V178.207C1107.66 178.785 1107.54 179.199 1107.32 179.449C1107.1 179.691 1106.81 179.812 1106.46 179.812C1106.16 179.812 1105.91 179.723 1105.69 179.543C1105.52 179.41 1105.39 179.145 1105.3 178.746C1105.21 178.348 1105.11 178.062 1104.97 177.891C1104.75 177.594 1104.41 177.344 1103.95 177.141C1103.5 176.938 1102.98 176.836 1102.38 176.836C1101.52 176.836 1100.83 177.039 1100.32 177.445C1099.82 177.844 1099.57 178.262 1099.57 178.699C1099.57 178.996 1099.67 179.285 1099.88 179.566C1100.09 179.84 1100.39 180.055 1100.79 180.211C1101.05 180.32 1101.8 180.496 1103.03 180.738C1104.26 180.98 1105.21 181.246 1105.86 181.535C1106.53 181.824 1107.08 182.277 1107.52 182.895C1107.95 183.512 1108.17 184.246 1108.17 185.098C1108.17 186.285 1107.75 187.234 1106.92 187.945C1105.81 188.883 1104.39 189.352 1102.68 189.352C1102.01 189.352 1101.36 189.27 1100.73 189.105C1100.11 188.949 1099.5 188.711 1098.9 188.391ZM1114.36 183.07V186.598H1120.49V185.297C1120.49 184.719 1120.6 184.309 1120.82 184.066C1121.04 183.816 1121.34 183.691 1121.7 183.691C1122.05 183.691 1122.33 183.816 1122.55 184.066C1122.78 184.309 1122.89 184.719 1122.89 185.297V189H1111.58C1111 189 1110.59 188.891 1110.34 188.672C1110.1 188.445 1109.98 188.152 1109.98 187.793C1109.98 187.441 1110.1 187.156 1110.35 186.938C1110.6 186.711 1111.01 186.598 1111.58 186.598H1111.96V177.199H1111.58C1111 177.199 1110.59 177.09 1110.34 176.871C1110.1 176.645 1109.98 176.352 1109.98 175.992C1109.98 175.633 1110.1 175.344 1110.34 175.125C1110.59 174.898 1111 174.785 1111.58 174.785L1122.36 174.797V178.453C1122.36 179.023 1122.25 179.434 1122.04 179.684C1121.82 179.926 1121.53 180.047 1121.17 180.047C1120.81 180.047 1120.52 179.926 1120.29 179.684C1120.07 179.441 1119.96 179.031 1119.96 178.453V177.199H1114.36V180.668H1116.47C1116.47 180.043 1116.53 179.641 1116.64 179.461C1116.89 179.078 1117.23 178.887 1117.68 178.887C1118.03 178.887 1118.31 179.012 1118.53 179.262C1118.76 179.504 1118.87 179.914 1118.87 180.492V183.258C1118.87 183.781 1118.81 184.133 1118.68 184.312C1118.43 184.68 1118.1 184.863 1117.68 184.863C1117.23 184.863 1116.89 184.672 1116.64 184.289C1116.53 184.109 1116.47 183.703 1116.47 183.07H1114.36Z" fill="white"/>
</svg>
