<svg width="1209" height="225" viewBox="0 0 1209 225" fill="none" xmlns="http://www.w3.org/2000/svg">
<line x1="41" y1="107.5" x2="293" y2="107.5" stroke="#00FF00" stroke-width="3"/>
<line x1="349" y1="107.5" x2="429" y2="107.5" stroke="#00FF00" stroke-width="3"/>
<line x1="489" y1="106.5" x2="761" y2="106.5" stroke="#00FF00" stroke-width="3"/>
<path d="M1193 107.958C1192.98 112.376 1196.54 115.977 1200.96 116C1205.38 116.023 1208.98 112.46 1209 108.042C1209.02 103.624 1205.46 100.023 1201.04 100C1196.62 99.9769 1193.02 103.54 1193 107.958ZM819.992 107.5L1200.99 109.5L1201.01 106.5L820.008 104.5L819.992 107.5Z" fill="#00FF00"/>
<line x1="76.9898" y1="28.5" x2="223.99" y2="27.5" stroke="white" stroke-width="3"/>
<circle cx="14" cy="109" r="10.5" stroke="white" stroke-width="7"/>
<circle cx="322" cy="108" r="10.5" stroke="white" stroke-width="7"/>
<path d="M469.5 108C469.5 113.799 464.799 118.5 459 118.5C453.201 118.5 448.5 113.799 448.5 108C448.5 102.201 453.201 97.5 459 97.5C464.799 97.5 469.5 102.201 469.5 108Z" stroke="white" stroke-width="7"/>
<circle cx="14" cy="14" r="10.5" transform="matrix(1 0 0 -1 777 119)" stroke="white" stroke-width="7"/>
<line x1="2.93934" y1="102.939" x2="77.9393" y2="27.9393" stroke="white" stroke-width="3"/>
<line x1="448.932" y1="101.947" x2="520.932" y2="28.9467" stroke="white" stroke-width="3"/>
<line x1="398" y1="200.5" x2="479" y2="200.5" stroke="white" stroke-width="3"/>
<line x1="310.061" y1="111.939" x2="399.061" y2="200.939" stroke="white" stroke-width="3"/>
<line x1="867" y1="196.5" x2="1101" y2="196.5" stroke="white" stroke-width="3"/>
<line x1="779.061" y1="107.939" x2="868.061" y2="196.939" stroke="white" stroke-width="3"/>
<path d="M81.8281 13.5977V4.19922C81.3203 4.19141 80.9453 4.07812 80.7031 3.85938C80.4609 3.63281 80.3398 3.34375 80.3398 2.99219C80.3398 2.63281 80.4609 2.34375 80.7031 2.125C80.9531 1.89844 81.3672 1.78516 81.9453 1.78516L86.9727 1.79688C87.7539 1.79688 88.5156 1.94141 89.2578 2.23047C90.0078 2.51953 90.6094 2.88672 91.0625 3.33203C91.4062 3.66797 91.7617 4.12891 92.1289 4.71484C92.5039 5.30078 92.7852 5.88281 92.9727 6.46094C93.1602 7.03906 93.2539 7.74609 93.2539 8.58203V9.73047C93.2539 10.7461 93.082 11.6484 92.7383 12.4375C92.3945 13.2188 91.9414 13.8594 91.3789 14.3594C90.8242 14.8516 90.3008 15.2148 89.8086 15.4492C89.0273 15.8164 88.0156 16 86.7734 16H81.9453C81.3672 16 80.9531 15.8906 80.7031 15.6719C80.4609 15.4453 80.3398 15.1523 80.3398 14.793C80.3398 14.4414 80.4609 14.1523 80.7031 13.9258C80.9531 13.6992 81.3281 13.5898 81.8281 13.5977ZM84.2305 13.5977H86.7852C87.7383 13.5977 88.457 13.4609 88.9414 13.1875C89.5742 12.8281 90.0508 12.3711 90.3711 11.8164C90.6914 11.2617 90.8516 10.543 90.8516 9.66016V8.52344C90.8516 7.76562 90.707 7.10156 90.418 6.53125C89.9648 5.64062 89.4531 5.03125 88.8828 4.70312C88.3203 4.36719 87.6133 4.19922 86.7617 4.19922H84.2305V13.5977ZM103.777 16V15.4375C103.176 15.7578 102.512 15.9961 101.785 16.1523C101.059 16.3164 100.398 16.3984 99.8047 16.3984C98.5156 16.3984 97.4688 16.0586 96.6641 15.3789C95.8594 14.6914 95.457 13.9336 95.457 13.1055C95.457 12.0977 95.9688 11.1641 96.9922 10.3047C98.0234 9.4375 99.4453 9.00391 101.258 9.00391C101.984 9.00391 102.824 9.08203 103.777 9.23828V8.66406C103.777 8.30469 103.621 8.01172 103.309 7.78516C103.004 7.55859 102.418 7.44531 101.551 7.44531C100.84 7.44531 99.918 7.58594 98.7852 7.86719C98.3633 7.96875 98.0352 8.01953 97.8008 8.01953C97.4805 8.01953 97.207 7.90625 96.9805 7.67969C96.7617 7.44531 96.6523 7.14844 96.6523 6.78906C96.6523 6.58594 96.6914 6.41016 96.7695 6.26172C96.8477 6.11328 96.957 5.99609 97.0977 5.91016C97.2383 5.81641 97.5312 5.70703 97.9766 5.58203C98.5703 5.41797 99.1758 5.28906 99.793 5.19531C100.41 5.09375 100.969 5.04297 101.469 5.04297C102.961 5.04297 104.117 5.36719 104.938 6.01562C105.766 6.65625 106.18 7.53516 106.18 8.65234V13.5977H106.59C107.168 13.5977 107.578 13.7109 107.82 13.9375C108.07 14.1562 108.195 14.4453 108.195 14.8047C108.195 15.1562 108.07 15.4453 107.82 15.6719C107.578 15.8906 107.168 16 106.59 16H103.777ZM103.777 11.6992C102.816 11.5117 101.93 11.418 101.117 11.418C100.141 11.418 99.3008 11.6562 98.5977 12.1328C98.1602 12.4375 97.9414 12.7461 97.9414 13.0586C97.9414 13.2852 98.0469 13.4688 98.2578 13.6094C98.6484 13.8672 99.1836 13.9961 99.8633 13.9961C100.441 13.9961 101.094 13.8828 101.82 13.6562C102.555 13.4297 103.207 13.1211 103.777 12.7305V11.6992ZM114.688 15.918L110.527 7.76172C110.137 7.71484 109.84 7.58203 109.637 7.36328C109.434 7.14453 109.332 6.87891 109.332 6.56641C109.332 6.20703 109.453 5.91797 109.695 5.69922C109.945 5.47266 110.359 5.35938 110.938 5.35938H113.129C113.707 5.35938 114.117 5.47266 114.359 5.69922C114.609 5.91797 114.734 6.20703 114.734 6.56641C114.734 6.91797 114.609 7.20703 114.359 7.43359C114.117 7.65234 113.73 7.76172 113.199 7.76172L116.035 13.2812L118.848 7.76172C118.332 7.76172 117.949 7.65234 117.699 7.43359C117.457 7.20703 117.336 6.91406 117.336 6.55469C117.336 6.20312 117.457 5.91797 117.699 5.69922C117.949 5.47266 118.363 5.35938 118.941 5.35938H121.203C121.773 5.35938 122.18 5.47266 122.422 5.69922C122.672 5.91797 122.797 6.20703 122.797 6.56641C122.797 6.88672 122.691 7.16016 122.48 7.38672C122.27 7.60547 121.957 7.73047 121.543 7.76172L116.035 18.6133C116.637 18.6133 117.031 18.6719 117.219 18.7891C117.594 19.0312 117.781 19.375 117.781 19.8203C117.781 20.1719 117.656 20.457 117.406 20.6758C117.164 20.9023 116.754 21.0156 116.176 21.0156H110.938C110.359 21.0156 109.945 20.9023 109.695 20.6758C109.453 20.457 109.332 20.1719 109.332 19.8203C109.332 19.4609 109.453 19.168 109.695 18.9414C109.945 18.7227 110.359 18.6133 110.938 18.6133H113.328L114.688 15.918ZM139.953 13.5977V4.19922H139.578C139 4.19922 138.586 4.08984 138.336 3.87109C138.094 3.64453 137.973 3.35156 137.973 2.99219C137.973 2.63281 138.094 2.34375 138.336 2.125C138.586 1.89844 139 1.78516 139.578 1.78516H145.602C147.039 1.78516 148.195 2.1875 149.07 2.99219C149.945 3.78906 150.383 4.73828 150.383 5.83984C150.383 6.36328 150.281 6.85547 150.078 7.31641C149.875 7.77734 149.566 8.20312 149.152 8.59375C149.91 9.04688 150.477 9.57812 150.852 10.1875C151.234 10.7891 151.426 11.4727 151.426 12.2383C151.426 12.8477 151.289 13.4141 151.016 13.9375C150.812 14.3359 150.562 14.6523 150.266 14.8867C149.867 15.2148 149.379 15.4844 148.801 15.6953C148.223 15.8984 147.5 16 146.633 16H139.578C139 16 138.586 15.8906 138.336 15.6719C138.094 15.4453 137.973 15.1523 137.973 14.793C137.973 14.4414 138.098 14.1562 138.348 13.9375C138.598 13.7109 139.008 13.5977 139.578 13.5977H139.953ZM142.355 7.69141H144.992C145.938 7.69141 146.723 7.45312 147.348 6.97656C147.77 6.65625 147.98 6.25781 147.98 5.78125C147.98 5.35938 147.781 4.99219 147.383 4.67969C146.984 4.35938 146.352 4.19922 145.484 4.19922H142.355V7.69141ZM142.355 13.5977H146.504C147.48 13.5977 148.168 13.4531 148.566 13.1641C148.871 12.9453 149.023 12.6328 149.023 12.2266C149.023 11.7422 148.723 11.2656 148.121 10.7969C147.52 10.3281 146.656 10.0938 145.531 10.0938H142.355V13.5977ZM165.301 11.8984H155.445C155.695 12.5234 156.137 13.0273 156.77 13.4102C157.41 13.793 158.273 13.9844 159.359 13.9844C160.25 13.9844 161.434 13.793 162.91 13.4102C163.52 13.2539 163.941 13.1758 164.176 13.1758C164.496 13.1758 164.766 13.2891 164.984 13.5156C165.203 13.7422 165.312 14.0273 165.312 14.3711C165.312 14.6836 165.195 14.9492 164.961 15.168C164.648 15.457 163.887 15.7344 162.676 16C161.465 16.2578 160.301 16.3867 159.184 16.3867C157.262 16.3867 155.723 15.8438 154.566 14.7578C153.418 13.6719 152.844 12.3359 152.844 10.75C152.844 9.0625 153.465 7.69141 154.707 6.63672C155.957 5.57422 157.395 5.04297 159.02 5.04297C159.996 5.04297 160.891 5.21484 161.703 5.55859C162.523 5.90234 163.133 6.27344 163.531 6.67188C164.094 7.25 164.559 7.96484 164.926 8.81641C165.176 9.41016 165.301 10.0977 165.301 10.8789V11.8984ZM162.641 9.49609C162.273 8.80859 161.793 8.29688 161.199 7.96094C160.605 7.61719 159.898 7.44531 159.078 7.44531C158.266 7.44531 157.562 7.61719 156.969 7.96094C156.375 8.29688 155.891 8.80859 155.516 9.49609H162.641ZM176.328 6.07422V5.35938H179.141C179.719 5.35938 180.129 5.47266 180.371 5.69922C180.621 5.91797 180.746 6.20703 180.746 6.56641C180.746 6.91797 180.621 7.20703 180.371 7.43359C180.129 7.65234 179.719 7.76172 179.141 7.76172H178.73V16.5039C178.73 17.3477 178.551 18.082 178.191 18.707C177.84 19.3398 177.297 19.8828 176.562 20.3359C175.828 20.7891 175 21.0156 174.078 21.0156H171.359C170.781 21.0156 170.367 20.9023 170.117 20.6758C169.875 20.457 169.754 20.1719 169.754 19.8203C169.754 19.4609 169.875 19.168 170.117 18.9414C170.367 18.7227 170.781 18.6133 171.359 18.6133H174.008C174.742 18.6133 175.312 18.4141 175.719 18.0156C176.125 17.6172 176.328 17.1133 176.328 16.5039V15.332C175.797 15.6758 175.254 15.9336 174.699 16.1055C174.152 16.2773 173.59 16.3633 173.012 16.3633C171.379 16.3633 170.012 15.8203 168.91 14.7344C167.809 13.6406 167.258 12.293 167.258 10.6914C167.258 9.08203 167.809 7.73438 168.91 6.64844C170.012 5.55469 171.379 5.00781 173.012 5.00781C173.621 5.00781 174.199 5.09766 174.746 5.27734C175.301 5.44922 175.828 5.71484 176.328 6.07422ZM176.316 10.6797C176.316 9.79688 175.988 9.03125 175.332 8.38281C174.684 7.73438 173.902 7.41016 172.988 7.41016C172.074 7.41016 171.289 7.73438 170.633 8.38281C169.984 9.03125 169.66 9.79688 169.66 10.6797C169.66 11.5703 169.984 12.3398 170.633 12.9883C171.289 13.6289 172.074 13.9492 172.988 13.9492C173.902 13.9492 174.684 13.6289 175.332 12.9883C175.988 12.3398 176.316 11.5703 176.316 10.6797ZM188.961 0.800781V3.34375H186.102V0.800781H188.961ZM189.289 5.35938V13.5977H192.172C192.75 13.5977 193.16 13.7109 193.402 13.9375C193.652 14.1562 193.777 14.4453 193.777 14.8047C193.777 15.1562 193.652 15.4453 193.402 15.6719C193.16 15.8906 192.75 16 192.172 16H184.004C183.426 16 183.012 15.8906 182.762 15.6719C182.52 15.4453 182.398 15.1523 182.398 14.793C182.398 14.4414 182.52 14.1562 182.762 13.9375C183.012 13.7109 183.426 13.5977 184.004 13.5977H186.887V7.76172H184.953C184.383 7.76172 183.973 7.65234 183.723 7.43359C183.473 7.20703 183.348 6.91406 183.348 6.55469C183.348 6.20312 183.469 5.91797 183.711 5.69922C183.961 5.47266 184.375 5.35938 184.953 5.35938H189.289ZM200.082 5.35938V6.16797C200.52 5.79297 201 5.51172 201.523 5.32422C202.055 5.13672 202.629 5.04297 203.246 5.04297C204.668 5.04297 205.793 5.48438 206.621 6.36719C207.277 7.07031 207.605 7.99219 207.605 9.13281V13.5977C208.113 13.5977 208.488 13.7109 208.73 13.9375C208.973 14.1562 209.094 14.4453 209.094 14.8047C209.094 15.1562 208.969 15.4453 208.719 15.6719C208.477 15.8906 208.066 16 207.488 16H205.32C204.742 16 204.328 15.8906 204.078 15.6719C203.836 15.4453 203.715 15.1523 203.715 14.793C203.715 14.4414 203.836 14.1562 204.078 13.9375C204.32 13.7109 204.695 13.5977 205.203 13.5977V9.0625C205.203 8.53906 205.062 8.15625 204.781 7.91406C204.414 7.60156 203.863 7.44531 203.129 7.44531C202.574 7.44531 202.086 7.55469 201.664 7.77344C201.25 7.98438 200.723 8.4375 200.082 9.13281V13.5977C200.699 13.5977 201.098 13.6562 201.277 13.7734C201.66 14.0078 201.852 14.3516 201.852 14.8047C201.852 15.1562 201.727 15.4453 201.477 15.6719C201.234 15.8906 200.824 16 200.246 16H197.516C196.938 16 196.523 15.8906 196.273 15.6719C196.031 15.4453 195.91 15.1523 195.91 14.793C195.91 14.3555 196.098 14.0156 196.473 13.7734C196.66 13.6562 197.062 13.5977 197.68 13.5977V7.76172C197.172 7.76172 196.797 7.64844 196.555 7.42188C196.312 7.19531 196.191 6.90625 196.191 6.55469C196.191 6.20312 196.312 5.91797 196.555 5.69922C196.805 5.47266 197.219 5.35938 197.797 5.35938H200.082ZM219.523 8.17188C219.133 7.92969 218.723 7.75 218.293 7.63281C217.863 7.50781 217.414 7.44531 216.945 7.44531C216.016 7.44531 215.277 7.59766 214.73 7.90234C214.488 8.03516 214.367 8.17969 214.367 8.33594C214.367 8.51562 214.531 8.69141 214.859 8.86328C215.109 8.98828 215.668 9.10938 216.535 9.22656C218.129 9.44531 219.238 9.66406 219.863 9.88281C220.684 10.1719 221.316 10.6016 221.762 11.1719C222.207 11.7422 222.43 12.3438 222.43 12.9766C222.43 13.8359 222.051 14.5547 221.293 15.1328C220.207 15.9688 218.797 16.3867 217.062 16.3867C216.367 16.3867 215.723 16.3242 215.129 16.1992C214.543 16.082 214.004 15.9062 213.512 15.6719C213.395 15.7734 213.27 15.8516 213.137 15.9062C213.004 15.9609 212.867 15.9883 212.727 15.9883C212.352 15.9883 212.051 15.8672 211.824 15.625C211.605 15.375 211.496 14.9609 211.496 14.3828V13.5742C211.496 12.9961 211.605 12.5859 211.824 12.3438C212.051 12.0938 212.344 11.9688 212.703 11.9688C212.992 11.9688 213.234 12.0508 213.43 12.2148C213.625 12.3711 213.777 12.6445 213.887 13.0352C214.254 13.3477 214.695 13.5859 215.211 13.75C215.727 13.9062 216.32 13.9844 216.992 13.9844C218.094 13.9844 218.949 13.8125 219.559 13.4688C219.848 13.2969 219.992 13.1172 219.992 12.9297C219.992 12.6172 219.785 12.3594 219.371 12.1562C218.957 11.9531 218.102 11.7812 216.805 11.6406C214.875 11.4375 213.586 11.0469 212.938 10.4688C212.289 9.89844 211.965 9.19531 211.965 8.35938C211.965 7.5 212.328 6.78516 213.055 6.21484C214.039 5.43359 215.328 5.04297 216.922 5.04297C217.477 5.04297 218.008 5.09766 218.516 5.20703C219.031 5.30859 219.523 5.46875 219.992 5.6875C220.141 5.57812 220.277 5.49609 220.402 5.44141C220.535 5.38672 220.656 5.35938 220.766 5.35938C221.094 5.35938 221.367 5.48438 221.586 5.73438C221.805 5.97656 221.914 6.38672 221.914 6.96484V7.55078C221.914 8.07422 221.852 8.42969 221.727 8.61719C221.477 8.97656 221.137 9.15625 220.707 9.15625C220.418 9.15625 220.164 9.06641 219.945 8.88672C219.727 8.70703 219.586 8.46875 219.523 8.17188Z" fill="white"/>
<path d="M408.199 177.199V186.598H413.379V184.324C413.379 183.746 413.488 183.336 413.707 183.094C413.934 182.844 414.227 182.719 414.586 182.719C414.938 182.719 415.223 182.844 415.441 183.094C415.668 183.336 415.781 183.746 415.781 184.324V189H404.402C403.824 189 403.41 188.891 403.16 188.672C402.918 188.445 402.797 188.152 402.797 187.793C402.797 187.441 402.918 187.156 403.16 186.938C403.41 186.711 403.824 186.598 404.402 186.598H405.797V177.199H404.402C403.824 177.199 403.41 177.09 403.16 176.871C402.918 176.645 402.797 176.352 402.797 175.992C402.797 175.633 402.918 175.344 403.16 175.125C403.41 174.898 403.824 174.785 404.402 174.785L409.605 174.797C410.184 174.797 410.594 174.906 410.836 175.125C411.086 175.344 411.211 175.633 411.211 175.992C411.211 176.352 411.086 176.645 410.836 176.871C410.594 177.09 410.184 177.199 409.605 177.199H408.199ZM428.719 178.359V186.598C429.227 186.598 429.602 186.711 429.844 186.938C430.086 187.164 430.207 187.453 430.207 187.805C430.207 188.156 430.082 188.445 429.832 188.672C429.59 188.891 429.18 189 428.602 189H426.316V188.449C425.629 188.762 424.973 188.996 424.348 189.152C423.723 189.309 423.129 189.387 422.566 189.387C421.777 189.387 421.094 189.223 420.516 188.895C419.938 188.559 419.48 188.098 419.145 187.512C418.902 187.09 418.781 186.562 418.781 185.93V180.762H418.371C417.793 180.762 417.379 180.652 417.129 180.434C416.887 180.207 416.766 179.914 416.766 179.555C416.766 179.203 416.887 178.918 417.129 178.699C417.379 178.473 417.793 178.359 418.371 178.359H421.184V185.508C421.184 186.016 421.305 186.391 421.547 186.633C421.797 186.867 422.176 186.984 422.684 186.984C423.168 186.984 423.688 186.891 424.242 186.703C424.805 186.508 425.496 186.16 426.316 185.66V180.762H425.449C424.871 180.762 424.457 180.652 424.207 180.434C423.965 180.207 423.844 179.914 423.844 179.555C423.844 179.203 423.965 178.918 424.207 178.699C424.457 178.473 424.871 178.359 425.449 178.359H428.719ZM435.598 178.359V179.168C436.035 178.793 436.516 178.512 437.039 178.324C437.57 178.137 438.145 178.043 438.762 178.043C440.184 178.043 441.309 178.484 442.137 179.367C442.793 180.07 443.121 180.992 443.121 182.133V186.598C443.629 186.598 444.004 186.711 444.246 186.938C444.488 187.156 444.609 187.445 444.609 187.805C444.609 188.156 444.484 188.445 444.234 188.672C443.992 188.891 443.582 189 443.004 189H440.836C440.258 189 439.844 188.891 439.594 188.672C439.352 188.445 439.23 188.152 439.23 187.793C439.23 187.441 439.352 187.156 439.594 186.938C439.836 186.711 440.211 186.598 440.719 186.598V182.062C440.719 181.539 440.578 181.156 440.297 180.914C439.93 180.602 439.379 180.445 438.645 180.445C438.09 180.445 437.602 180.555 437.18 180.773C436.766 180.984 436.238 181.438 435.598 182.133V186.598C436.215 186.598 436.613 186.656 436.793 186.773C437.176 187.008 437.367 187.352 437.367 187.805C437.367 188.156 437.242 188.445 436.992 188.672C436.75 188.891 436.34 189 435.762 189H433.031C432.453 189 432.039 188.891 431.789 188.672C431.547 188.445 431.426 188.152 431.426 187.793C431.426 187.355 431.613 187.016 431.988 186.773C432.176 186.656 432.578 186.598 433.195 186.598V180.762C432.688 180.762 432.312 180.648 432.07 180.422C431.828 180.195 431.707 179.906 431.707 179.555C431.707 179.203 431.828 178.918 432.07 178.699C432.32 178.473 432.734 178.359 433.312 178.359H435.598ZM456.188 178.793C456.477 178.52 456.773 178.383 457.078 178.383C457.422 178.383 457.703 178.508 457.922 178.758C458.148 179 458.262 179.406 458.262 179.977V181.523C458.262 182.102 458.148 182.512 457.922 182.754C457.703 182.996 457.414 183.117 457.055 183.117C456.727 183.117 456.449 183.023 456.223 182.836C456.059 182.695 455.93 182.41 455.836 181.98C455.742 181.543 455.516 181.219 455.156 181.008C454.523 180.633 453.715 180.445 452.73 180.445C451.598 180.445 450.688 180.777 450 181.441C449.32 182.105 448.98 182.945 448.98 183.961C448.98 184.898 449.309 185.641 449.965 186.188C450.621 186.727 451.711 186.996 453.234 186.996C454.234 186.996 455.051 186.895 455.684 186.691C456.059 186.566 456.414 186.355 456.75 186.059C457.086 185.754 457.391 185.602 457.664 185.602C457.992 185.602 458.273 185.723 458.508 185.965C458.75 186.207 458.871 186.492 458.871 186.82C458.871 187.352 458.508 187.855 457.781 188.332C456.703 189.043 455.125 189.398 453.047 189.398C451.18 189.398 449.727 189.012 448.688 188.238C447.281 187.199 446.578 185.777 446.578 183.973C446.578 182.262 447.148 180.848 448.289 179.73C449.43 178.605 450.918 178.043 452.754 178.043C453.418 178.043 454.035 178.105 454.605 178.23C455.176 178.355 455.703 178.543 456.188 178.793ZM464.379 173.801V178.922C464.879 178.625 465.383 178.406 465.891 178.266C466.406 178.117 466.926 178.043 467.449 178.043C468.277 178.043 469.016 178.184 469.664 178.465C470.312 178.746 470.848 179.191 471.27 179.801C471.699 180.402 471.914 181.164 471.914 182.086V186.598C472.523 186.598 472.922 186.656 473.109 186.773C473.484 187.016 473.672 187.359 473.672 187.805C473.672 188.156 473.551 188.445 473.309 188.672C473.066 188.891 472.656 189 472.078 189H469.336C468.766 189 468.355 188.891 468.105 188.672C467.863 188.445 467.742 188.152 467.742 187.793C467.742 187.355 467.93 187.016 468.305 186.773C468.5 186.648 468.898 186.59 469.5 186.598V182.25C469.5 181.633 469.359 181.199 469.078 180.949C468.711 180.613 468.168 180.445 467.449 180.445C466.918 180.445 466.445 180.551 466.031 180.762C465.625 180.965 465.074 181.41 464.379 182.098V186.598C464.996 186.598 465.395 186.656 465.574 186.773C465.957 187.016 466.148 187.359 466.148 187.805C466.148 188.156 466.023 188.445 465.773 188.672C465.531 188.891 465.121 189 464.543 189H461.812C461.234 189 460.82 188.891 460.57 188.672C460.328 188.445 460.207 188.152 460.207 187.793C460.207 187.355 460.398 187.016 460.781 186.773C460.969 186.648 461.367 186.59 461.977 186.598V176.203H461.566C460.988 176.203 460.574 176.094 460.324 175.875C460.082 175.648 459.961 175.355 459.961 174.996C459.961 174.645 460.082 174.359 460.324 174.141C460.574 173.914 460.988 173.801 461.566 173.801H464.379Z" fill="white"/>
<path d="M525.812 11.125V13.5977H528.238C528.816 13.5977 529.227 13.7109 529.469 13.9375C529.719 14.1562 529.844 14.4453 529.844 14.8047C529.844 15.1562 529.719 15.4453 529.469 15.6719C529.227 15.8906 528.816 16 528.238 16H523.035C522.457 16 522.043 15.8906 521.793 15.6719C521.551 15.4453 521.43 15.1523 521.43 14.793C521.43 14.4414 521.555 14.1562 521.805 13.9375C522.055 13.7109 522.465 13.5977 523.035 13.5977H523.41V4.19922H523.035C522.457 4.19922 522.043 4.08984 521.793 3.87109C521.551 3.64453 521.43 3.35156 521.43 2.99219C521.43 2.63281 521.551 2.34375 521.793 2.125C522.043 1.89844 522.457 1.78516 523.035 1.78516L528.566 1.79688C530.191 1.79688 531.477 2.24219 532.422 3.13281C533.375 4.01562 533.852 5.09375 533.852 6.36719C533.852 7.07031 533.691 7.73438 533.371 8.35938C533.129 8.82812 532.723 9.29297 532.152 9.75391C531.59 10.207 531.012 10.5508 530.418 10.7852C529.832 11.0117 529.055 11.125 528.086 11.125H525.812ZM525.812 8.72266H528.039C529.086 8.72266 529.914 8.48828 530.523 8.01953C531.141 7.54297 531.449 6.97266 531.449 6.30859C531.449 5.74609 531.199 5.25391 530.699 4.83203C530.207 4.41016 529.5 4.19922 528.578 4.19922H525.812V8.72266ZM541.117 5.35938V6.85938C542.125 6.13281 542.918 5.64844 543.496 5.40625C544.082 5.16406 544.629 5.04297 545.137 5.04297C545.918 5.04297 546.676 5.33203 547.41 5.91016C547.91 6.30078 548.16 6.69922 548.16 7.10547C548.16 7.44922 548.039 7.74219 547.797 7.98438C547.562 8.21875 547.277 8.33594 546.941 8.33594C546.645 8.33594 546.332 8.1875 546.004 7.89062C545.676 7.59375 545.383 7.44531 545.125 7.44531C544.789 7.44531 544.285 7.65625 543.613 8.07812C542.949 8.5 542.117 9.13281 541.117 9.97656V13.5977H544.539C545.117 13.5977 545.527 13.7109 545.77 13.9375C546.02 14.1562 546.145 14.4453 546.145 14.8047C546.145 15.1562 546.02 15.4453 545.77 15.6719C545.527 15.8906 545.117 16 544.539 16H537.285C536.707 16 536.293 15.8906 536.043 15.6719C535.801 15.4453 535.68 15.1523 535.68 14.793C535.68 14.4414 535.801 14.1562 536.043 13.9375C536.293 13.7109 536.707 13.5977 537.285 13.5977H538.715V7.76172H537.848C537.27 7.76172 536.855 7.65234 536.605 7.43359C536.363 7.20703 536.242 6.91406 536.242 6.55469C536.242 6.20312 536.363 5.91797 536.605 5.69922C536.855 5.47266 537.27 5.35938 537.848 5.35938H541.117ZM562.27 10.8789C562.27 11.8008 562.012 12.6953 561.496 13.5625C560.988 14.4219 560.227 15.1094 559.211 15.625C558.203 16.1328 557.148 16.3867 556.047 16.3867C554.953 16.3867 553.906 16.1367 552.906 15.6367C551.906 15.1289 551.145 14.4414 550.621 13.5742C550.098 12.707 549.836 11.8008 549.836 10.8555C549.836 9.89453 550.102 8.95312 550.633 8.03125C551.164 7.10156 551.926 6.37109 552.918 5.83984C553.918 5.30859 554.961 5.04297 556.047 5.04297C557.141 5.04297 558.191 5.31641 559.199 5.86328C560.215 6.40234 560.98 7.13281 561.496 8.05469C562.012 8.96875 562.27 9.91016 562.27 10.8789ZM559.867 10.8906C559.867 10.1172 559.59 9.40625 559.035 8.75781C558.277 7.88281 557.281 7.44531 556.047 7.44531C554.961 7.44531 554.055 7.79297 553.328 8.48828C552.602 9.18359 552.238 9.98828 552.238 10.9023C552.238 11.6523 552.605 12.3555 553.34 13.0117C554.074 13.6602 554.977 13.9844 556.047 13.9844C557.125 13.9844 558.031 13.6602 558.766 13.0117C559.5 12.3555 559.867 11.6484 559.867 10.8906ZM572.863 0.800781V3.34375H569.992V0.800781H572.863ZM571.879 7.76172H566.98C566.402 7.76172 565.988 7.65234 565.738 7.43359C565.496 7.20703 565.375 6.91406 565.375 6.55469C565.375 6.20312 565.496 5.91797 565.738 5.69922C565.988 5.47266 566.402 5.35938 566.98 5.35938H574.281V16.5039C574.281 17.3477 574.102 18.082 573.742 18.707C573.391 19.3398 572.848 19.8828 572.113 20.3359C571.379 20.7891 570.551 21.0156 569.629 21.0156H566.91C566.332 21.0156 565.918 20.9023 565.668 20.6758C565.426 20.457 565.305 20.1719 565.305 19.8203C565.305 19.4609 565.426 19.168 565.668 18.9414C565.918 18.7227 566.332 18.6133 566.91 18.6133H569.559C570.293 18.6133 570.863 18.4141 571.27 18.0156C571.676 17.6172 571.879 17.1133 571.879 16.5039V7.76172ZM590.887 11.8984H581.031C581.281 12.5234 581.723 13.0273 582.355 13.4102C582.996 13.793 583.859 13.9844 584.945 13.9844C585.836 13.9844 587.02 13.793 588.496 13.4102C589.105 13.2539 589.527 13.1758 589.762 13.1758C590.082 13.1758 590.352 13.2891 590.57 13.5156C590.789 13.7422 590.898 14.0273 590.898 14.3711C590.898 14.6836 590.781 14.9492 590.547 15.168C590.234 15.457 589.473 15.7344 588.262 16C587.051 16.2578 585.887 16.3867 584.77 16.3867C582.848 16.3867 581.309 15.8438 580.152 14.7578C579.004 13.6719 578.43 12.3359 578.43 10.75C578.43 9.0625 579.051 7.69141 580.293 6.63672C581.543 5.57422 582.98 5.04297 584.605 5.04297C585.582 5.04297 586.477 5.21484 587.289 5.55859C588.109 5.90234 588.719 6.27344 589.117 6.67188C589.68 7.25 590.145 7.96484 590.512 8.81641C590.762 9.41016 590.887 10.0977 590.887 10.8789V11.8984ZM588.227 9.49609C587.859 8.80859 587.379 8.29688 586.785 7.96094C586.191 7.61719 585.484 7.44531 584.664 7.44531C583.852 7.44531 583.148 7.61719 582.555 7.96094C581.961 8.29688 581.477 8.80859 581.102 9.49609H588.227ZM603.016 5.79297C603.305 5.51953 603.602 5.38281 603.906 5.38281C604.25 5.38281 604.531 5.50781 604.75 5.75781C604.977 6 605.09 6.40625 605.09 6.97656V8.52344C605.09 9.10156 604.977 9.51172 604.75 9.75391C604.531 9.99609 604.242 10.1172 603.883 10.1172C603.555 10.1172 603.277 10.0234 603.051 9.83594C602.887 9.69531 602.758 9.41016 602.664 8.98047C602.57 8.54297 602.344 8.21875 601.984 8.00781C601.352 7.63281 600.543 7.44531 599.559 7.44531C598.426 7.44531 597.516 7.77734 596.828 8.44141C596.148 9.10547 595.809 9.94531 595.809 10.9609C595.809 11.8984 596.137 12.6406 596.793 13.1875C597.449 13.7266 598.539 13.9961 600.062 13.9961C601.062 13.9961 601.879 13.8945 602.512 13.6914C602.887 13.5664 603.242 13.3555 603.578 13.0586C603.914 12.7539 604.219 12.6016 604.492 12.6016C604.82 12.6016 605.102 12.7227 605.336 12.9648C605.578 13.207 605.699 13.4922 605.699 13.8203C605.699 14.3516 605.336 14.8555 604.609 15.332C603.531 16.043 601.953 16.3984 599.875 16.3984C598.008 16.3984 596.555 16.0117 595.516 15.2383C594.109 14.1992 593.406 12.7773 593.406 10.9727C593.406 9.26172 593.977 7.84766 595.117 6.73047C596.258 5.60547 597.746 5.04297 599.582 5.04297C600.246 5.04297 600.863 5.10547 601.434 5.23047C602.004 5.35547 602.531 5.54297 603.016 5.79297ZM613.094 7.76172V12.5781C613.094 13.0938 613.199 13.4336 613.41 13.5977C613.738 13.8555 614.324 13.9844 615.168 13.9844C616.395 13.9844 617.527 13.7227 618.566 13.1992C618.965 12.9961 619.277 12.8945 619.504 12.8945C619.816 12.8945 620.086 13.0117 620.312 13.2461C620.547 13.4805 620.664 13.7656 620.664 14.1016C620.664 14.4141 620.539 14.6836 620.289 14.9102C619.906 15.2773 619.148 15.6172 618.016 15.9297C616.891 16.2344 615.941 16.3867 615.168 16.3867C613.676 16.3867 612.555 16.0664 611.805 15.4258C611.062 14.7773 610.691 13.9844 610.691 13.0469V7.76172H609.824C609.246 7.76172 608.832 7.65234 608.582 7.43359C608.34 7.20703 608.219 6.91406 608.219 6.55469C608.219 6.20312 608.34 5.91797 608.582 5.69922C608.832 5.47266 609.246 5.35938 609.824 5.35938H610.691V3.19141C610.691 2.61328 610.801 2.20313 611.02 1.96094C611.246 1.71094 611.539 1.58594 611.898 1.58594C612.25 1.58594 612.535 1.71094 612.754 1.96094C612.98 2.20313 613.094 2.61328 613.094 3.19141V5.35938H617.535C618.113 5.35938 618.523 5.47266 618.766 5.69922C619.016 5.91797 619.141 6.20703 619.141 6.56641C619.141 6.91797 619.016 7.20703 618.766 7.43359C618.523 7.65234 618.113 7.76172 617.535 7.76172H613.094ZM639.004 15.3906C638.793 15.6406 638.621 15.8008 638.488 15.8711C638.363 15.9414 638.207 15.9766 638.02 15.9766C637.652 15.9766 637.355 15.8555 637.129 15.6133C636.91 15.3633 636.801 14.9531 636.801 14.3828V12.7656C636.801 12.1875 636.91 11.7773 637.129 11.5352C637.355 11.2852 637.652 11.1602 638.02 11.1602C638.301 11.1602 638.535 11.2344 638.723 11.3828C638.918 11.5312 639.066 11.7812 639.168 12.1328C639.27 12.4766 639.375 12.7109 639.484 12.8359C639.711 13.0781 640.113 13.3242 640.691 13.5742C641.27 13.8242 641.902 13.9492 642.59 13.9492C643.66 13.9492 644.539 13.6992 645.227 13.1992C645.664 12.8945 645.883 12.5195 645.883 12.0742C645.883 11.7773 645.777 11.5 645.566 11.2422C645.355 10.9766 645.012 10.7578 644.535 10.5859C644.223 10.4688 643.523 10.3086 642.438 10.1055C641.125 9.86328 640.133 9.57031 639.461 9.22656C638.789 8.88281 638.258 8.39844 637.867 7.77344C637.477 7.14844 637.281 6.47266 637.281 5.74609C637.281 4.59766 637.762 3.59375 638.723 2.73438C639.684 1.86719 640.934 1.43359 642.473 1.43359C643.09 1.43359 643.66 1.50391 644.184 1.64453C644.715 1.77734 645.195 1.98438 645.625 2.26562C645.938 1.96094 646.25 1.80859 646.562 1.80859C646.914 1.80859 647.199 1.93359 647.418 2.18359C647.645 2.42578 647.758 2.83203 647.758 3.40234V5.20703C647.758 5.78516 647.645 6.19922 647.418 6.44922C647.199 6.69141 646.914 6.8125 646.562 6.8125C646.266 6.8125 646.008 6.72266 645.789 6.54297C645.617 6.41016 645.488 6.14453 645.402 5.74609C645.316 5.34766 645.207 5.0625 645.074 4.89062C644.848 4.59375 644.508 4.34375 644.055 4.14062C643.602 3.9375 643.078 3.83594 642.484 3.83594C641.617 3.83594 640.93 4.03906 640.422 4.44531C639.922 4.84375 639.672 5.26172 639.672 5.69922C639.672 5.99609 639.773 6.28516 639.977 6.56641C640.188 6.83984 640.492 7.05469 640.891 7.21094C641.156 7.32031 641.902 7.49609 643.129 7.73828C644.363 7.98047 645.309 8.24609 645.965 8.53516C646.629 8.82422 647.18 9.27734 647.617 9.89453C648.055 10.5117 648.273 11.2461 648.273 12.0977C648.273 13.2852 647.855 14.2344 647.02 14.9453C645.91 15.8828 644.496 16.3516 642.777 16.3516C642.113 16.3516 641.465 16.2695 640.832 16.1055C640.207 15.9492 639.598 15.7109 639.004 15.3906ZM654.449 0.800781V5.92188C654.949 5.625 655.453 5.40625 655.961 5.26562C656.477 5.11719 656.996 5.04297 657.52 5.04297C658.348 5.04297 659.086 5.18359 659.734 5.46484C660.383 5.74609 660.918 6.19141 661.34 6.80078C661.77 7.40234 661.984 8.16406 661.984 9.08594V13.5977C662.594 13.5977 662.992 13.6562 663.18 13.7734C663.555 14.0156 663.742 14.3594 663.742 14.8047C663.742 15.1562 663.621 15.4453 663.379 15.6719C663.137 15.8906 662.727 16 662.148 16H659.406C658.836 16 658.426 15.8906 658.176 15.6719C657.934 15.4453 657.812 15.1523 657.812 14.793C657.812 14.3555 658 14.0156 658.375 13.7734C658.57 13.6484 658.969 13.5898 659.57 13.5977V9.25C659.57 8.63281 659.43 8.19922 659.148 7.94922C658.781 7.61328 658.238 7.44531 657.52 7.44531C656.988 7.44531 656.516 7.55078 656.102 7.76172C655.695 7.96484 655.145 8.41016 654.449 9.09766V13.5977C655.066 13.5977 655.465 13.6562 655.645 13.7734C656.027 14.0156 656.219 14.3594 656.219 14.8047C656.219 15.1562 656.094 15.4453 655.844 15.6719C655.602 15.8906 655.191 16 654.613 16H651.883C651.305 16 650.891 15.8906 650.641 15.6719C650.398 15.4453 650.277 15.1523 650.277 14.793C650.277 14.3555 650.469 14.0156 650.852 13.7734C651.039 13.6484 651.438 13.5898 652.047 13.5977V3.20312H651.637C651.059 3.20312 650.645 3.09375 650.395 2.875C650.152 2.64844 650.031 2.35547 650.031 1.99609C650.031 1.64453 650.152 1.35938 650.395 1.14062C650.645 0.914063 651.059 0.800781 651.637 0.800781H654.449ZM677.582 10.8789C677.582 11.8008 677.324 12.6953 676.809 13.5625C676.301 14.4219 675.539 15.1094 674.523 15.625C673.516 16.1328 672.461 16.3867 671.359 16.3867C670.266 16.3867 669.219 16.1367 668.219 15.6367C667.219 15.1289 666.457 14.4414 665.934 13.5742C665.41 12.707 665.148 11.8008 665.148 10.8555C665.148 9.89453 665.414 8.95312 665.945 8.03125C666.477 7.10156 667.238 6.37109 668.23 5.83984C669.23 5.30859 670.273 5.04297 671.359 5.04297C672.453 5.04297 673.504 5.31641 674.512 5.86328C675.527 6.40234 676.293 7.13281 676.809 8.05469C677.324 8.96875 677.582 9.91016 677.582 10.8789ZM675.18 10.8906C675.18 10.1172 674.902 9.40625 674.348 8.75781C673.59 7.88281 672.594 7.44531 671.359 7.44531C670.273 7.44531 669.367 7.79297 668.641 8.48828C667.914 9.18359 667.551 9.98828 667.551 10.9023C667.551 11.6523 667.918 12.3555 668.652 13.0117C669.387 13.6602 670.289 13.9844 671.359 13.9844C672.438 13.9844 673.344 13.6602 674.078 13.0117C674.812 12.3555 675.18 11.6484 675.18 10.8906ZM685.773 11.5703L684.109 16H681.848L679.832 7.76172C679.395 7.73828 679.062 7.61719 678.836 7.39844C678.617 7.17188 678.508 6.89062 678.508 6.55469C678.508 6.20312 678.629 5.91797 678.871 5.69922C679.121 5.47266 679.535 5.35938 680.113 5.35938H682.352C682.93 5.35938 683.34 5.47266 683.582 5.69922C683.832 5.91797 683.957 6.20703 683.957 6.56641C683.957 6.92578 683.816 7.23047 683.535 7.48047C683.324 7.66797 682.91 7.76172 682.293 7.76172L683.207 11.5703L684.695 7.66797H686.828L688.328 11.5703L689.266 7.76172C688.672 7.76172 688.281 7.70312 688.094 7.58594C687.719 7.34375 687.531 7 687.531 6.55469C687.531 6.20312 687.652 5.91797 687.895 5.69922C688.145 5.47266 688.559 5.35938 689.137 5.35938H691.398C691.977 5.35938 692.387 5.47266 692.629 5.69922C692.879 5.91797 693.004 6.20703 693.004 6.56641C693.004 6.88672 692.895 7.16016 692.676 7.38672C692.465 7.60547 692.148 7.73047 691.727 7.76172L689.758 16H687.531L685.773 11.5703ZM703.914 5.79297C704.203 5.51953 704.5 5.38281 704.805 5.38281C705.148 5.38281 705.43 5.50781 705.648 5.75781C705.875 6 705.988 6.40625 705.988 6.97656V8.52344C705.988 9.10156 705.875 9.51172 705.648 9.75391C705.43 9.99609 705.141 10.1172 704.781 10.1172C704.453 10.1172 704.176 10.0234 703.949 9.83594C703.785 9.69531 703.656 9.41016 703.562 8.98047C703.469 8.54297 703.242 8.21875 702.883 8.00781C702.25 7.63281 701.441 7.44531 700.457 7.44531C699.324 7.44531 698.414 7.77734 697.727 8.44141C697.047 9.10547 696.707 9.94531 696.707 10.9609C696.707 11.8984 697.035 12.6406 697.691 13.1875C698.348 13.7266 699.438 13.9961 700.961 13.9961C701.961 13.9961 702.777 13.8945 703.41 13.6914C703.785 13.5664 704.141 13.3555 704.477 13.0586C704.812 12.7539 705.117 12.6016 705.391 12.6016C705.719 12.6016 706 12.7227 706.234 12.9648C706.477 13.207 706.598 13.4922 706.598 13.8203C706.598 14.3516 706.234 14.8555 705.508 15.332C704.43 16.043 702.852 16.3984 700.773 16.3984C698.906 16.3984 697.453 16.0117 696.414 15.2383C695.008 14.1992 694.305 12.7773 694.305 10.9727C694.305 9.26172 694.875 7.84766 696.016 6.73047C697.156 5.60547 698.645 5.04297 700.48 5.04297C701.145 5.04297 701.762 5.10547 702.332 5.23047C702.902 5.35547 703.43 5.54297 703.914 5.79297ZM716.746 16V15.4375C716.145 15.7578 715.48 15.9961 714.754 16.1523C714.027 16.3164 713.367 16.3984 712.773 16.3984C711.484 16.3984 710.438 16.0586 709.633 15.3789C708.828 14.6914 708.426 13.9336 708.426 13.1055C708.426 12.0977 708.938 11.1641 709.961 10.3047C710.992 9.4375 712.414 9.00391 714.227 9.00391C714.953 9.00391 715.793 9.08203 716.746 9.23828V8.66406C716.746 8.30469 716.59 8.01172 716.277 7.78516C715.973 7.55859 715.387 7.44531 714.52 7.44531C713.809 7.44531 712.887 7.58594 711.754 7.86719C711.332 7.96875 711.004 8.01953 710.77 8.01953C710.449 8.01953 710.176 7.90625 709.949 7.67969C709.73 7.44531 709.621 7.14844 709.621 6.78906C709.621 6.58594 709.66 6.41016 709.738 6.26172C709.816 6.11328 709.926 5.99609 710.066 5.91016C710.207 5.81641 710.5 5.70703 710.945 5.58203C711.539 5.41797 712.145 5.28906 712.762 5.19531C713.379 5.09375 713.938 5.04297 714.438 5.04297C715.93 5.04297 717.086 5.36719 717.906 6.01562C718.734 6.65625 719.148 7.53516 719.148 8.65234V13.5977H719.559C720.137 13.5977 720.547 13.7109 720.789 13.9375C721.039 14.1562 721.164 14.4453 721.164 14.8047C721.164 15.1562 721.039 15.4453 720.789 15.6719C720.547 15.8906 720.137 16 719.559 16H716.746ZM716.746 11.6992C715.785 11.5117 714.898 11.418 714.086 11.418C713.109 11.418 712.27 11.6562 711.566 12.1328C711.129 12.4375 710.91 12.7461 710.91 13.0586C710.91 13.2852 711.016 13.4688 711.227 13.6094C711.617 13.8672 712.152 13.9961 712.832 13.9961C713.41 13.9961 714.062 13.8828 714.789 13.6562C715.523 13.4297 716.176 13.1211 716.746 12.7305V11.6992ZM731.594 8.17188C731.203 7.92969 730.793 7.75 730.363 7.63281C729.934 7.50781 729.484 7.44531 729.016 7.44531C728.086 7.44531 727.348 7.59766 726.801 7.90234C726.559 8.03516 726.438 8.17969 726.438 8.33594C726.438 8.51562 726.602 8.69141 726.93 8.86328C727.18 8.98828 727.738 9.10938 728.605 9.22656C730.199 9.44531 731.309 9.66406 731.934 9.88281C732.754 10.1719 733.387 10.6016 733.832 11.1719C734.277 11.7422 734.5 12.3438 734.5 12.9766C734.5 13.8359 734.121 14.5547 733.363 15.1328C732.277 15.9688 730.867 16.3867 729.133 16.3867C728.438 16.3867 727.793 16.3242 727.199 16.1992C726.613 16.082 726.074 15.9062 725.582 15.6719C725.465 15.7734 725.34 15.8516 725.207 15.9062C725.074 15.9609 724.938 15.9883 724.797 15.9883C724.422 15.9883 724.121 15.8672 723.895 15.625C723.676 15.375 723.566 14.9609 723.566 14.3828V13.5742C723.566 12.9961 723.676 12.5859 723.895 12.3438C724.121 12.0938 724.414 11.9688 724.773 11.9688C725.062 11.9688 725.305 12.0508 725.5 12.2148C725.695 12.3711 725.848 12.6445 725.957 13.0352C726.324 13.3477 726.766 13.5859 727.281 13.75C727.797 13.9062 728.391 13.9844 729.062 13.9844C730.164 13.9844 731.02 13.8125 731.629 13.4688C731.918 13.2969 732.062 13.1172 732.062 12.9297C732.062 12.6172 731.855 12.3594 731.441 12.1562C731.027 11.9531 730.172 11.7812 728.875 11.6406C726.945 11.4375 725.656 11.0469 725.008 10.4688C724.359 9.89844 724.035 9.19531 724.035 8.35938C724.035 7.5 724.398 6.78516 725.125 6.21484C726.109 5.43359 727.398 5.04297 728.992 5.04297C729.547 5.04297 730.078 5.09766 730.586 5.20703C731.102 5.30859 731.594 5.46875 732.062 5.6875C732.211 5.57812 732.348 5.49609 732.473 5.44141C732.605 5.38672 732.727 5.35938 732.836 5.35938C733.164 5.35938 733.438 5.48438 733.656 5.73438C733.875 5.97656 733.984 6.38672 733.984 6.96484V7.55078C733.984 8.07422 733.922 8.42969 733.797 8.61719C733.547 8.97656 733.207 9.15625 732.777 9.15625C732.488 9.15625 732.234 9.06641 732.016 8.88672C731.797 8.70703 731.656 8.46875 731.594 8.17188ZM749.441 11.8984H739.586C739.836 12.5234 740.277 13.0273 740.91 13.4102C741.551 13.793 742.414 13.9844 743.5 13.9844C744.391 13.9844 745.574 13.793 747.051 13.4102C747.66 13.2539 748.082 13.1758 748.316 13.1758C748.637 13.1758 748.906 13.2891 749.125 13.5156C749.344 13.7422 749.453 14.0273 749.453 14.3711C749.453 14.6836 749.336 14.9492 749.102 15.168C748.789 15.457 748.027 15.7344 746.816 16C745.605 16.2578 744.441 16.3867 743.324 16.3867C741.402 16.3867 739.863 15.8438 738.707 14.7578C737.559 13.6719 736.984 12.3359 736.984 10.75C736.984 9.0625 737.605 7.69141 738.848 6.63672C740.098 5.57422 741.535 5.04297 743.16 5.04297C744.137 5.04297 745.031 5.21484 745.844 5.55859C746.664 5.90234 747.273 6.27344 747.672 6.67188C748.234 7.25 748.699 7.96484 749.066 8.81641C749.316 9.41016 749.441 10.0977 749.441 10.8789V11.8984ZM746.781 9.49609C746.414 8.80859 745.934 8.29688 745.34 7.96094C744.746 7.61719 744.039 7.44531 743.219 7.44531C742.406 7.44531 741.703 7.61719 741.109 7.96094C740.516 8.29688 740.031 8.80859 739.656 9.49609H746.781ZM767.336 13.5977V4.19922H766.961C766.383 4.19922 765.969 4.08984 765.719 3.87109C765.477 3.64453 765.355 3.35156 765.355 2.99219C765.355 2.63281 765.477 2.34375 765.719 2.125C765.969 1.89844 766.383 1.78516 766.961 1.78516H772.984C774.422 1.78516 775.578 2.1875 776.453 2.99219C777.328 3.78906 777.766 4.73828 777.766 5.83984C777.766 6.36328 777.664 6.85547 777.461 7.31641C777.258 7.77734 776.949 8.20312 776.535 8.59375C777.293 9.04688 777.859 9.57812 778.234 10.1875C778.617 10.7891 778.809 11.4727 778.809 12.2383C778.809 12.8477 778.672 13.4141 778.398 13.9375C778.195 14.3359 777.945 14.6523 777.648 14.8867C777.25 15.2148 776.762 15.4844 776.184 15.6953C775.605 15.8984 774.883 16 774.016 16H766.961C766.383 16 765.969 15.8906 765.719 15.6719C765.477 15.4453 765.355 15.1523 765.355 14.793C765.355 14.4414 765.48 14.1562 765.73 13.9375C765.98 13.7109 766.391 13.5977 766.961 13.5977H767.336ZM769.738 7.69141H772.375C773.32 7.69141 774.105 7.45312 774.73 6.97656C775.152 6.65625 775.363 6.25781 775.363 5.78125C775.363 5.35938 775.164 4.99219 774.766 4.67969C774.367 4.35938 773.734 4.19922 772.867 4.19922H769.738V7.69141ZM769.738 13.5977H773.887C774.863 13.5977 775.551 13.4531 775.949 13.1641C776.254 12.9453 776.406 12.6328 776.406 12.2266C776.406 11.7422 776.105 11.2656 775.504 10.7969C774.902 10.3281 774.039 10.0938 772.914 10.0938H769.738V13.5977ZM792.684 11.8984H782.828C783.078 12.5234 783.52 13.0273 784.152 13.4102C784.793 13.793 785.656 13.9844 786.742 13.9844C787.633 13.9844 788.816 13.793 790.293 13.4102C790.902 13.2539 791.324 13.1758 791.559 13.1758C791.879 13.1758 792.148 13.2891 792.367 13.5156C792.586 13.7422 792.695 14.0273 792.695 14.3711C792.695 14.6836 792.578 14.9492 792.344 15.168C792.031 15.457 791.27 15.7344 790.059 16C788.848 16.2578 787.684 16.3867 786.566 16.3867C784.645 16.3867 783.105 15.8438 781.949 14.7578C780.801 13.6719 780.227 12.3359 780.227 10.75C780.227 9.0625 780.848 7.69141 782.09 6.63672C783.34 5.57422 784.777 5.04297 786.402 5.04297C787.379 5.04297 788.273 5.21484 789.086 5.55859C789.906 5.90234 790.516 6.27344 790.914 6.67188C791.477 7.25 791.941 7.96484 792.309 8.81641C792.559 9.41016 792.684 10.0977 792.684 10.8789V11.8984ZM790.023 9.49609C789.656 8.80859 789.176 8.29688 788.582 7.96094C787.988 7.61719 787.281 7.44531 786.461 7.44531C785.648 7.44531 784.945 7.61719 784.352 7.96094C783.758 8.29688 783.273 8.80859 782.898 9.49609H790.023ZM803.711 6.07422V5.35938H806.523C807.102 5.35938 807.512 5.47266 807.754 5.69922C808.004 5.91797 808.129 6.20703 808.129 6.56641C808.129 6.91797 808.004 7.20703 807.754 7.43359C807.512 7.65234 807.102 7.76172 806.523 7.76172H806.113V16.5039C806.113 17.3477 805.934 18.082 805.574 18.707C805.223 19.3398 804.68 19.8828 803.945 20.3359C803.211 20.7891 802.383 21.0156 801.461 21.0156H798.742C798.164 21.0156 797.75 20.9023 797.5 20.6758C797.258 20.457 797.137 20.1719 797.137 19.8203C797.137 19.4609 797.258 19.168 797.5 18.9414C797.75 18.7227 798.164 18.6133 798.742 18.6133H801.391C802.125 18.6133 802.695 18.4141 803.102 18.0156C803.508 17.6172 803.711 17.1133 803.711 16.5039V15.332C803.18 15.6758 802.637 15.9336 802.082 16.1055C801.535 16.2773 800.973 16.3633 800.395 16.3633C798.762 16.3633 797.395 15.8203 796.293 14.7344C795.191 13.6406 794.641 12.293 794.641 10.6914C794.641 9.08203 795.191 7.73438 796.293 6.64844C797.395 5.55469 798.762 5.00781 800.395 5.00781C801.004 5.00781 801.582 5.09766 802.129 5.27734C802.684 5.44922 803.211 5.71484 803.711 6.07422ZM803.699 10.6797C803.699 9.79688 803.371 9.03125 802.715 8.38281C802.066 7.73438 801.285 7.41016 800.371 7.41016C799.457 7.41016 798.672 7.73438 798.016 8.38281C797.367 9.03125 797.043 9.79688 797.043 10.6797C797.043 11.5703 797.367 12.3398 798.016 12.9883C798.672 13.6289 799.457 13.9492 800.371 13.9492C801.285 13.9492 802.066 13.6289 802.715 12.9883C803.371 12.3398 803.699 11.5703 803.699 10.6797ZM816.344 0.800781V3.34375H813.484V0.800781H816.344ZM816.672 5.35938V13.5977H819.555C820.133 13.5977 820.543 13.7109 820.785 13.9375C821.035 14.1562 821.16 14.4453 821.16 14.8047C821.16 15.1562 821.035 15.4453 820.785 15.6719C820.543 15.8906 820.133 16 819.555 16H811.387C810.809 16 810.395 15.8906 810.145 15.6719C809.902 15.4453 809.781 15.1523 809.781 14.793C809.781 14.4414 809.902 14.1562 810.145 13.9375C810.395 13.7109 810.809 13.5977 811.387 13.5977H814.27V7.76172H812.336C811.766 7.76172 811.355 7.65234 811.105 7.43359C810.855 7.20703 810.73 6.91406 810.73 6.55469C810.73 6.20312 810.852 5.91797 811.094 5.69922C811.344 5.47266 811.758 5.35938 812.336 5.35938H816.672ZM827.465 5.35938V6.16797C827.902 5.79297 828.383 5.51172 828.906 5.32422C829.438 5.13672 830.012 5.04297 830.629 5.04297C832.051 5.04297 833.176 5.48438 834.004 6.36719C834.66 7.07031 834.988 7.99219 834.988 9.13281V13.5977C835.496 13.5977 835.871 13.7109 836.113 13.9375C836.355 14.1562 836.477 14.4453 836.477 14.8047C836.477 15.1562 836.352 15.4453 836.102 15.6719C835.859 15.8906 835.449 16 834.871 16H832.703C832.125 16 831.711 15.8906 831.461 15.6719C831.219 15.4453 831.098 15.1523 831.098 14.793C831.098 14.4414 831.219 14.1562 831.461 13.9375C831.703 13.7109 832.078 13.5977 832.586 13.5977V9.0625C832.586 8.53906 832.445 8.15625 832.164 7.91406C831.797 7.60156 831.246 7.44531 830.512 7.44531C829.957 7.44531 829.469 7.55469 829.047 7.77344C828.633 7.98438 828.105 8.4375 827.465 9.13281V13.5977C828.082 13.5977 828.48 13.6562 828.66 13.7734C829.043 14.0078 829.234 14.3516 829.234 14.8047C829.234 15.1562 829.109 15.4453 828.859 15.6719C828.617 15.8906 828.207 16 827.629 16H824.898C824.32 16 823.906 15.8906 823.656 15.6719C823.414 15.4453 823.293 15.1523 823.293 14.793C823.293 14.3555 823.48 14.0156 823.855 13.7734C824.043 13.6562 824.445 13.5977 825.062 13.5977V7.76172C824.555 7.76172 824.18 7.64844 823.938 7.42188C823.695 7.19531 823.574 6.90625 823.574 6.55469C823.574 6.20312 823.695 5.91797 823.938 5.69922C824.188 5.47266 824.602 5.35938 825.18 5.35938H827.465ZM846.906 8.17188C846.516 7.92969 846.105 7.75 845.676 7.63281C845.246 7.50781 844.797 7.44531 844.328 7.44531C843.398 7.44531 842.66 7.59766 842.113 7.90234C841.871 8.03516 841.75 8.17969 841.75 8.33594C841.75 8.51562 841.914 8.69141 842.242 8.86328C842.492 8.98828 843.051 9.10938 843.918 9.22656C845.512 9.44531 846.621 9.66406 847.246 9.88281C848.066 10.1719 848.699 10.6016 849.145 11.1719C849.59 11.7422 849.812 12.3438 849.812 12.9766C849.812 13.8359 849.434 14.5547 848.676 15.1328C847.59 15.9688 846.18 16.3867 844.445 16.3867C843.75 16.3867 843.105 16.3242 842.512 16.1992C841.926 16.082 841.387 15.9062 840.895 15.6719C840.777 15.7734 840.652 15.8516 840.52 15.9062C840.387 15.9609 840.25 15.9883 840.109 15.9883C839.734 15.9883 839.434 15.8672 839.207 15.625C838.988 15.375 838.879 14.9609 838.879 14.3828V13.5742C838.879 12.9961 838.988 12.5859 839.207 12.3438C839.434 12.0938 839.727 11.9688 840.086 11.9688C840.375 11.9688 840.617 12.0508 840.812 12.2148C841.008 12.3711 841.16 12.6445 841.27 13.0352C841.637 13.3477 842.078 13.5859 842.594 13.75C843.109 13.9062 843.703 13.9844 844.375 13.9844C845.477 13.9844 846.332 13.8125 846.941 13.4688C847.23 13.2969 847.375 13.1172 847.375 12.9297C847.375 12.6172 847.168 12.3594 846.754 12.1562C846.34 11.9531 845.484 11.7812 844.188 11.6406C842.258 11.4375 840.969 11.0469 840.32 10.4688C839.672 9.89844 839.348 9.19531 839.348 8.35938C839.348 7.5 839.711 6.78516 840.438 6.21484C841.422 5.43359 842.711 5.04297 844.305 5.04297C844.859 5.04297 845.391 5.09766 845.898 5.20703C846.414 5.30859 846.906 5.46875 847.375 5.6875C847.523 5.57812 847.66 5.49609 847.785 5.44141C847.918 5.38672 848.039 5.35938 848.148 5.35938C848.477 5.35938 848.75 5.48438 848.969 5.73438C849.188 5.97656 849.297 6.38672 849.297 6.96484V7.55078C849.297 8.07422 849.234 8.42969 849.109 8.61719C848.859 8.97656 848.52 9.15625 848.09 9.15625C847.801 9.15625 847.547 9.06641 847.328 8.88672C847.109 8.70703 846.969 8.46875 846.906 8.17188Z" fill="white"/>
<path d="M878.969 171.406C879.117 171.203 879.277 171.051 879.449 170.949C879.629 170.848 879.82 170.797 880.023 170.797C880.375 170.797 880.66 170.918 880.879 171.16C881.105 171.402 881.219 171.812 881.219 172.391V174.43C881.219 175.008 881.105 175.422 880.879 175.672C880.66 175.914 880.375 176.035 880.023 176.035C879.703 176.035 879.445 175.945 879.25 175.766C879.055 175.586 878.91 175.25 878.816 174.758C878.762 174.43 878.652 174.176 878.488 173.996C878.168 173.645 877.719 173.363 877.141 173.152C876.57 172.941 875.996 172.836 875.418 172.836C874.699 172.836 874.039 172.992 873.438 173.305C872.836 173.617 872.305 174.125 871.844 174.828C871.383 175.531 871.152 176.367 871.152 177.336V178.895C871.152 180.051 871.57 181.016 872.406 181.789C873.25 182.562 874.418 182.949 875.91 182.949C876.801 182.949 877.555 182.828 878.172 182.586C878.531 182.445 878.914 182.168 879.32 181.754C879.57 181.504 879.766 181.344 879.906 181.273C880.047 181.195 880.207 181.156 880.387 181.156C880.707 181.156 880.988 181.277 881.23 181.52C881.473 181.762 881.594 182.047 881.594 182.375C881.594 182.703 881.43 183.055 881.102 183.43C880.625 183.977 880.012 184.406 879.262 184.719C878.254 185.141 877.141 185.352 875.922 185.352C874.5 185.352 873.219 185.059 872.078 184.473C871.156 184.004 870.371 183.266 869.723 182.258C869.074 181.242 868.75 180.137 868.75 178.941V177.312C868.75 176.062 869.039 174.898 869.617 173.82C870.203 172.734 871.012 171.898 872.043 171.312C873.074 170.727 874.168 170.434 875.324 170.434C876.02 170.434 876.668 170.516 877.27 170.68C877.879 170.836 878.445 171.078 878.969 171.406ZM890.816 169.801V182.598H893.699C894.277 182.598 894.688 182.711 894.93 182.938C895.18 183.156 895.305 183.445 895.305 183.805C895.305 184.156 895.18 184.445 894.93 184.672C894.688 184.891 894.277 185 893.699 185H885.531C884.953 185 884.539 184.891 884.289 184.672C884.047 184.445 883.926 184.152 883.926 183.793C883.926 183.441 884.047 183.156 884.289 182.938C884.539 182.711 884.953 182.598 885.531 182.598H888.414V172.203H886.48C885.91 172.203 885.5 172.094 885.25 171.875C885 171.648 884.875 171.355 884.875 170.996C884.875 170.645 884.996 170.359 885.238 170.141C885.488 169.914 885.902 169.801 886.48 169.801H890.816ZM910.27 179.879C910.27 180.801 910.012 181.695 909.496 182.562C908.988 183.422 908.227 184.109 907.211 184.625C906.203 185.133 905.148 185.387 904.047 185.387C902.953 185.387 901.906 185.137 900.906 184.637C899.906 184.129 899.145 183.441 898.621 182.574C898.098 181.707 897.836 180.801 897.836 179.855C897.836 178.895 898.102 177.953 898.633 177.031C899.164 176.102 899.926 175.371 900.918 174.84C901.918 174.309 902.961 174.043 904.047 174.043C905.141 174.043 906.191 174.316 907.199 174.863C908.215 175.402 908.98 176.133 909.496 177.055C910.012 177.969 910.27 178.91 910.27 179.879ZM907.867 179.891C907.867 179.117 907.59 178.406 907.035 177.758C906.277 176.883 905.281 176.445 904.047 176.445C902.961 176.445 902.055 176.793 901.328 177.488C900.602 178.184 900.238 178.988 900.238 179.902C900.238 180.652 900.605 181.355 901.34 182.012C902.074 182.66 902.977 182.984 904.047 182.984C905.125 182.984 906.031 182.66 906.766 182.012C907.5 181.355 907.867 180.648 907.867 179.891ZM921.039 177.172C920.648 176.93 920.238 176.75 919.809 176.633C919.379 176.508 918.93 176.445 918.461 176.445C917.531 176.445 916.793 176.598 916.246 176.902C916.004 177.035 915.883 177.18 915.883 177.336C915.883 177.516 916.047 177.691 916.375 177.863C916.625 177.988 917.184 178.109 918.051 178.227C919.645 178.445 920.754 178.664 921.379 178.883C922.199 179.172 922.832 179.602 923.277 180.172C923.723 180.742 923.945 181.344 923.945 181.977C923.945 182.836 923.566 183.555 922.809 184.133C921.723 184.969 920.312 185.387 918.578 185.387C917.883 185.387 917.238 185.324 916.645 185.199C916.059 185.082 915.52 184.906 915.027 184.672C914.91 184.773 914.785 184.852 914.652 184.906C914.52 184.961 914.383 184.988 914.242 184.988C913.867 184.988 913.566 184.867 913.34 184.625C913.121 184.375 913.012 183.961 913.012 183.383V182.574C913.012 181.996 913.121 181.586 913.34 181.344C913.566 181.094 913.859 180.969 914.219 180.969C914.508 180.969 914.75 181.051 914.945 181.215C915.141 181.371 915.293 181.645 915.402 182.035C915.77 182.348 916.211 182.586 916.727 182.75C917.242 182.906 917.836 182.984 918.508 182.984C919.609 182.984 920.465 182.812 921.074 182.469C921.363 182.297 921.508 182.117 921.508 181.93C921.508 181.617 921.301 181.359 920.887 181.156C920.473 180.953 919.617 180.781 918.32 180.641C916.391 180.438 915.102 180.047 914.453 179.469C913.805 178.898 913.48 178.195 913.48 177.359C913.48 176.5 913.844 175.785 914.57 175.215C915.555 174.434 916.844 174.043 918.438 174.043C918.992 174.043 919.523 174.098 920.031 174.207C920.547 174.309 921.039 174.469 921.508 174.688C921.656 174.578 921.793 174.496 921.918 174.441C922.051 174.387 922.172 174.359 922.281 174.359C922.609 174.359 922.883 174.484 923.102 174.734C923.32 174.977 923.43 175.387 923.43 175.965V176.551C923.43 177.074 923.367 177.43 923.242 177.617C922.992 177.977 922.652 178.156 922.223 178.156C921.934 178.156 921.68 178.066 921.461 177.887C921.242 177.707 921.102 177.469 921.039 177.172ZM933.719 169.801V172.344H930.859V169.801H933.719ZM934.047 174.359V182.598H936.93C937.508 182.598 937.918 182.711 938.16 182.938C938.41 183.156 938.535 183.445 938.535 183.805C938.535 184.156 938.41 184.445 938.16 184.672C937.918 184.891 937.508 185 936.93 185H928.762C928.184 185 927.77 184.891 927.52 184.672C927.277 184.445 927.156 184.152 927.156 183.793C927.156 183.441 927.277 183.156 927.52 182.938C927.77 182.711 928.184 182.598 928.762 182.598H931.645V176.762H929.711C929.141 176.762 928.73 176.652 928.48 176.434C928.23 176.207 928.105 175.914 928.105 175.555C928.105 175.203 928.227 174.918 928.469 174.699C928.719 174.473 929.133 174.359 929.711 174.359H934.047ZM944.84 174.359V175.168C945.277 174.793 945.758 174.512 946.281 174.324C946.812 174.137 947.387 174.043 948.004 174.043C949.426 174.043 950.551 174.484 951.379 175.367C952.035 176.07 952.363 176.992 952.363 178.133V182.598C952.871 182.598 953.246 182.711 953.488 182.938C953.73 183.156 953.852 183.445 953.852 183.805C953.852 184.156 953.727 184.445 953.477 184.672C953.234 184.891 952.824 185 952.246 185H950.078C949.5 185 949.086 184.891 948.836 184.672C948.594 184.445 948.473 184.152 948.473 183.793C948.473 183.441 948.594 183.156 948.836 182.938C949.078 182.711 949.453 182.598 949.961 182.598V178.062C949.961 177.539 949.82 177.156 949.539 176.914C949.172 176.602 948.621 176.445 947.887 176.445C947.332 176.445 946.844 176.555 946.422 176.773C946.008 176.984 945.48 177.438 944.84 178.133V182.598C945.457 182.598 945.855 182.656 946.035 182.773C946.418 183.008 946.609 183.352 946.609 183.805C946.609 184.156 946.484 184.445 946.234 184.672C945.992 184.891 945.582 185 945.004 185H942.273C941.695 185 941.281 184.891 941.031 184.672C940.789 184.445 940.668 184.152 940.668 183.793C940.668 183.355 940.855 183.016 941.23 182.773C941.418 182.656 941.82 182.598 942.438 182.598V176.762C941.93 176.762 941.555 176.648 941.312 176.422C941.07 176.195 940.949 175.906 940.949 175.555C940.949 175.203 941.07 174.918 941.312 174.699C941.562 174.473 941.977 174.359 942.555 174.359H944.84ZM964.328 175.074V174.359H967.141C967.719 174.359 968.129 174.473 968.371 174.699C968.621 174.918 968.746 175.207 968.746 175.566C968.746 175.918 968.621 176.207 968.371 176.434C968.129 176.652 967.719 176.762 967.141 176.762H966.73V185.504C966.73 186.348 966.551 187.082 966.191 187.707C965.84 188.34 965.297 188.883 964.562 189.336C963.828 189.789 963 190.016 962.078 190.016H959.359C958.781 190.016 958.367 189.902 958.117 189.676C957.875 189.457 957.754 189.172 957.754 188.82C957.754 188.461 957.875 188.168 958.117 187.941C958.367 187.723 958.781 187.613 959.359 187.613H962.008C962.742 187.613 963.312 187.414 963.719 187.016C964.125 186.617 964.328 186.113 964.328 185.504V184.332C963.797 184.676 963.254 184.934 962.699 185.105C962.152 185.277 961.59 185.363 961.012 185.363C959.379 185.363 958.012 184.82 956.91 183.734C955.809 182.641 955.258 181.293 955.258 179.691C955.258 178.082 955.809 176.734 956.91 175.648C958.012 174.555 959.379 174.008 961.012 174.008C961.621 174.008 962.199 174.098 962.746 174.277C963.301 174.449 963.828 174.715 964.328 175.074ZM964.316 179.68C964.316 178.797 963.988 178.031 963.332 177.383C962.684 176.734 961.902 176.41 960.988 176.41C960.074 176.41 959.289 176.734 958.633 177.383C957.984 178.031 957.66 178.797 957.66 179.68C957.66 180.57 957.984 181.34 958.633 181.988C959.289 182.629 960.074 182.949 960.988 182.949C961.902 182.949 962.684 182.629 963.332 181.988C963.988 181.34 964.316 180.57 964.316 179.68ZM994.281 171.406C994.43 171.203 994.59 171.051 994.762 170.949C994.941 170.848 995.133 170.797 995.336 170.797C995.688 170.797 995.973 170.918 996.191 171.16C996.418 171.402 996.531 171.812 996.531 172.391V174.43C996.531 175.008 996.418 175.422 996.191 175.672C995.973 175.914 995.688 176.035 995.336 176.035C995.016 176.035 994.758 175.945 994.562 175.766C994.367 175.586 994.223 175.25 994.129 174.758C994.074 174.43 993.965 174.176 993.801 173.996C993.48 173.645 993.031 173.363 992.453 173.152C991.883 172.941 991.309 172.836 990.73 172.836C990.012 172.836 989.352 172.992 988.75 173.305C988.148 173.617 987.617 174.125 987.156 174.828C986.695 175.531 986.465 176.367 986.465 177.336V178.895C986.465 180.051 986.883 181.016 987.719 181.789C988.562 182.562 989.73 182.949 991.223 182.949C992.113 182.949 992.867 182.828 993.484 182.586C993.844 182.445 994.227 182.168 994.633 181.754C994.883 181.504 995.078 181.344 995.219 181.273C995.359 181.195 995.52 181.156 995.699 181.156C996.02 181.156 996.301 181.277 996.543 181.52C996.785 181.762 996.906 182.047 996.906 182.375C996.906 182.703 996.742 183.055 996.414 183.43C995.938 183.977 995.324 184.406 994.574 184.719C993.566 185.141 992.453 185.352 991.234 185.352C989.812 185.352 988.531 185.059 987.391 184.473C986.469 184.004 985.684 183.266 985.035 182.258C984.387 181.242 984.062 180.137 984.062 178.941V177.312C984.062 176.062 984.352 174.898 984.93 173.82C985.516 172.734 986.324 171.898 987.355 171.312C988.387 170.727 989.48 170.434 990.637 170.434C991.332 170.434 991.98 170.516 992.582 170.68C993.191 170.836 993.758 171.078 994.281 171.406ZM1010.96 180.898H1001.1C1001.35 181.523 1001.79 182.027 1002.43 182.41C1003.07 182.793 1003.93 182.984 1005.02 182.984C1005.91 182.984 1007.09 182.793 1008.57 182.41C1009.18 182.254 1009.6 182.176 1009.83 182.176C1010.15 182.176 1010.42 182.289 1010.64 182.516C1010.86 182.742 1010.97 183.027 1010.97 183.371C1010.97 183.684 1010.85 183.949 1010.62 184.168C1010.3 184.457 1009.54 184.734 1008.33 185C1007.12 185.258 1005.96 185.387 1004.84 185.387C1002.92 185.387 1001.38 184.844 1000.22 183.758C999.074 182.672 998.5 181.336 998.5 179.75C998.5 178.062 999.121 176.691 1000.36 175.637C1001.61 174.574 1003.05 174.043 1004.68 174.043C1005.65 174.043 1006.55 174.215 1007.36 174.559C1008.18 174.902 1008.79 175.273 1009.19 175.672C1009.75 176.25 1010.21 176.965 1010.58 177.816C1010.83 178.41 1010.96 179.098 1010.96 179.879V180.898ZM1008.3 178.496C1007.93 177.809 1007.45 177.297 1006.86 176.961C1006.26 176.617 1005.55 176.445 1004.73 176.445C1003.92 176.445 1003.22 176.617 1002.62 176.961C1002.03 177.297 1001.55 177.809 1001.17 178.496H1008.3ZM1018.84 174.359V175.859C1019.85 175.133 1020.64 174.648 1021.22 174.406C1021.81 174.164 1022.36 174.043 1022.86 174.043C1023.64 174.043 1024.4 174.332 1025.14 174.91C1025.64 175.301 1025.89 175.699 1025.89 176.105C1025.89 176.449 1025.77 176.742 1025.52 176.984C1025.29 177.219 1025 177.336 1024.67 177.336C1024.37 177.336 1024.06 177.188 1023.73 176.891C1023.4 176.594 1023.11 176.445 1022.85 176.445C1022.52 176.445 1022.01 176.656 1021.34 177.078C1020.68 177.5 1019.84 178.133 1018.84 178.977V182.598H1022.27C1022.84 182.598 1023.25 182.711 1023.5 182.938C1023.75 183.156 1023.87 183.445 1023.87 183.805C1023.87 184.156 1023.75 184.445 1023.5 184.672C1023.25 184.891 1022.84 185 1022.27 185H1015.01C1014.43 185 1014.02 184.891 1013.77 184.672C1013.53 184.445 1013.41 184.152 1013.41 183.793C1013.41 183.441 1013.53 183.156 1013.77 182.938C1014.02 182.711 1014.43 182.598 1015.01 182.598H1016.44V176.762H1015.57C1015 176.762 1014.58 176.652 1014.33 176.434C1014.09 176.207 1013.97 175.914 1013.97 175.555C1013.97 175.203 1014.09 174.918 1014.33 174.699C1014.58 174.473 1015 174.359 1015.57 174.359H1018.84ZM1039.79 180.898H1029.93C1030.18 181.523 1030.62 182.027 1031.25 182.41C1031.89 182.793 1032.76 182.984 1033.84 182.984C1034.73 182.984 1035.92 182.793 1037.39 182.41C1038 182.254 1038.43 182.176 1038.66 182.176C1038.98 182.176 1039.25 182.289 1039.47 182.516C1039.69 182.742 1039.8 183.027 1039.8 183.371C1039.8 183.684 1039.68 183.949 1039.45 184.168C1039.13 184.457 1038.37 184.734 1037.16 185C1035.95 185.258 1034.79 185.387 1033.67 185.387C1031.75 185.387 1030.21 184.844 1029.05 183.758C1027.9 182.672 1027.33 181.336 1027.33 179.75C1027.33 178.062 1027.95 176.691 1029.19 175.637C1030.44 174.574 1031.88 174.043 1033.5 174.043C1034.48 174.043 1035.38 174.215 1036.19 174.559C1037.01 174.902 1037.62 175.273 1038.02 175.672C1038.58 176.25 1039.04 176.965 1039.41 177.816C1039.66 178.41 1039.79 179.098 1039.79 179.879V180.898ZM1037.12 178.496C1036.76 177.809 1036.28 177.297 1035.68 176.961C1035.09 176.617 1034.38 176.445 1033.56 176.445C1032.75 176.445 1032.05 176.617 1031.45 176.961C1030.86 177.297 1030.38 177.809 1030 178.496H1037.12ZM1044.46 174.359V175.039C1044.85 174.656 1045.2 174.395 1045.52 174.254C1045.84 174.105 1046.2 174.031 1046.62 174.031C1046.97 174.031 1047.32 174.117 1047.66 174.289C1048 174.461 1048.34 174.719 1048.67 175.062C1049.08 174.719 1049.5 174.465 1049.92 174.301C1050.35 174.129 1050.79 174.043 1051.23 174.043C1052.12 174.043 1052.85 174.281 1053.4 174.758C1054.14 175.383 1054.5 176.203 1054.5 177.219V182.598C1055 182.598 1055.38 182.711 1055.62 182.938C1055.86 183.164 1055.98 183.453 1055.98 183.805C1055.98 184.156 1055.86 184.445 1055.62 184.672C1055.38 184.891 1054.96 185 1054.39 185H1052.1V177.418C1052.1 177.051 1052.04 176.797 1051.9 176.656C1051.77 176.516 1051.57 176.445 1051.29 176.445C1051.03 176.445 1050.78 176.516 1050.55 176.656C1050.27 176.852 1049.91 177.219 1049.5 177.758V182.598C1050 182.598 1050.37 182.711 1050.61 182.938C1050.86 183.164 1050.98 183.453 1050.98 183.805C1050.98 184.156 1050.86 184.445 1050.61 184.672C1050.37 184.891 1049.96 185 1049.38 185H1047.1V177.418C1047.1 177.059 1047.03 176.809 1046.89 176.668C1046.75 176.52 1046.55 176.445 1046.28 176.445C1046 176.445 1045.72 176.535 1045.45 176.715C1045.17 176.887 1044.84 177.234 1044.46 177.758V182.598C1044.96 182.598 1045.33 182.711 1045.57 182.938C1045.82 183.164 1045.95 183.453 1045.95 183.805C1045.95 184.156 1045.82 184.445 1045.57 184.672C1045.33 184.891 1044.92 185 1044.34 185H1042.18C1041.6 185 1041.19 184.891 1040.95 184.672C1040.7 184.445 1040.57 184.152 1040.57 183.793C1040.57 183.441 1040.69 183.156 1040.93 182.938C1041.18 182.711 1041.55 182.598 1042.06 182.598V176.762C1041.55 176.762 1041.18 176.648 1040.93 176.422C1040.69 176.195 1040.57 175.906 1040.57 175.555C1040.57 175.203 1040.7 174.918 1040.95 174.699C1041.19 174.473 1041.6 174.359 1042.18 174.359H1044.46ZM1068.82 179.879C1068.82 180.801 1068.57 181.695 1068.05 182.562C1067.54 183.422 1066.78 184.109 1065.77 184.625C1064.76 185.133 1063.7 185.387 1062.6 185.387C1061.51 185.387 1060.46 185.137 1059.46 184.637C1058.46 184.129 1057.7 183.441 1057.18 182.574C1056.65 181.707 1056.39 180.801 1056.39 179.855C1056.39 178.895 1056.66 177.953 1057.19 177.031C1057.72 176.102 1058.48 175.371 1059.47 174.84C1060.47 174.309 1061.52 174.043 1062.6 174.043C1063.7 174.043 1064.75 174.316 1065.75 174.863C1066.77 175.402 1067.54 176.133 1068.05 177.055C1068.57 177.969 1068.82 178.91 1068.82 179.879ZM1066.42 179.891C1066.42 179.117 1066.14 178.406 1065.59 177.758C1064.83 176.883 1063.84 176.445 1062.6 176.445C1061.52 176.445 1060.61 176.793 1059.88 177.488C1059.16 178.184 1058.79 178.988 1058.79 179.902C1058.79 180.652 1059.16 181.355 1059.89 182.012C1060.63 182.66 1061.53 182.984 1062.6 182.984C1063.68 182.984 1064.59 182.66 1065.32 182.012C1066.05 181.355 1066.42 180.648 1066.42 179.891ZM1074.57 174.359V175.168C1075 174.793 1075.48 174.512 1076.01 174.324C1076.54 174.137 1077.11 174.043 1077.73 174.043C1079.15 174.043 1080.28 174.484 1081.11 175.367C1081.76 176.07 1082.09 176.992 1082.09 178.133V182.598C1082.6 182.598 1082.97 182.711 1083.21 182.938C1083.46 183.156 1083.58 183.445 1083.58 183.805C1083.58 184.156 1083.45 184.445 1083.2 184.672C1082.96 184.891 1082.55 185 1081.97 185H1079.8C1079.23 185 1078.81 184.891 1078.56 184.672C1078.32 184.445 1078.2 184.152 1078.2 183.793C1078.2 183.441 1078.32 183.156 1078.56 182.938C1078.8 182.711 1079.18 182.598 1079.69 182.598V178.062C1079.69 177.539 1079.55 177.156 1079.27 176.914C1078.9 176.602 1078.35 176.445 1077.61 176.445C1077.06 176.445 1076.57 176.555 1076.15 176.773C1075.73 176.984 1075.21 177.438 1074.57 178.133V182.598C1075.18 182.598 1075.58 182.656 1075.76 182.773C1076.14 183.008 1076.34 183.352 1076.34 183.805C1076.34 184.156 1076.21 184.445 1075.96 184.672C1075.72 184.891 1075.31 185 1074.73 185H1072C1071.42 185 1071.01 184.891 1070.76 184.672C1070.52 184.445 1070.39 184.152 1070.39 183.793C1070.39 183.355 1070.58 183.016 1070.96 182.773C1071.14 182.656 1071.55 182.598 1072.16 182.598V176.762C1071.66 176.762 1071.28 176.648 1071.04 176.422C1070.8 176.195 1070.68 175.906 1070.68 175.555C1070.68 175.203 1070.8 174.918 1071.04 174.699C1071.29 174.473 1071.7 174.359 1072.28 174.359H1074.57ZM1090.07 184.918L1085.91 176.762C1085.52 176.715 1085.22 176.582 1085.02 176.363C1084.82 176.145 1084.71 175.879 1084.71 175.566C1084.71 175.207 1084.84 174.918 1085.08 174.699C1085.33 174.473 1085.74 174.359 1086.32 174.359H1088.51C1089.09 174.359 1089.5 174.473 1089.74 174.699C1089.99 174.918 1090.12 175.207 1090.12 175.566C1090.12 175.918 1089.99 176.207 1089.74 176.434C1089.5 176.652 1089.11 176.762 1088.58 176.762L1091.42 182.281L1094.23 176.762C1093.71 176.762 1093.33 176.652 1093.08 176.434C1092.84 176.207 1092.72 175.914 1092.72 175.555C1092.72 175.203 1092.84 174.918 1093.08 174.699C1093.33 174.473 1093.75 174.359 1094.32 174.359H1096.59C1097.16 174.359 1097.56 174.473 1097.8 174.699C1098.05 174.918 1098.18 175.207 1098.18 175.566C1098.18 175.887 1098.07 176.16 1097.86 176.387C1097.65 176.605 1097.34 176.73 1096.93 176.762L1091.42 187.613C1092.02 187.613 1092.41 187.672 1092.6 187.789C1092.98 188.031 1093.16 188.375 1093.16 188.82C1093.16 189.172 1093.04 189.457 1092.79 189.676C1092.55 189.902 1092.14 190.016 1091.56 190.016H1086.32C1085.74 190.016 1085.33 189.902 1085.08 189.676C1084.84 189.457 1084.71 189.172 1084.71 188.82C1084.71 188.461 1084.84 188.168 1085.08 187.941C1085.33 187.723 1085.74 187.613 1086.32 187.613H1088.71L1090.07 184.918Z" fill="white"/>
<path d="M3.576 152.264V150.224H1.464V146.936H4.512V149H9.936V146.096H3.576V144.056H1.464V138.752H3.576V136.688H10.872V138.752H13.008V150.224H10.872V152.264H3.576ZM4.512 142.856H9.936V139.976H4.512V142.856ZM15.9249 150.152V146.864H18.9729V150.152H15.9249ZM15.9249 146.12V142.856H18.9729V146.12H15.9249ZM24.0135 152.264V150.224H21.9015V138.752H24.0135V136.688H31.3095V138.752H33.4455V150.224H31.3095V152.264H24.0135ZM24.9495 149H30.3735V139.976H24.9495V149ZM38.4744 152.264V150.224H36.3624V138.752H38.4744V136.688H45.7704V138.752H47.9064V150.224H45.7704V152.264H38.4744ZM39.4104 149H44.8344V139.976H39.4104V149ZM50.8234 152.264V140.792H52.9354V138.752H55.0474V136.688H58.1194V138.752H60.2314V140.792H62.3674V152.264H59.2954V148.16H53.8714V152.264H50.8234ZM53.8714 144.872H59.2954V142.016H57.1834V139.976H55.9834V142.016H53.8714V144.872ZM65.2843 152.264V138.752H67.3963V136.688H70.4443V138.752H72.5803V142.856H73.7563V138.752H75.8923V136.688H78.9643V138.752H81.0523V152.264H78.0283V139.976H76.8283V144.056H74.6923V150.224H71.6443V144.056H69.5083V139.976H68.3323V152.264H65.2843Z" fill="#00FF00"/>
<path d="M313.688 80.264V67.976H312.512V70.016H309.464V66.752H311.576V64.688H314.624V66.752H316.76V80.264H313.688ZM321.795 80.264V78.224H319.683V72.872H321.795V70.856H328.155V67.976H322.731V70.016H319.683V66.752H321.795V64.688H329.091V66.752H331.227V72.056H329.091V74.096H322.731V77H328.155V74.936H331.227V78.224H329.091V80.264H321.795ZM334.144 78.152V74.864H337.192V78.152H334.144ZM334.144 74.12V70.856H337.192V74.12H334.144ZM342.232 80.264V78.224H340.12V66.752H342.232V64.688H349.528V66.752H351.664V78.224H349.528V80.264H342.232ZM343.168 77H348.592V67.976H343.168V77ZM356.693 80.264V78.224H354.581V66.752H356.693V64.688H363.989V66.752H366.125V78.224H363.989V80.264H356.693ZM357.629 77H363.053V67.976H357.629V77ZM369.042 80.264V66.752H371.154V64.688H378.45V66.752H380.586V74.096H378.45V76.16H372.09V80.264H369.042ZM372.09 72.872H377.514V67.976H372.09V72.872ZM383.503 80.264V66.752H385.615V64.688H388.663V66.752H390.799V70.856H391.975V66.752H394.111V64.688H397.183V66.752H399.271V80.264H396.247V67.976H395.047V72.056H392.911V78.224H389.863V72.056H387.727V67.976H386.551V80.264H383.503Z" fill="#00FF00"/>
<path d="M472.688 147.264V134.976H471.512V137.016H468.464V133.752H470.576V131.688H473.624V133.752H475.76V147.264H472.688ZM478.683 145.152V141.864H481.731V145.152H478.683ZM478.683 141.12V137.856H481.731V141.12H478.683ZM486.771 147.264V145.224H484.659V133.752H486.771V131.688H494.067V133.752H496.203V145.224H494.067V147.264H486.771ZM487.707 144H493.131V134.976H487.707V144ZM501.232 147.264V145.224H499.12V133.752H501.232V131.688H508.528V133.752H510.664V145.224H508.528V147.264H501.232ZM502.168 144H507.592V134.976H502.168V144ZM513.581 147.264V133.752H515.693V131.688H522.989V133.752H525.125V141.096H522.989V143.16H516.629V147.264H513.581ZM516.629 139.872H522.053V134.976H516.629V139.872ZM528.042 147.264V133.752H530.154V131.688H533.202V133.752H535.338V137.856H536.514V133.752H538.65V131.688H541.722V133.752H543.81V147.264H540.786V134.976H539.586V139.056H537.45V145.224H534.402V139.056H532.266V134.976H531.09V147.264H528.042Z" fill="#00FF00"/>
<path d="M794.576 77.264V75.224H792.464V71.936H795.512V74H800.936V73.16H796.688V71.096H794.576V69.056H792.464V63.752H794.576V61.688H801.872V63.752H804.008V69.056H800.936V64.976H795.512V67.856H797.624V69.872H801.872V71.936H804.008V75.224H801.872V77.264H794.576ZM806.925 75.152V71.864H809.973V75.152H806.925ZM806.925 71.12V67.856H809.973V71.12H806.925ZM815.014 77.264V75.224H812.902V71.936H815.95V74H821.374V71.096H815.014V67.856H821.374V64.976H815.95V67.016H812.902V63.752H815.014V61.688H822.31V63.752H824.446V69.056H822.31V69.872H824.446V75.224H822.31V77.264H815.014ZM829.474 77.264V75.224H827.362V63.752H829.474V61.688H836.77V63.752H838.906V75.224H836.77V77.264H829.474ZM830.41 74H835.834V64.976H830.41V74ZM841.823 77.264V63.752H843.935V61.688H851.231V63.752H853.367V71.096H851.231V73.16H844.871V77.264H841.823ZM844.871 69.872H850.295V64.976H844.871V69.872ZM856.284 77.264V63.752H858.396V61.688H861.444V63.752H863.58V67.856H864.756V63.752H866.892V61.688H869.964V63.752H872.052V77.264H869.028V64.976H867.828V69.056H865.692V75.224H862.644V69.056H860.508V64.976H859.332V77.264H856.284Z" fill="#00FF00"/>
<path d="M409.918 219.418H403.449L401.352 223.016H403.238C403.465 223.016 403.617 223.051 403.695 223.121C403.773 223.184 403.812 223.277 403.812 223.402C403.812 223.566 403.746 223.707 403.613 223.824C403.48 223.941 403.285 224 403.027 224H399.359C399.141 224 398.992 223.965 398.914 223.895C398.836 223.824 398.797 223.727 398.797 223.602C398.797 223.445 398.859 223.309 398.984 223.191C399.117 223.074 399.312 223.016 399.57 223.016H400.32L407.176 211.273H404.27C404.051 211.273 403.902 211.242 403.824 211.18C403.746 211.109 403.707 211.008 403.707 210.875C403.707 210.719 403.77 210.582 403.895 210.465C404.027 210.348 404.223 210.289 404.48 210.289H409.426L411.535 223.016H412.297C412.516 223.016 412.664 223.051 412.742 223.121C412.82 223.184 412.859 223.277 412.859 223.402C412.859 223.566 412.793 223.707 412.66 223.824C412.535 223.941 412.344 224 412.086 224H408.406C408.188 224 408.039 223.965 407.961 223.895C407.883 223.824 407.844 223.727 407.844 223.602C407.844 223.445 407.906 223.309 408.031 223.191C408.164 223.074 408.359 223.016 408.617 223.016H410.504L409.918 219.418ZM409.754 218.434L408.559 211.273H408.195L404.023 218.434H409.754ZM420.594 213.852L420.066 216.336C421.621 215.164 422.746 214.418 423.441 214.098C424.145 213.77 424.762 213.605 425.293 213.605C425.824 213.605 426.301 213.785 426.723 214.145C427.152 214.504 427.367 214.785 427.367 214.988C427.367 215.152 427.305 215.297 427.18 215.422C427.055 215.547 426.906 215.609 426.734 215.609C426.656 215.609 426.594 215.598 426.547 215.574C426.5 215.543 426.418 215.453 426.301 215.305C426.09 215.031 425.891 214.844 425.703 214.742C425.523 214.641 425.34 214.59 425.152 214.59C424.715 214.59 424.156 214.762 423.477 215.105C422.805 215.449 421.578 216.289 419.797 217.625L418.648 223.016H423.008C423.234 223.016 423.387 223.051 423.465 223.121C423.543 223.184 423.582 223.277 423.582 223.402C423.582 223.566 423.516 223.707 423.383 223.824C423.25 223.941 423.055 224 422.797 224H415.074C414.855 224 414.707 223.969 414.629 223.906C414.551 223.836 414.512 223.742 414.512 223.625C414.512 223.469 414.574 223.336 414.699 223.227C414.824 223.109 415.016 223.051 415.273 223.051H417.652L419.398 214.848H417.582C417.363 214.848 417.215 214.812 417.137 214.742C417.059 214.672 417.02 214.578 417.02 214.461C417.02 214.297 417.082 214.156 417.207 214.039C417.34 213.914 417.535 213.852 417.793 213.852H420.594ZM434.211 213.852H439.555C439.781 213.852 439.93 213.883 440 213.945C440.078 214.008 440.117 214.105 440.117 214.238C440.117 214.379 440.09 214.496 440.035 214.59C439.98 214.676 439.914 214.738 439.836 214.777C439.734 214.824 439.57 214.848 439.344 214.848H434L432.605 221.398C432.566 221.586 432.547 221.758 432.547 221.914C432.547 222.289 432.738 222.633 433.121 222.945C433.512 223.25 434.078 223.402 434.82 223.402C435.516 223.402 436.27 223.305 437.082 223.109C437.902 222.914 438.555 222.688 439.039 222.43C439.219 222.328 439.359 222.277 439.461 222.277C439.57 222.277 439.66 222.316 439.73 222.395C439.801 222.465 439.836 222.562 439.836 222.688C439.836 222.852 439.738 223.004 439.543 223.145C439.066 223.488 438.227 223.801 437.023 224.082C436.156 224.285 435.352 224.387 434.609 224.387C433.633 224.387 432.875 224.16 432.336 223.707C431.805 223.254 431.539 222.707 431.539 222.066C431.539 221.863 431.562 221.641 431.609 221.398L433.004 214.848H431.188C430.969 214.848 430.82 214.812 430.742 214.742C430.664 214.672 430.625 214.574 430.625 214.449C430.625 214.293 430.688 214.156 430.812 214.039C430.945 213.914 431.141 213.852 431.398 213.852H433.215L433.836 210.945C433.883 210.711 433.965 210.543 434.082 210.441C434.199 210.34 434.332 210.289 434.48 210.289C434.59 210.289 434.68 210.324 434.75 210.395C434.828 210.465 434.867 210.551 434.867 210.652C434.867 210.715 434.852 210.812 434.82 210.945L434.211 213.852ZM453.723 214.496C453.77 214.27 453.852 214.105 453.969 214.004C454.086 213.902 454.215 213.852 454.355 213.852C454.473 213.852 454.566 213.891 454.637 213.969C454.715 214.039 454.754 214.121 454.754 214.215C454.754 214.285 454.738 214.387 454.707 214.52L454.355 216.207C454.301 216.441 454.215 216.609 454.098 216.711C453.988 216.812 453.859 216.863 453.711 216.863C453.602 216.863 453.508 216.828 453.43 216.758C453.359 216.688 453.324 216.605 453.324 216.512L453.336 216.312C453.344 216.25 453.348 216.191 453.348 216.137C453.348 215.715 453.16 215.371 452.785 215.105C452.23 214.699 451.453 214.496 450.453 214.496C449.25 214.496 448.293 214.754 447.582 215.27C447.051 215.652 446.785 216.059 446.785 216.488C446.785 216.91 447.016 217.254 447.477 217.52C447.812 217.707 448.523 217.863 449.609 217.988C450.695 218.105 451.473 218.242 451.941 218.398C452.598 218.609 453.086 218.914 453.406 219.312C453.727 219.711 453.887 220.16 453.887 220.66C453.887 221.238 453.676 221.816 453.254 222.395C452.832 222.973 452.188 223.449 451.32 223.824C450.453 224.199 449.477 224.387 448.391 224.387C447.617 224.387 446.934 224.285 446.34 224.082C445.746 223.887 445.242 223.594 444.828 223.203C444.766 223.523 444.688 223.73 444.594 223.824C444.461 223.941 444.316 224 444.16 224C444.051 224 443.957 223.965 443.879 223.895C443.809 223.824 443.773 223.738 443.773 223.637C443.773 223.566 443.785 223.469 443.809 223.344L444.242 221.316C444.289 221.082 444.371 220.914 444.488 220.812C444.605 220.711 444.738 220.66 444.887 220.66C444.996 220.66 445.086 220.699 445.156 220.777C445.234 220.848 445.273 220.934 445.273 221.035C445.273 221.098 445.262 221.188 445.238 221.305C445.215 221.422 445.203 221.508 445.203 221.562C445.203 222.008 445.434 222.398 445.895 222.734C446.504 223.18 447.395 223.402 448.566 223.402C449.965 223.402 451.031 223.125 451.766 222.57C452.5 222.016 452.867 221.465 452.867 220.918C452.867 220.621 452.758 220.332 452.539 220.051C452.328 219.762 452.004 219.535 451.566 219.371C451.129 219.199 450.41 219.062 449.41 218.961C448.418 218.852 447.691 218.719 447.23 218.562C446.777 218.398 446.422 218.152 446.164 217.824C445.906 217.496 445.777 217.121 445.777 216.699C445.777 216.207 445.945 215.727 446.281 215.258C446.617 214.781 447.176 214.371 447.957 214.027C448.746 213.676 449.629 213.5 450.605 213.5C451.285 213.5 451.883 213.582 452.398 213.746C452.922 213.91 453.363 214.16 453.723 214.496ZM481.59 224H480.055L479.328 214.262L474.523 224H472.977L474.242 211.273H473.879C473.66 211.273 473.508 211.242 473.422 211.18C473.344 211.109 473.305 211.008 473.305 210.875C473.305 210.719 473.371 210.582 473.504 210.465C473.637 210.348 473.832 210.289 474.09 210.289H477.746C477.965 210.289 478.113 210.324 478.191 210.395C478.27 210.457 478.309 210.551 478.309 210.676C478.309 210.84 478.242 210.98 478.109 211.098C477.984 211.215 477.793 211.273 477.535 211.273H475.227L474.066 222.875L478.766 213.324H480.266L480.969 222.875L484.707 211.273H482.398C482.18 211.273 482.031 211.242 481.953 211.18C481.875 211.109 481.836 211.008 481.836 210.875C481.836 210.719 481.898 210.582 482.023 210.465C482.156 210.348 482.352 210.289 482.609 210.289H486.254C486.473 210.289 486.621 210.324 486.699 210.395C486.777 210.457 486.816 210.551 486.816 210.676C486.816 210.793 486.777 210.906 486.699 211.016C486.621 211.117 486.527 211.188 486.418 211.227C486.34 211.258 486.094 211.273 485.68 211.273L481.59 224ZM498.055 219.16H488.023C488 219.402 487.988 219.586 487.988 219.711C487.988 220.781 488.352 221.664 489.078 222.359C489.805 223.055 490.789 223.402 492.031 223.402C492.758 223.402 493.547 223.285 494.398 223.051C495.25 222.809 495.98 222.484 496.59 222.078C496.77 221.961 496.914 221.902 497.023 221.902C497.125 221.902 497.211 221.941 497.281 222.02C497.352 222.09 497.387 222.184 497.387 222.301C497.387 222.441 497.324 222.574 497.199 222.699C496.84 223.082 496.121 223.461 495.043 223.836C493.965 224.203 492.871 224.387 491.762 224.387C490.324 224.387 489.168 223.961 488.293 223.109C487.426 222.258 486.992 221.176 486.992 219.863C486.992 218.996 487.18 218.18 487.555 217.414C487.93 216.641 488.422 215.977 489.031 215.422C489.648 214.859 490.355 214.398 491.152 214.039C491.957 213.68 492.832 213.5 493.777 213.5C495.121 213.5 496.199 213.895 497.012 214.684C497.832 215.473 498.242 216.48 498.242 217.707C498.242 218.113 498.18 218.598 498.055 219.16ZM497.258 218.164C497.297 217.086 496.977 216.203 496.297 215.516C495.609 214.836 494.688 214.496 493.531 214.496C492.406 214.496 491.355 214.828 490.379 215.492C489.402 216.156 488.688 217.047 488.234 218.164H497.258ZM511.379 214.496C511.426 214.27 511.508 214.105 511.625 214.004C511.742 213.902 511.871 213.852 512.012 213.852C512.129 213.852 512.223 213.891 512.293 213.969C512.371 214.039 512.41 214.121 512.41 214.215C512.41 214.285 512.395 214.387 512.363 214.52L512.012 216.207C511.957 216.441 511.871 216.609 511.754 216.711C511.645 216.812 511.516 216.863 511.367 216.863C511.258 216.863 511.164 216.828 511.086 216.758C511.016 216.688 510.98 216.605 510.98 216.512L510.992 216.312C511 216.25 511.004 216.191 511.004 216.137C511.004 215.715 510.816 215.371 510.441 215.105C509.887 214.699 509.109 214.496 508.109 214.496C506.906 214.496 505.949 214.754 505.238 215.27C504.707 215.652 504.441 216.059 504.441 216.488C504.441 216.91 504.672 217.254 505.133 217.52C505.469 217.707 506.18 217.863 507.266 217.988C508.352 218.105 509.129 218.242 509.598 218.398C510.254 218.609 510.742 218.914 511.062 219.312C511.383 219.711 511.543 220.16 511.543 220.66C511.543 221.238 511.332 221.816 510.91 222.395C510.488 222.973 509.844 223.449 508.977 223.824C508.109 224.199 507.133 224.387 506.047 224.387C505.273 224.387 504.59 224.285 503.996 224.082C503.402 223.887 502.898 223.594 502.484 223.203C502.422 223.523 502.344 223.73 502.25 223.824C502.117 223.941 501.973 224 501.816 224C501.707 224 501.613 223.965 501.535 223.895C501.465 223.824 501.43 223.738 501.43 223.637C501.43 223.566 501.441 223.469 501.465 223.344L501.898 221.316C501.945 221.082 502.027 220.914 502.145 220.812C502.262 220.711 502.395 220.66 502.543 220.66C502.652 220.66 502.742 220.699 502.812 220.777C502.891 220.848 502.93 220.934 502.93 221.035C502.93 221.098 502.918 221.188 502.895 221.305C502.871 221.422 502.859 221.508 502.859 221.562C502.859 222.008 503.09 222.398 503.551 222.734C504.16 223.18 505.051 223.402 506.223 223.402C507.621 223.402 508.688 223.125 509.422 222.57C510.156 222.016 510.523 221.465 510.523 220.918C510.523 220.621 510.414 220.332 510.195 220.051C509.984 219.762 509.66 219.535 509.223 219.371C508.785 219.199 508.066 219.062 507.066 218.961C506.074 218.852 505.348 218.719 504.887 218.562C504.434 218.398 504.078 218.152 503.82 217.824C503.562 217.496 503.434 217.121 503.434 216.699C503.434 216.207 503.602 215.727 503.938 215.258C504.273 214.781 504.832 214.371 505.613 214.027C506.402 213.676 507.285 213.5 508.262 213.5C508.941 213.5 509.539 213.582 510.055 213.746C510.578 213.91 511.02 214.16 511.379 214.496ZM520.695 213.852H526.039C526.266 213.852 526.414 213.883 526.484 213.945C526.562 214.008 526.602 214.105 526.602 214.238C526.602 214.379 526.574 214.496 526.52 214.59C526.465 214.676 526.398 214.738 526.32 214.777C526.219 214.824 526.055 214.848 525.828 214.848H520.484L519.09 221.398C519.051 221.586 519.031 221.758 519.031 221.914C519.031 222.289 519.223 222.633 519.605 222.945C519.996 223.25 520.562 223.402 521.305 223.402C522 223.402 522.754 223.305 523.566 223.109C524.387 222.914 525.039 222.688 525.523 222.43C525.703 222.328 525.844 222.277 525.945 222.277C526.055 222.277 526.145 222.316 526.215 222.395C526.285 222.465 526.32 222.562 526.32 222.688C526.32 222.852 526.223 223.004 526.027 223.145C525.551 223.488 524.711 223.801 523.508 224.082C522.641 224.285 521.836 224.387 521.094 224.387C520.117 224.387 519.359 224.16 518.82 223.707C518.289 223.254 518.023 222.707 518.023 222.066C518.023 221.863 518.047 221.641 518.094 221.398L519.488 214.848H517.672C517.453 214.848 517.305 214.812 517.227 214.742C517.148 214.672 517.109 214.574 517.109 214.449C517.109 214.293 517.172 214.156 517.297 214.039C517.43 213.914 517.625 213.852 517.883 213.852H519.699L520.32 210.945C520.367 210.711 520.449 210.543 520.566 210.441C520.684 210.34 520.816 210.289 520.965 210.289C521.074 210.289 521.164 210.324 521.234 210.395C521.312 210.465 521.352 210.551 521.352 210.652C521.352 210.715 521.336 210.812 521.305 210.945L520.695 213.852Z" fill="white"/>
<path d="M878.918 216.418H872.449L870.352 220.016H872.238C872.465 220.016 872.617 220.051 872.695 220.121C872.773 220.184 872.812 220.277 872.812 220.402C872.812 220.566 872.746 220.707 872.613 220.824C872.48 220.941 872.285 221 872.027 221H868.359C868.141 221 867.992 220.965 867.914 220.895C867.836 220.824 867.797 220.727 867.797 220.602C867.797 220.445 867.859 220.309 867.984 220.191C868.117 220.074 868.312 220.016 868.57 220.016H869.32L876.176 208.273H873.27C873.051 208.273 872.902 208.242 872.824 208.18C872.746 208.109 872.707 208.008 872.707 207.875C872.707 207.719 872.77 207.582 872.895 207.465C873.027 207.348 873.223 207.289 873.48 207.289H878.426L880.535 220.016H881.297C881.516 220.016 881.664 220.051 881.742 220.121C881.82 220.184 881.859 220.277 881.859 220.402C881.859 220.566 881.793 220.707 881.66 220.824C881.535 220.941 881.344 221 881.086 221H877.406C877.188 221 877.039 220.965 876.961 220.895C876.883 220.824 876.844 220.727 876.844 220.602C876.844 220.445 876.906 220.309 877.031 220.191C877.164 220.074 877.359 220.016 877.617 220.016H879.504L878.918 216.418ZM878.754 215.434L877.559 208.273H877.195L873.023 215.434H878.754ZM889.594 210.852L889.066 213.336C890.621 212.164 891.746 211.418 892.441 211.098C893.145 210.77 893.762 210.605 894.293 210.605C894.824 210.605 895.301 210.785 895.723 211.145C896.152 211.504 896.367 211.785 896.367 211.988C896.367 212.152 896.305 212.297 896.18 212.422C896.055 212.547 895.906 212.609 895.734 212.609C895.656 212.609 895.594 212.598 895.547 212.574C895.5 212.543 895.418 212.453 895.301 212.305C895.09 212.031 894.891 211.844 894.703 211.742C894.523 211.641 894.34 211.59 894.152 211.59C893.715 211.59 893.156 211.762 892.477 212.105C891.805 212.449 890.578 213.289 888.797 214.625L887.648 220.016H892.008C892.234 220.016 892.387 220.051 892.465 220.121C892.543 220.184 892.582 220.277 892.582 220.402C892.582 220.566 892.516 220.707 892.383 220.824C892.25 220.941 892.055 221 891.797 221H884.074C883.855 221 883.707 220.969 883.629 220.906C883.551 220.836 883.512 220.742 883.512 220.625C883.512 220.469 883.574 220.336 883.699 220.227C883.824 220.109 884.016 220.051 884.273 220.051H886.652L888.398 211.848H886.582C886.363 211.848 886.215 211.812 886.137 211.742C886.059 211.672 886.02 211.578 886.02 211.461C886.02 211.297 886.082 211.156 886.207 211.039C886.34 210.914 886.535 210.852 886.793 210.852H889.594ZM903.211 210.852H908.555C908.781 210.852 908.93 210.883 909 210.945C909.078 211.008 909.117 211.105 909.117 211.238C909.117 211.379 909.09 211.496 909.035 211.59C908.98 211.676 908.914 211.738 908.836 211.777C908.734 211.824 908.57 211.848 908.344 211.848H903L901.605 218.398C901.566 218.586 901.547 218.758 901.547 218.914C901.547 219.289 901.738 219.633 902.121 219.945C902.512 220.25 903.078 220.402 903.82 220.402C904.516 220.402 905.27 220.305 906.082 220.109C906.902 219.914 907.555 219.688 908.039 219.43C908.219 219.328 908.359 219.277 908.461 219.277C908.57 219.277 908.66 219.316 908.73 219.395C908.801 219.465 908.836 219.562 908.836 219.688C908.836 219.852 908.738 220.004 908.543 220.145C908.066 220.488 907.227 220.801 906.023 221.082C905.156 221.285 904.352 221.387 903.609 221.387C902.633 221.387 901.875 221.16 901.336 220.707C900.805 220.254 900.539 219.707 900.539 219.066C900.539 218.863 900.562 218.641 900.609 218.398L902.004 211.848H900.188C899.969 211.848 899.82 211.812 899.742 211.742C899.664 211.672 899.625 211.574 899.625 211.449C899.625 211.293 899.688 211.156 899.812 211.039C899.945 210.914 900.141 210.852 900.398 210.852H902.215L902.836 207.945C902.883 207.711 902.965 207.543 903.082 207.441C903.199 207.34 903.332 207.289 903.48 207.289C903.59 207.289 903.68 207.324 903.75 207.395C903.828 207.465 903.867 207.551 903.867 207.652C903.867 207.715 903.852 207.812 903.82 207.945L903.211 210.852ZM922.723 211.496C922.77 211.27 922.852 211.105 922.969 211.004C923.086 210.902 923.215 210.852 923.355 210.852C923.473 210.852 923.566 210.891 923.637 210.969C923.715 211.039 923.754 211.121 923.754 211.215C923.754 211.285 923.738 211.387 923.707 211.52L923.355 213.207C923.301 213.441 923.215 213.609 923.098 213.711C922.988 213.812 922.859 213.863 922.711 213.863C922.602 213.863 922.508 213.828 922.43 213.758C922.359 213.688 922.324 213.605 922.324 213.512L922.336 213.312C922.344 213.25 922.348 213.191 922.348 213.137C922.348 212.715 922.16 212.371 921.785 212.105C921.23 211.699 920.453 211.496 919.453 211.496C918.25 211.496 917.293 211.754 916.582 212.27C916.051 212.652 915.785 213.059 915.785 213.488C915.785 213.91 916.016 214.254 916.477 214.52C916.812 214.707 917.523 214.863 918.609 214.988C919.695 215.105 920.473 215.242 920.941 215.398C921.598 215.609 922.086 215.914 922.406 216.312C922.727 216.711 922.887 217.16 922.887 217.66C922.887 218.238 922.676 218.816 922.254 219.395C921.832 219.973 921.188 220.449 920.32 220.824C919.453 221.199 918.477 221.387 917.391 221.387C916.617 221.387 915.934 221.285 915.34 221.082C914.746 220.887 914.242 220.594 913.828 220.203C913.766 220.523 913.688 220.73 913.594 220.824C913.461 220.941 913.316 221 913.16 221C913.051 221 912.957 220.965 912.879 220.895C912.809 220.824 912.773 220.738 912.773 220.637C912.773 220.566 912.785 220.469 912.809 220.344L913.242 218.316C913.289 218.082 913.371 217.914 913.488 217.812C913.605 217.711 913.738 217.66 913.887 217.66C913.996 217.66 914.086 217.699 914.156 217.777C914.234 217.848 914.273 217.934 914.273 218.035C914.273 218.098 914.262 218.188 914.238 218.305C914.215 218.422 914.203 218.508 914.203 218.562C914.203 219.008 914.434 219.398 914.895 219.734C915.504 220.18 916.395 220.402 917.566 220.402C918.965 220.402 920.031 220.125 920.766 219.57C921.5 219.016 921.867 218.465 921.867 217.918C921.867 217.621 921.758 217.332 921.539 217.051C921.328 216.762 921.004 216.535 920.566 216.371C920.129 216.199 919.41 216.062 918.41 215.961C917.418 215.852 916.691 215.719 916.23 215.562C915.777 215.398 915.422 215.152 915.164 214.824C914.906 214.496 914.777 214.121 914.777 213.699C914.777 213.207 914.945 212.727 915.281 212.258C915.617 211.781 916.176 211.371 916.957 211.027C917.746 210.676 918.629 210.5 919.605 210.5C920.285 210.5 920.883 210.582 921.398 210.746C921.922 210.91 922.363 211.16 922.723 211.496ZM950.59 221H949.055L948.328 211.262L943.523 221H941.977L943.242 208.273H942.879C942.66 208.273 942.508 208.242 942.422 208.18C942.344 208.109 942.305 208.008 942.305 207.875C942.305 207.719 942.371 207.582 942.504 207.465C942.637 207.348 942.832 207.289 943.09 207.289H946.746C946.965 207.289 947.113 207.324 947.191 207.395C947.27 207.457 947.309 207.551 947.309 207.676C947.309 207.84 947.242 207.98 947.109 208.098C946.984 208.215 946.793 208.273 946.535 208.273H944.227L943.066 219.875L947.766 210.324H949.266L949.969 219.875L953.707 208.273H951.398C951.18 208.273 951.031 208.242 950.953 208.18C950.875 208.109 950.836 208.008 950.836 207.875C950.836 207.719 950.898 207.582 951.023 207.465C951.156 207.348 951.352 207.289 951.609 207.289H955.254C955.473 207.289 955.621 207.324 955.699 207.395C955.777 207.457 955.816 207.551 955.816 207.676C955.816 207.793 955.777 207.906 955.699 208.016C955.621 208.117 955.527 208.188 955.418 208.227C955.34 208.258 955.094 208.273 954.68 208.273L950.59 221ZM967.055 216.16H957.023C957 216.402 956.988 216.586 956.988 216.711C956.988 217.781 957.352 218.664 958.078 219.359C958.805 220.055 959.789 220.402 961.031 220.402C961.758 220.402 962.547 220.285 963.398 220.051C964.25 219.809 964.98 219.484 965.59 219.078C965.77 218.961 965.914 218.902 966.023 218.902C966.125 218.902 966.211 218.941 966.281 219.02C966.352 219.09 966.387 219.184 966.387 219.301C966.387 219.441 966.324 219.574 966.199 219.699C965.84 220.082 965.121 220.461 964.043 220.836C962.965 221.203 961.871 221.387 960.762 221.387C959.324 221.387 958.168 220.961 957.293 220.109C956.426 219.258 955.992 218.176 955.992 216.863C955.992 215.996 956.18 215.18 956.555 214.414C956.93 213.641 957.422 212.977 958.031 212.422C958.648 211.859 959.355 211.398 960.152 211.039C960.957 210.68 961.832 210.5 962.777 210.5C964.121 210.5 965.199 210.895 966.012 211.684C966.832 212.473 967.242 213.48 967.242 214.707C967.242 215.113 967.18 215.598 967.055 216.16ZM966.258 215.164C966.297 214.086 965.977 213.203 965.297 212.516C964.609 211.836 963.688 211.496 962.531 211.496C961.406 211.496 960.355 211.828 959.379 212.492C958.402 213.156 957.688 214.047 957.234 215.164H966.258ZM980.379 211.496C980.426 211.27 980.508 211.105 980.625 211.004C980.742 210.902 980.871 210.852 981.012 210.852C981.129 210.852 981.223 210.891 981.293 210.969C981.371 211.039 981.41 211.121 981.41 211.215C981.41 211.285 981.395 211.387 981.363 211.52L981.012 213.207C980.957 213.441 980.871 213.609 980.754 213.711C980.645 213.812 980.516 213.863 980.367 213.863C980.258 213.863 980.164 213.828 980.086 213.758C980.016 213.688 979.98 213.605 979.98 213.512L979.992 213.312C980 213.25 980.004 213.191 980.004 213.137C980.004 212.715 979.816 212.371 979.441 212.105C978.887 211.699 978.109 211.496 977.109 211.496C975.906 211.496 974.949 211.754 974.238 212.27C973.707 212.652 973.441 213.059 973.441 213.488C973.441 213.91 973.672 214.254 974.133 214.52C974.469 214.707 975.18 214.863 976.266 214.988C977.352 215.105 978.129 215.242 978.598 215.398C979.254 215.609 979.742 215.914 980.062 216.312C980.383 216.711 980.543 217.16 980.543 217.66C980.543 218.238 980.332 218.816 979.91 219.395C979.488 219.973 978.844 220.449 977.977 220.824C977.109 221.199 976.133 221.387 975.047 221.387C974.273 221.387 973.59 221.285 972.996 221.082C972.402 220.887 971.898 220.594 971.484 220.203C971.422 220.523 971.344 220.73 971.25 220.824C971.117 220.941 970.973 221 970.816 221C970.707 221 970.613 220.965 970.535 220.895C970.465 220.824 970.43 220.738 970.43 220.637C970.43 220.566 970.441 220.469 970.465 220.344L970.898 218.316C970.945 218.082 971.027 217.914 971.145 217.812C971.262 217.711 971.395 217.66 971.543 217.66C971.652 217.66 971.742 217.699 971.812 217.777C971.891 217.848 971.93 217.934 971.93 218.035C971.93 218.098 971.918 218.188 971.895 218.305C971.871 218.422 971.859 218.508 971.859 218.562C971.859 219.008 972.09 219.398 972.551 219.734C973.16 220.18 974.051 220.402 975.223 220.402C976.621 220.402 977.688 220.125 978.422 219.57C979.156 219.016 979.523 218.465 979.523 217.918C979.523 217.621 979.414 217.332 979.195 217.051C978.984 216.762 978.66 216.535 978.223 216.371C977.785 216.199 977.066 216.062 976.066 215.961C975.074 215.852 974.348 215.719 973.887 215.562C973.434 215.398 973.078 215.152 972.82 214.824C972.562 214.496 972.434 214.121 972.434 213.699C972.434 213.207 972.602 212.727 972.938 212.258C973.273 211.781 973.832 211.371 974.613 211.027C975.402 210.676 976.285 210.5 977.262 210.5C977.941 210.5 978.539 210.582 979.055 210.746C979.578 210.91 980.02 211.16 980.379 211.496ZM989.695 210.852H995.039C995.266 210.852 995.414 210.883 995.484 210.945C995.562 211.008 995.602 211.105 995.602 211.238C995.602 211.379 995.574 211.496 995.52 211.59C995.465 211.676 995.398 211.738 995.32 211.777C995.219 211.824 995.055 211.848 994.828 211.848H989.484L988.09 218.398C988.051 218.586 988.031 218.758 988.031 218.914C988.031 219.289 988.223 219.633 988.605 219.945C988.996 220.25 989.562 220.402 990.305 220.402C991 220.402 991.754 220.305 992.566 220.109C993.387 219.914 994.039 219.688 994.523 219.43C994.703 219.328 994.844 219.277 994.945 219.277C995.055 219.277 995.145 219.316 995.215 219.395C995.285 219.465 995.32 219.562 995.32 219.688C995.32 219.852 995.223 220.004 995.027 220.145C994.551 220.488 993.711 220.801 992.508 221.082C991.641 221.285 990.836 221.387 990.094 221.387C989.117 221.387 988.359 221.16 987.82 220.707C987.289 220.254 987.023 219.707 987.023 219.066C987.023 218.863 987.047 218.641 987.094 218.398L988.488 211.848H986.672C986.453 211.848 986.305 211.812 986.227 211.742C986.148 211.672 986.109 211.574 986.109 211.449C986.109 211.293 986.172 211.156 986.297 211.039C986.43 210.914 986.625 210.852 986.883 210.852H988.699L989.32 207.945C989.367 207.711 989.449 207.543 989.566 207.441C989.684 207.34 989.816 207.289 989.965 207.289C990.074 207.289 990.164 207.324 990.234 207.395C990.312 207.465 990.352 207.551 990.352 207.652C990.352 207.715 990.336 207.812 990.305 207.945L989.695 210.852Z" fill="white"/>
<line x1="852.001" y1="29.5" x2="520" y2="29.5" stroke="white" stroke-width="3"/>
</svg>
